<svg width="229" height="254" viewBox="0 0 229 254" fill="none" xmlns="http://www.w3.org/2000/svg">
<rect width="228.411" height="253.322" rx="14" fill="white"/>
<rect x="1" y="1" width="226.411" height="251.322" rx="13" stroke="#E73126" stroke-opacity="0.5" stroke-width="2"/>
<path d="M89.98 169.254H84.74L83.9 171.734H80.32L85.4 157.694H89.36L94.44 171.734H90.82L89.98 169.254ZM89.1 166.614L87.36 161.474L85.64 166.614H89.1ZM95.3061 166.134C95.3061 164.988 95.5194 163.981 95.9461 163.114C96.3861 162.248 96.9794 161.581 97.7261 161.114C98.4728 160.648 99.3061 160.414 100.226 160.414C100.959 160.414 101.626 160.568 102.226 160.874C102.839 161.181 103.319 161.594 103.666 162.114V156.934H107.086V171.734H103.666V170.134C103.346 170.668 102.886 171.094 102.286 171.414C101.699 171.734 101.013 171.894 100.226 171.894C99.3061 171.894 98.4728 171.661 97.7261 171.194C96.9794 170.714 96.3861 170.041 95.9461 169.174C95.5194 168.294 95.3061 167.281 95.3061 166.134ZM103.666 166.154C103.666 165.301 103.426 164.628 102.946 164.134C102.479 163.641 101.906 163.394 101.226 163.394C100.546 163.394 99.9661 163.641 99.4861 164.134C99.0194 164.614 98.7861 165.281 98.7861 166.134C98.7861 166.988 99.0194 167.668 99.4861 168.174C99.9661 168.668 100.546 168.914 101.226 168.914C101.906 168.914 102.479 168.668 102.946 168.174C103.426 167.681 103.666 167.008 103.666 166.154ZM123.8 160.454C125.187 160.454 126.287 160.874 127.1 161.714C127.927 162.554 128.34 163.721 128.34 165.214V171.734H124.94V165.674C124.94 164.954 124.747 164.401 124.36 164.014C123.987 163.614 123.467 163.414 122.8 163.414C122.134 163.414 121.607 163.614 121.22 164.014C120.847 164.401 120.66 164.954 120.66 165.674V171.734H117.26V165.674C117.26 164.954 117.067 164.401 116.68 164.014C116.307 163.614 115.787 163.414 115.12 163.414C114.454 163.414 113.927 163.614 113.54 164.014C113.167 164.401 112.98 164.954 112.98 165.674V171.734H109.56V160.574H112.98V161.974C113.327 161.508 113.78 161.141 114.34 160.874C114.9 160.594 115.534 160.454 116.24 160.454C117.08 160.454 117.827 160.634 118.48 160.994C119.147 161.354 119.667 161.868 120.04 162.534C120.427 161.921 120.954 161.421 121.62 161.034C122.287 160.648 123.014 160.454 123.8 160.454ZM132.452 159.414C131.852 159.414 131.359 159.241 130.972 158.894C130.599 158.534 130.412 158.094 130.412 157.574C130.412 157.041 130.599 156.601 130.972 156.254C131.359 155.894 131.852 155.714 132.452 155.714C133.039 155.714 133.519 155.894 133.892 156.254C134.279 156.601 134.472 157.041 134.472 157.574C134.472 158.094 134.279 158.534 133.892 158.894C133.519 159.241 133.039 159.414 132.452 159.414ZM134.152 160.574V171.734H130.732V160.574H134.152ZM143.431 160.454C144.737 160.454 145.777 160.881 146.551 161.734C147.337 162.574 147.731 163.734 147.731 165.214V171.734H144.331V165.674C144.331 164.928 144.137 164.348 143.751 163.934C143.364 163.521 142.844 163.314 142.191 163.314C141.537 163.314 141.017 163.521 140.631 163.934C140.244 164.348 140.051 164.928 140.051 165.674V171.734H136.631V160.574H140.051V162.054C140.397 161.561 140.864 161.174 141.451 160.894C142.037 160.601 142.697 160.454 143.431 160.454Z" fill="#F37F7C"/>
<g clip-path="url(#clip0_935_11630)">
<path d="M148.269 118.955C147.787 120.092 145.145 120.071 144.586 120.752C144.477 120.883 144.035 121.897 143.995 122.093C143.646 123.799 146.042 125.186 144.924 126.69C144.714 126.973 142.376 129.33 142.173 129.447C140.838 130.21 139.095 127.957 137.763 128.321C137.602 128.365 136.815 128.714 136.671 128.803C135.362 129.617 135.959 132.304 134.224 132.716L132.255 122.627C136.915 122.649 139.807 117.653 137.4 113.625C135.38 110.242 130.445 109.841 127.856 112.797C127.528 113.171 126.825 114.614 126.544 114.638L119.914 112.928C120.209 112.184 120.786 111.485 120.707 110.635C120.595 109.416 118.797 108.059 119.651 106.834C119.871 106.52 122.375 104.045 122.635 103.915C123.778 103.346 125.444 105.312 126.64 105.171C126.83 105.148 127.787 104.763 127.968 104.651C129.138 103.924 128.887 101.307 130.055 100.838C130.497 100.661 133.812 100.666 134.389 100.77C135.638 100.995 135.568 103.297 136.19 104.211C136.487 104.645 137.919 105.272 138.456 105.169C139.601 104.948 141.017 103.201 142.236 104.075C142.681 104.393 144.586 106.31 144.924 106.764C146.047 108.268 143.637 109.56 143.969 111.258C144.479 113.877 146.838 112.825 148.269 114.367V118.954V118.955Z" fill="#F37F7C"/>
<path d="M85.7128 142.675C82.6944 142.318 80.5301 139.328 81.0878 136.355L84.4395 119.783C86.1091 115.375 93.7945 115.766 97.5548 114.004C98.0371 113.507 100.254 111.646 100.347 111.158C100.638 109.644 99.7594 109.682 98.8439 108.865C97.2339 107.427 95.8009 105.286 95.1959 103.201C95.0538 102.709 94.8591 101.188 94.696 100.948C94.554 100.74 93.7928 100.514 93.4841 100.323C91.5689 99.1308 90.8849 96.6869 91.7916 94.6246C91.9582 94.2465 92.4072 93.7896 92.4669 93.4639C93.1684 89.6913 90.7393 83.9981 95.5326 81.8465C95.8974 81.682 96.9813 81.5017 97.0462 81.4579C97.1006 81.4211 97.3321 80.4495 97.4373 80.2097C98.3318 78.1684 100.033 77.0532 102.248 76.8869C110.104 76.2987 118.887 77.0602 121.16 86.0639C121.811 88.6391 121.064 91.2318 121.49 93.4657C121.555 93.8018 122.312 94.7174 122.479 95.3617C122.965 97.2226 122.111 99.4249 120.429 100.407C120.185 100.549 119.355 100.806 119.285 100.904C119.199 101.025 118.906 102.888 118.766 103.334C118.075 105.547 116.728 107.375 115.055 108.935C114.199 109.731 113.464 109.647 113.746 111.154C113.836 111.632 115.797 113.574 116.274 113.871C118.406 115.205 123.908 115.708 126.602 116.797C128.565 117.59 129.343 118.92 129.845 120.899C131.197 126.233 131.864 131.973 133.048 137.369C133.128 139.722 130.617 142.677 128.246 142.677H123.059L125.297 124.01C125.567 121.751 123.931 120.032 121.686 120.002C112.094 120.475 101.924 119.391 92.3985 120.002C90.2851 120.137 88.8644 121.14 88.654 123.35C89.3555 129.797 90.3044 136.229 90.8937 142.679C89.2538 142.539 87.3105 142.868 85.7075 142.679L85.7128 142.675ZM100.447 87.9196C98.9579 88.2172 98.6685 92.3698 98.323 93.5392C97.7583 95.4457 95.936 93.6478 94.5066 94.7104C93.1088 95.7486 93.456 98.1505 95.1345 98.6722C95.7097 98.8507 96.2692 98.6599 96.6761 99.2306C97.055 99.7593 96.8568 100.246 96.9532 100.789C99.0561 112.651 114.862 112.539 117.009 101.051C117.066 100.738 116.998 100.393 117.058 100.052C117.352 98.3798 118.092 99.0888 119.194 98.5146C120.636 97.7636 120.737 95.6663 119.452 94.7122C118.166 93.758 116.972 94.945 116.165 94.0609C115.307 93.1226 116.495 91.2353 115.192 89.9223C114.053 88.7757 111.182 89.2904 109.602 89.2116C108.225 89.1433 106.664 88.9805 105.295 88.7949C103.667 88.5743 102.078 88.1244 100.45 87.9178L100.447 87.9196ZM102.583 111.093V113.124C102.583 114.155 104.155 115.846 105.079 116.268C108.676 117.91 111.977 114.757 111.51 111.093C108.667 112.14 105.419 112.228 102.583 111.093Z" fill="#F37F7C"/>
<path d="M92.9998 142.673L90.7689 124.261C90.711 123.176 90.6865 122.215 92.0089 122.094H121.954C122.736 122.08 123.364 122.813 123.317 123.587C122.417 129.366 122.06 135.234 121.207 141.019C121.14 141.472 121.13 142.293 120.753 142.531L93.0016 142.675L92.9998 142.673ZM109.316 132.365C109.316 131.089 108.279 130.056 107.003 130.056C105.726 130.056 104.689 131.091 104.689 132.365C104.689 133.64 105.726 134.674 107.003 134.674C108.279 134.674 109.316 133.64 109.316 132.365Z" fill="#F37F7C"/>
</g>
<defs>
<clipPath id="clip0_935_11630">
<rect width="67.2692" height="66" fill="white" transform="translate(81 76.7344)"/>
</clipPath>
</defs>
</svg>
