<svg width="229" height="254" viewBox="0 0 229 254" fill="none" xmlns="http://www.w3.org/2000/svg">
<rect x="1" y="1.26562" width="226.411" height="251.322" rx="13" fill="white" stroke="#4763E4" stroke-width="2"/>
<path d="M89.98 169.52H84.74L83.9 172H80.32L85.4 157.96H89.36L94.44 172H90.82L89.98 169.52ZM89.1 166.88L87.36 161.74L85.64 166.88H89.1ZM95.3061 166.4C95.3061 165.253 95.5194 164.247 95.9461 163.38C96.3861 162.513 96.9794 161.847 97.7261 161.38C98.4728 160.913 99.3061 160.68 100.226 160.68C100.959 160.68 101.626 160.833 102.226 161.14C102.839 161.447 103.319 161.86 103.666 162.38V157.2H107.086V172H103.666V170.4C103.346 170.933 102.886 171.36 102.286 171.68C101.699 172 101.013 172.16 100.226 172.16C99.3061 172.16 98.4728 171.927 97.7261 171.46C96.9794 170.98 96.3861 170.307 95.9461 169.44C95.5194 168.56 95.3061 167.547 95.3061 166.4ZM103.666 166.42C103.666 165.567 103.426 164.893 102.946 164.4C102.479 163.907 101.906 163.66 101.226 163.66C100.546 163.66 99.9661 163.907 99.4861 164.4C99.0194 164.88 98.7861 165.547 98.7861 166.4C98.7861 167.253 99.0194 167.933 99.4861 168.44C99.9661 168.933 100.546 169.18 101.226 169.18C101.906 169.18 102.479 168.933 102.946 168.44C103.426 167.947 103.666 167.273 103.666 166.42ZM123.8 160.72C125.187 160.72 126.287 161.14 127.1 161.98C127.927 162.82 128.34 163.987 128.34 165.48V172H124.94V165.94C124.94 165.22 124.747 164.667 124.36 164.28C123.987 163.88 123.467 163.68 122.8 163.68C122.134 163.68 121.607 163.88 121.22 164.28C120.847 164.667 120.66 165.22 120.66 165.94V172H117.26V165.94C117.26 165.22 117.067 164.667 116.68 164.28C116.307 163.88 115.787 163.68 115.12 163.68C114.454 163.68 113.927 163.88 113.54 164.28C113.167 164.667 112.98 165.22 112.98 165.94V172H109.56V160.84H112.98V162.24C113.327 161.773 113.78 161.407 114.34 161.14C114.9 160.86 115.534 160.72 116.24 160.72C117.08 160.72 117.827 160.9 118.48 161.26C119.147 161.62 119.667 162.133 120.04 162.8C120.427 162.187 120.954 161.687 121.62 161.3C122.287 160.913 123.014 160.72 123.8 160.72ZM132.452 159.68C131.852 159.68 131.359 159.507 130.972 159.16C130.599 158.8 130.412 158.36 130.412 157.84C130.412 157.307 130.599 156.867 130.972 156.52C131.359 156.16 131.852 155.98 132.452 155.98C133.039 155.98 133.519 156.16 133.892 156.52C134.279 156.867 134.472 157.307 134.472 157.84C134.472 158.36 134.279 158.8 133.892 159.16C133.519 159.507 133.039 159.68 132.452 159.68ZM134.152 160.84V172H130.732V160.84H134.152ZM143.431 160.72C144.737 160.72 145.777 161.147 146.551 162C147.337 162.84 147.731 164 147.731 165.48V172H144.331V165.94C144.331 165.193 144.137 164.613 143.751 164.2C143.364 163.787 142.844 163.58 142.191 163.58C141.537 163.58 141.017 163.787 140.631 164.2C140.244 164.613 140.051 165.193 140.051 165.94V172H136.631V160.84H140.051V162.32C140.397 161.827 140.864 161.44 141.451 161.16C142.037 160.867 142.697 160.72 143.431 160.72Z" fill="#4763E4"/>
<g clip-path="url(#clip0_933_11606)">
<path d="M148.269 119.221C147.787 120.357 145.145 120.336 144.586 121.017C144.477 121.149 144.035 122.162 143.995 122.358C143.646 124.065 146.042 125.452 144.924 126.955C144.714 127.239 142.376 129.595 142.173 129.713C140.838 130.476 139.095 128.223 137.763 128.587C137.602 128.631 136.815 128.979 136.671 129.069C135.362 129.883 135.959 132.57 134.224 132.981L132.255 122.892C136.915 122.915 139.807 117.919 137.4 113.89C135.38 110.508 130.445 110.107 127.856 113.062C127.528 113.437 126.825 114.879 126.544 114.904L119.914 113.193C120.209 112.449 120.786 111.751 120.707 110.9C120.595 109.682 118.797 108.325 119.651 107.099C119.871 106.786 122.375 104.311 122.635 104.181C123.778 103.612 125.444 105.578 126.64 105.436C126.83 105.414 127.787 105.028 127.968 104.916C129.138 104.19 128.887 101.573 130.055 101.103C130.497 100.927 133.812 100.932 134.389 101.035C135.638 101.261 135.568 103.563 136.19 104.477C136.487 104.911 137.919 105.538 138.456 105.435C139.601 105.214 141.017 103.467 142.236 104.34C142.681 104.659 144.586 106.576 144.924 107.029C146.047 108.533 143.637 109.825 143.969 111.523C144.479 114.142 146.838 113.09 148.269 114.633V119.219V119.221Z" fill="#4763E4"/>
<path d="M85.7128 142.941C82.6944 142.584 80.5301 139.593 81.0878 136.621L84.4395 120.049C86.1091 115.641 93.7945 116.031 97.5548 114.27C98.0371 113.773 100.254 111.912 100.347 111.424C100.638 109.909 99.7594 109.948 98.8439 109.13C97.2339 107.693 95.8009 105.552 95.1959 103.467C95.0538 102.975 94.8591 101.453 94.696 101.214C94.554 101.005 93.7928 100.779 93.4841 100.589C91.5689 99.3965 90.8849 96.9525 91.7916 94.8903C91.9582 94.5121 92.4072 94.0552 92.4669 93.7296C93.1684 89.9569 90.7393 84.2637 95.5326 82.1122C95.8974 81.9476 96.9813 81.7673 97.0462 81.7235C97.1006 81.6867 97.3321 80.7151 97.4373 80.4753C98.3318 78.434 100.033 77.3188 102.248 77.1525C110.104 76.5643 118.887 77.3258 121.16 86.3295C121.811 88.9047 121.064 91.4975 121.49 93.7313C121.555 94.0674 122.312 94.983 122.479 95.6273C122.965 97.4882 122.111 99.6906 120.429 100.673C120.185 100.814 119.355 101.072 119.285 101.17C119.199 101.291 118.906 103.153 118.766 103.6C118.075 105.813 116.728 107.64 115.055 109.2C114.199 109.997 113.464 109.913 113.746 111.42C113.836 111.898 115.797 113.839 116.274 114.137C118.406 115.471 123.908 115.973 126.602 117.062C128.565 117.855 129.343 119.186 129.845 121.164C131.197 126.498 131.864 132.239 133.048 137.634C133.128 139.987 130.617 142.942 128.246 142.942H123.059L125.297 124.275C125.567 122.017 123.931 120.298 121.686 120.268C112.094 120.741 101.924 119.657 92.3985 120.268C90.2851 120.403 88.8644 121.406 88.654 123.615C89.3555 130.063 90.3044 136.495 90.8937 142.944C89.2538 142.804 87.3105 143.133 85.7075 142.944L85.7128 142.941ZM100.447 88.1852C98.9579 88.4828 98.6685 92.6354 98.323 93.8048C97.7583 95.7113 95.936 93.9134 94.5066 94.976C93.1088 96.0142 93.456 98.4161 95.1345 98.9378C95.7097 99.1164 96.2692 98.9255 96.6761 99.4962C97.055 100.025 96.8568 100.512 96.9532 101.054C99.0561 112.917 114.862 112.805 117.009 101.317C117.066 101.004 116.998 100.659 117.058 100.317C117.352 98.6454 118.092 99.3544 119.194 98.7802C120.636 98.0292 120.737 95.9319 119.452 94.9778C118.166 94.0237 116.972 95.2106 116.165 94.3265C115.307 93.3882 116.495 91.501 115.192 90.188C114.053 89.0413 111.182 89.556 109.602 89.4772C108.225 89.4089 106.664 89.2461 105.295 89.0605C103.667 88.84 102.078 88.39 100.45 88.1835L100.447 88.1852ZM102.583 111.359V113.39C102.583 114.421 104.155 116.112 105.079 116.534C108.676 118.176 111.977 115.023 111.51 111.359C108.667 112.406 105.419 112.493 102.583 111.359Z" fill="#4763E4"/>
<path d="M93.0003 142.939L90.7694 124.527C90.7115 123.441 90.687 122.48 92.0094 122.36H121.955C122.737 122.346 123.365 123.079 123.318 123.853C122.418 129.632 122.06 135.5 121.208 141.284C121.141 141.738 121.13 142.559 120.753 142.797L93.0021 142.94L93.0003 142.939ZM109.316 132.631C109.316 131.354 108.28 130.322 107.003 130.322C105.726 130.322 104.69 131.356 104.69 132.631C104.69 133.905 105.726 134.94 107.003 134.94C108.28 134.94 109.316 133.905 109.316 132.631Z" fill="#4763E4"/>
</g>
<defs>
<clipPath id="clip0_933_11606">
<rect width="67.2692" height="66" fill="white" transform="translate(81 77)"/>
</clipPath>
</defs>
</svg>
