<svg width="229" height="269" viewBox="0 0 229 269" fill="none" xmlns="http://www.w3.org/2000/svg">
<rect x="1" y="16" width="226.411" height="251.322" rx="13" stroke="#E73126" stroke-opacity="0.5" stroke-width="2"/>
<path d="M89.98 184.254H84.74L83.9 186.734H80.32L85.4 172.694H89.36L94.44 186.734H90.82L89.98 184.254ZM89.1 181.614L87.36 176.474L85.64 181.614H89.1ZM95.3061 181.134C95.3061 179.988 95.5194 178.981 95.9461 178.114C96.3861 177.248 96.9794 176.581 97.7261 176.114C98.4728 175.648 99.3061 175.414 100.226 175.414C100.959 175.414 101.626 175.568 102.226 175.874C102.839 176.181 103.319 176.594 103.666 177.114V171.934H107.086V186.734H103.666V185.134C103.346 185.668 102.886 186.094 102.286 186.414C101.699 186.734 101.013 186.894 100.226 186.894C99.3061 186.894 98.4728 186.661 97.7261 186.194C96.9794 185.714 96.3861 185.041 95.9461 184.174C95.5194 183.294 95.3061 182.281 95.3061 181.134ZM103.666 181.154C103.666 180.301 103.426 179.628 102.946 179.134C102.479 178.641 101.906 178.394 101.226 178.394C100.546 178.394 99.9661 178.641 99.4861 179.134C99.0194 179.614 98.7861 180.281 98.7861 181.134C98.7861 181.988 99.0194 182.668 99.4861 183.174C99.9661 183.668 100.546 183.914 101.226 183.914C101.906 183.914 102.479 183.668 102.946 183.174C103.426 182.681 103.666 182.008 103.666 181.154ZM123.8 175.454C125.187 175.454 126.287 175.874 127.1 176.714C127.927 177.554 128.34 178.721 128.34 180.214V186.734H124.94V180.674C124.94 179.954 124.747 179.401 124.36 179.014C123.987 178.614 123.467 178.414 122.8 178.414C122.134 178.414 121.607 178.614 121.22 179.014C120.847 179.401 120.66 179.954 120.66 180.674V186.734H117.26V180.674C117.26 179.954 117.067 179.401 116.68 179.014C116.307 178.614 115.787 178.414 115.12 178.414C114.454 178.414 113.927 178.614 113.54 179.014C113.167 179.401 112.98 179.954 112.98 180.674V186.734H109.56V175.574H112.98V176.974C113.327 176.508 113.78 176.141 114.34 175.874C114.9 175.594 115.534 175.454 116.24 175.454C117.08 175.454 117.827 175.634 118.48 175.994C119.147 176.354 119.667 176.868 120.04 177.534C120.427 176.921 120.954 176.421 121.62 176.034C122.287 175.648 123.014 175.454 123.8 175.454ZM132.452 174.414C131.852 174.414 131.359 174.241 130.972 173.894C130.599 173.534 130.412 173.094 130.412 172.574C130.412 172.041 130.599 171.601 130.972 171.254C131.359 170.894 131.852 170.714 132.452 170.714C133.039 170.714 133.519 170.894 133.892 171.254C134.279 171.601 134.472 172.041 134.472 172.574C134.472 173.094 134.279 173.534 133.892 173.894C133.519 174.241 133.039 174.414 132.452 174.414ZM134.152 175.574V186.734H130.732V175.574H134.152ZM143.431 175.454C144.737 175.454 145.777 175.881 146.551 176.734C147.337 177.574 147.731 178.734 147.731 180.214V186.734H144.331V180.674C144.331 179.928 144.137 179.348 143.751 178.934C143.364 178.521 142.844 178.314 142.191 178.314C141.537 178.314 141.017 178.521 140.631 178.934C140.244 179.348 140.051 179.928 140.051 180.674V186.734H136.631V175.574H140.051V177.054C140.397 176.561 140.864 176.174 141.451 175.894C142.037 175.601 142.697 175.454 143.431 175.454Z" fill="#F37F7C"/>
<g clip-path="url(#clip0_1429_13973)">
<path d="M148.269 133.955C147.787 135.092 145.145 135.071 144.586 135.752C144.477 135.883 144.035 136.897 143.995 137.093C143.646 138.799 146.042 140.186 144.924 141.69C144.714 141.973 142.376 144.33 142.173 144.447C140.838 145.21 139.095 142.957 137.763 143.321C137.602 143.365 136.815 143.714 136.671 143.803C135.362 144.617 135.959 147.304 134.224 147.716L132.255 137.627C136.915 137.649 139.807 132.653 137.4 128.625C135.38 125.242 130.445 124.841 127.856 127.797C127.528 128.171 126.825 129.614 126.544 129.638L119.914 127.928C120.209 127.184 120.786 126.485 120.707 125.635C120.595 124.416 118.797 123.059 119.651 121.834C119.871 121.52 122.375 119.045 122.635 118.915C123.778 118.346 125.444 120.312 126.64 120.171C126.83 120.148 127.787 119.763 127.968 119.651C129.138 118.924 128.887 116.307 130.055 115.838C130.497 115.661 133.812 115.666 134.389 115.77C135.638 115.995 135.568 118.297 136.19 119.211C136.487 119.645 137.919 120.272 138.456 120.169C139.601 119.948 141.017 118.201 142.236 119.075C142.681 119.393 144.586 121.31 144.924 121.764C146.047 123.268 143.637 124.56 143.969 126.258C144.479 128.877 146.838 127.825 148.269 129.367V133.954V133.955Z" fill="#F37F7C"/>
<path d="M85.7128 157.675C82.6944 157.318 80.5301 154.328 81.0878 151.355L84.4395 134.783C86.1091 130.375 93.7945 130.766 97.5548 129.004C98.0371 128.507 100.254 126.646 100.347 126.158C100.638 124.644 99.7594 124.682 98.8439 123.865C97.2339 122.427 95.8009 120.286 95.1959 118.201C95.0538 117.709 94.8591 116.188 94.696 115.948C94.554 115.74 93.7928 115.514 93.4841 115.323C91.5689 114.131 90.8849 111.687 91.7916 109.625C91.9582 109.246 92.4072 108.79 92.4669 108.464C93.1684 104.691 90.7393 98.9981 95.5326 96.8465C95.8974 96.682 96.9813 96.5017 97.0462 96.4579C97.1006 96.4211 97.3321 95.4495 97.4373 95.2097C98.3318 93.1684 100.033 92.0532 102.248 91.8869C110.104 91.2987 118.887 92.0602 121.16 101.064C121.811 103.639 121.064 106.232 121.49 108.466C121.555 108.802 122.312 109.717 122.479 110.362C122.965 112.223 122.111 114.425 120.429 115.407C120.185 115.549 119.355 115.806 119.285 115.904C119.199 116.025 118.906 117.888 118.766 118.334C118.075 120.547 116.728 122.375 115.055 123.935C114.199 124.731 113.464 124.647 113.746 126.154C113.836 126.632 115.797 128.574 116.274 128.871C118.406 130.205 123.908 130.708 126.602 131.797C128.565 132.59 129.343 133.92 129.845 135.899C131.197 141.233 131.864 146.973 133.048 152.369C133.128 154.722 130.617 157.677 128.246 157.677H123.059L125.297 139.01C125.567 136.751 123.931 135.032 121.686 135.002C112.094 135.475 101.924 134.391 92.3985 135.002C90.2851 135.137 88.8644 136.14 88.654 138.35C89.3555 144.797 90.3044 151.229 90.8937 157.679C89.2538 157.539 87.3105 157.868 85.7075 157.679L85.7128 157.675ZM100.447 102.92C98.9579 103.217 98.6685 107.37 98.323 108.539C97.7583 110.446 95.936 108.648 94.5066 109.71C93.1088 110.749 93.456 113.15 95.1345 113.672C95.7097 113.851 96.2692 113.66 96.6761 114.231C97.055 114.759 96.8568 115.246 96.9532 115.789C99.0561 127.651 114.862 127.539 117.009 116.051C117.066 115.738 116.998 115.393 117.058 115.052C117.352 113.38 118.092 114.089 119.194 113.515C120.636 112.764 120.737 110.666 119.452 109.712C118.166 108.758 116.972 109.945 116.165 109.061C115.307 108.123 116.495 106.235 115.192 104.922C114.053 103.776 111.182 104.29 109.602 104.212C108.225 104.143 106.664 103.98 105.295 103.795C103.667 103.574 102.078 103.124 100.45 102.918L100.447 102.92ZM102.583 126.093V128.124C102.583 129.155 104.155 130.846 105.079 131.268C108.676 132.91 111.977 129.757 111.51 126.093C108.667 127.14 105.419 127.228 102.583 126.093Z" fill="#F37F7C"/>
<path d="M92.9998 157.673L90.7689 139.261C90.711 138.176 90.6865 137.215 92.0089 137.094H121.954C122.736 137.08 123.364 137.813 123.317 138.587C122.417 144.366 122.06 150.234 121.207 156.019C121.14 156.472 121.13 157.293 120.753 157.531L93.0016 157.675L92.9998 157.673ZM109.316 147.365C109.316 146.089 108.279 145.056 107.003 145.056C105.726 145.056 104.689 146.091 104.689 147.365C104.689 148.64 105.726 149.674 107.003 149.674C108.279 149.674 109.316 148.64 109.316 147.365Z" fill="#F37F7C"/>
</g>
<circle cx="114.364" cy="15.3641" r="15.3641" fill="white"/>
<path d="M114.364 0C105.883 0 99 6.88311 99 15.3641C99 23.845 105.883 30.7281 114.364 30.7281C122.845 30.7281 129.728 23.845 129.728 15.3641C129.728 6.88311 122.845 0 114.364 0ZM110.2 21.9553L104.685 16.4396C104.086 15.8404 104.086 14.8724 104.685 14.2732C105.284 13.674 106.252 13.674 106.851 14.2732L111.291 18.6981L121.862 8.1276C122.461 7.5284 123.429 7.5284 124.028 8.1276C124.627 8.72679 124.627 9.69473 124.028 10.2939L112.367 21.9553C111.783 22.5545 110.8 22.5545 110.2 21.9553Z" fill="#EB2A25" fill-opacity="0.6"/>
<defs>
<clipPath id="clip0_1429_13973">
<rect width="67.2692" height="66" fill="white" transform="translate(81 91.7344)"/>
</clipPath>
</defs>
</svg>
