<svg width="449" height="56" viewBox="0 0 449 56" fill="none" xmlns="http://www.w3.org/2000/svg">
<rect width="449" height="56" rx="8" fill="#4763E4"/>
<path d="M205.538 34.208C204.925 34.208 204.335 34.112 203.77 33.92C203.205 33.728 202.711 33.4533 202.29 33.096C201.869 32.7333 201.567 32.304 201.386 31.808L202.946 31.224C203.037 31.48 203.21 31.7093 203.466 31.912C203.727 32.1093 204.037 32.264 204.394 32.376C204.757 32.488 205.138 32.544 205.538 32.544C205.965 32.544 206.365 32.4747 206.738 32.336C207.117 32.1973 207.421 32.0053 207.65 31.76C207.885 31.5147 208.002 31.2267 208.002 30.896C208.002 30.5547 207.879 30.2747 207.634 30.056C207.394 29.8373 207.085 29.664 206.706 29.536C206.333 29.408 205.943 29.312 205.538 29.248C204.754 29.12 204.05 28.9333 203.426 28.688C202.807 28.4427 202.317 28.0987 201.954 27.656C201.597 27.2133 201.418 26.6373 201.418 25.928C201.418 25.2613 201.607 24.68 201.986 24.184C202.37 23.688 202.874 23.304 203.498 23.032C204.127 22.7547 204.807 22.616 205.538 22.616C206.141 22.616 206.722 22.712 207.282 22.904C207.847 23.0907 208.343 23.3653 208.77 23.728C209.202 24.0853 209.511 24.52 209.698 25.032L208.122 25.6C208.031 25.3387 207.858 25.112 207.602 24.92C207.346 24.7227 207.037 24.568 206.674 24.456C206.317 24.344 205.938 24.288 205.538 24.288C205.111 24.2827 204.711 24.352 204.338 24.496C203.97 24.6347 203.669 24.8267 203.434 25.072C203.199 25.3173 203.082 25.6027 203.082 25.928C203.082 26.328 203.191 26.632 203.41 26.84C203.629 27.048 203.922 27.2027 204.29 27.304C204.663 27.4 205.079 27.488 205.538 27.568C206.274 27.6853 206.954 27.88 207.578 28.152C208.207 28.424 208.711 28.7867 209.09 29.24C209.474 29.688 209.666 30.24 209.666 30.896C209.666 31.5573 209.474 32.1387 209.09 32.64C208.711 33.136 208.207 33.5227 207.578 33.8C206.954 34.072 206.274 34.208 205.538 34.208ZM211.312 26H212.976V34H211.312V26ZM212.16 24.84C211.904 24.84 211.69 24.7573 211.52 24.592C211.349 24.4267 211.264 24.2187 211.264 23.968C211.264 23.7227 211.349 23.5173 211.52 23.352C211.69 23.1813 211.901 23.096 212.152 23.096C212.397 23.096 212.605 23.1813 212.776 23.352C212.946 23.5173 213.032 23.7227 213.032 23.968C213.032 24.2187 212.946 24.4267 212.776 24.592C212.61 24.7573 212.405 24.84 212.16 24.84ZM220.837 26H222.501V34.208C222.501 34.7573 222.384 35.264 222.149 35.728C221.92 36.192 221.608 36.592 221.213 36.928C220.818 37.2693 220.365 37.5333 219.853 37.72C219.346 37.9067 218.816 38 218.261 38C217.701 38 217.162 37.88 216.645 37.64C216.128 37.4053 215.672 37.0853 215.277 36.68C214.888 36.2747 214.597 35.816 214.405 35.304L215.933 34.616C216.04 34.9467 216.21 35.24 216.445 35.496C216.685 35.752 216.962 35.9547 217.277 36.104C217.597 36.2533 217.925 36.328 218.261 36.328C218.592 36.328 218.909 36.2747 219.213 36.168C219.522 36.0667 219.797 35.9227 220.037 35.736C220.282 35.5493 220.477 35.3253 220.621 35.064C220.765 34.8027 220.837 34.5173 220.837 34.208V32.856C220.576 33.2613 220.24 33.5893 219.829 33.84C219.418 34.0853 218.941 34.208 218.397 34.208C217.832 34.208 217.298 34.0987 216.797 33.88C216.296 33.6613 215.856 33.36 215.477 32.976C215.098 32.5867 214.802 32.1387 214.589 31.632C214.376 31.1253 214.269 30.5813 214.269 30C214.269 29.4187 214.376 28.8747 214.589 28.368C214.802 27.856 215.098 27.408 215.477 27.024C215.856 26.6347 216.296 26.3307 216.797 26.112C217.298 25.8933 217.832 25.784 218.397 25.784C218.941 25.784 219.418 25.9093 219.829 26.16C220.24 26.4053 220.576 26.7333 220.837 27.144V26ZM218.413 32.6C218.877 32.6 219.282 32.4827 219.629 32.248C219.976 32.008 220.245 31.6907 220.437 31.296C220.629 30.9013 220.725 30.4693 220.725 30C220.725 29.52 220.626 29.0853 220.429 28.696C220.237 28.3013 219.968 27.9867 219.621 27.752C219.274 27.512 218.872 27.392 218.413 27.392C217.965 27.392 217.554 27.5093 217.181 27.744C216.813 27.9787 216.52 28.2933 216.301 28.688C216.082 29.0827 215.973 29.52 215.973 30C215.973 30.48 216.082 30.9173 216.301 31.312C216.525 31.7067 216.821 32.0213 217.189 32.256C217.562 32.4853 217.97 32.6 218.413 32.6ZM231.621 28.984V34H229.957V29.392C229.957 29.0347 229.869 28.7093 229.693 28.416C229.522 28.1227 229.29 27.8907 228.997 27.72C228.709 27.544 228.384 27.456 228.021 27.456C227.669 27.456 227.346 27.544 227.053 27.72C226.76 27.8907 226.525 28.1227 226.349 28.416C226.173 28.7093 226.085 29.0347 226.085 29.392V34H224.421V26H226.085V26.848C226.362 26.5173 226.704 26.256 227.109 26.064C227.514 25.872 227.952 25.776 228.421 25.776C229.013 25.776 229.552 25.92 230.037 26.208C230.522 26.496 230.906 26.8827 231.189 27.368C231.477 27.8533 231.621 28.392 231.621 28.984ZM237.062 26H238.726V34H237.062V26ZM237.91 24.84C237.654 24.84 237.44 24.7573 237.27 24.592C237.099 24.4267 237.014 24.2187 237.014 23.968C237.014 23.7227 237.099 23.5173 237.27 23.352C237.44 23.1813 237.651 23.096 237.902 23.096C238.147 23.096 238.355 23.1813 238.526 23.352C238.696 23.5173 238.782 23.7227 238.782 23.968C238.782 24.2187 238.696 24.4267 238.526 24.592C238.36 24.7573 238.155 24.84 237.91 24.84ZM247.777 28.984V34H246.113V29.392C246.113 29.0347 246.025 28.7093 245.849 28.416C245.679 28.1227 245.447 27.8907 245.153 27.72C244.865 27.544 244.54 27.456 244.177 27.456C243.825 27.456 243.503 27.544 243.209 27.72C242.916 27.8907 242.681 28.1227 242.505 28.416C242.329 28.7093 242.241 29.0347 242.241 29.392V34H240.577V26H242.241V26.848C242.519 26.5173 242.86 26.256 243.265 26.064C243.671 25.872 244.108 25.776 244.577 25.776C245.169 25.776 245.708 25.92 246.193 26.208C246.679 26.496 247.063 26.8827 247.345 27.368C247.633 27.8533 247.777 28.392 247.777 28.984Z" fill="white"/>
</svg>
