<svg width="472" height="619" viewBox="0 0 472 619" fill="none" xmlns="http://www.w3.org/2000/svg">
<g clip-path="url(#clip0_910_11543)">
<path d="M378.201 463.668H266.615C262.072 463.668 258.389 467.348 258.389 471.888V532.362C258.389 536.902 262.072 540.583 266.615 540.583H378.201C382.744 540.583 386.427 536.902 386.427 532.362V471.888C386.427 467.348 382.744 463.668 378.201 463.668Z" fill="white"/>
<path opacity="0.1" d="M378.201 463.668H266.615C262.072 463.668 258.389 467.348 258.389 471.888V532.362C258.389 536.902 262.072 540.583 266.615 540.583H378.201C382.744 540.583 386.427 536.902 386.427 532.362V471.888C386.427 467.348 382.744 463.668 378.201 463.668Z" fill="#E62F24"/>
<path d="M351.158 504.908H341.278C340.676 504.908 340.189 505.396 340.189 505.997V527.882C340.189 528.483 340.676 528.971 341.278 528.971H351.158C351.76 528.971 352.247 528.483 352.247 527.882V505.997C352.247 505.396 351.76 504.908 351.158 504.908Z" fill="white"/>
<path d="M374.968 486.195H365.088C364.486 486.195 363.999 486.683 363.999 487.284V527.883C363.999 528.484 364.486 528.972 365.088 528.972H374.968C375.57 528.972 376.057 528.484 376.057 527.883V487.284C376.057 486.683 375.57 486.195 374.968 486.195Z" fill="white"/>
<path d="M279.727 504.908H269.847C269.245 504.908 268.758 505.396 268.758 505.997V527.882C268.758 528.483 269.245 528.971 269.847 528.971H279.727C280.329 528.971 280.816 528.483 280.816 527.882V505.997C280.816 505.396 280.329 504.908 279.727 504.908Z" fill="white"/>
<path d="M303.538 477.686H293.658C293.056 477.686 292.568 478.173 292.568 478.774V527.882C292.568 528.484 293.056 528.971 293.658 528.971H303.538C304.139 528.971 304.627 528.484 304.627 527.882V478.774C304.627 478.173 304.139 477.686 303.538 477.686Z" fill="white"/>
<path d="M327.348 499.516H317.467C316.866 499.516 316.378 500.003 316.378 500.604V527.883C316.378 528.484 316.866 528.971 317.467 528.971H327.348C327.949 528.971 328.437 528.484 328.437 527.883V500.604C328.437 500.003 327.949 499.516 327.348 499.516Z" fill="white"/>
<path d="M177.373 416.627H35.7494C29.9834 416.627 25.3091 421.298 25.3091 427.06V503.812C25.3091 509.575 29.9834 514.246 35.7494 514.246H177.373C183.139 514.246 187.813 509.575 187.813 503.812V427.06C187.813 421.298 183.139 416.627 177.373 416.627Z" fill="white"/>
<path opacity="0.1" d="M177.373 416.627H35.7494C29.9834 416.627 25.3091 421.298 25.3091 427.06V503.812C25.3091 509.575 29.9834 514.246 35.7494 514.246H177.373C183.139 514.246 187.813 509.575 187.813 503.812V427.06C187.813 421.298 183.139 416.627 177.373 416.627Z" fill="#E62F24"/>
<path d="M143.051 468.971H130.511C129.747 468.971 129.128 469.589 129.128 470.352V498.129C129.128 498.892 129.747 499.51 130.511 499.51H143.051C143.814 499.51 144.433 498.892 144.433 498.129V470.352C144.433 469.589 143.814 468.971 143.051 468.971Z" fill="white"/>
<path d="M173.27 445.219H160.73C159.967 445.219 159.348 445.837 159.348 446.6V498.128C159.348 498.891 159.967 499.51 160.73 499.51H173.27C174.034 499.51 174.653 498.891 174.653 498.128V446.6C174.653 445.837 174.034 445.219 173.27 445.219Z" fill="white"/>
<path d="M52.3918 468.971H39.8515C39.0881 468.971 38.4692 469.589 38.4692 470.352V498.129C38.4692 498.892 39.0881 499.51 39.8515 499.51H52.3918C53.1552 499.51 53.774 498.892 53.774 498.129V470.352C53.774 469.589 53.1552 468.971 52.3918 468.971Z" fill="white"/>
<path d="M82.6115 434.42H70.0712C69.3078 434.42 68.689 435.038 68.689 435.801V498.129C68.689 498.891 69.3078 499.51 70.0712 499.51H82.6115C83.3749 499.51 83.9937 498.891 83.9937 498.129V435.801C83.9937 435.038 83.3749 434.42 82.6115 434.42Z" fill="white"/>
<path d="M112.831 462.125H100.291C99.5275 462.125 98.9087 462.743 98.9087 463.506V498.128C98.9087 498.891 99.5275 499.51 100.291 499.51H112.831C113.595 499.51 114.213 498.891 114.213 498.128V463.506C114.213 462.743 113.595 462.125 112.831 462.125Z" fill="white"/>
<path d="M445.882 161H283.228C276.606 161 271.238 166.365 271.238 172.983V261.132C271.238 267.75 276.606 273.115 283.228 273.115H445.882C452.504 273.115 457.872 267.75 457.872 261.132V172.983C457.872 166.365 452.504 161 445.882 161Z" fill="white"/>
<path opacity="0.1" d="M445.882 161H283.228C276.606 161 271.238 166.365 271.238 172.983V261.132C271.238 267.75 276.606 273.115 283.228 273.115H445.882C452.504 273.115 457.872 267.75 457.872 261.132V172.983C457.872 166.365 452.504 161 445.882 161Z" fill="#E62F24"/>
<path d="M406.463 221.115H392.061C391.184 221.115 390.474 221.825 390.474 222.702V254.603C390.474 255.48 391.184 256.19 392.061 256.19H406.463C407.34 256.19 408.051 255.48 408.051 254.603V222.702C408.051 221.825 407.34 221.115 406.463 221.115Z" fill="white"/>
<path d="M441.17 193.836H426.768C425.891 193.836 425.18 194.546 425.18 195.422V254.603C425.18 255.479 425.891 256.189 426.768 256.189H441.17C442.047 256.189 442.758 255.479 442.758 254.603V195.422C442.758 194.546 442.047 193.836 441.17 193.836Z" fill="white"/>
<path d="M302.342 221.115H287.94C287.063 221.115 286.352 221.825 286.352 222.702V254.603C286.352 255.48 287.063 256.19 287.94 256.19H302.342C303.219 256.19 303.929 255.48 303.929 254.603V222.702C303.929 221.825 303.219 221.115 302.342 221.115Z" fill="white"/>
<path d="M337.049 181.434H322.647C321.77 181.434 321.06 182.144 321.06 183.02V254.603C321.06 255.479 321.77 256.189 322.647 256.189H337.049C337.926 256.189 338.637 255.479 338.637 254.603V183.02C338.637 182.144 337.926 181.434 337.049 181.434Z" fill="white"/>
<path d="M371.756 213.252H357.354C356.477 213.252 355.766 213.962 355.766 214.838V254.602C355.766 255.478 356.477 256.188 357.354 256.188H371.756C372.633 256.188 373.343 255.478 373.343 254.602V214.838C373.343 213.962 372.633 213.252 371.756 213.252Z" fill="white"/>
<path d="M92.6957 253.537H13.3491C10.1187 253.537 7.5 256.154 7.5 259.382V302.384C7.5 305.612 10.1187 308.229 13.3491 308.229H92.6957C95.9261 308.229 98.5448 305.612 98.5448 302.384V259.382C98.5448 256.154 95.9261 253.537 92.6957 253.537Z" fill="white"/>
<path opacity="0.3" d="M92.6957 253.537H13.3491C10.1187 253.537 7.5 256.154 7.5 259.382V302.384C7.5 305.612 10.1187 308.229 13.3491 308.229H92.6957C95.9261 308.229 98.5448 305.612 98.5448 302.384V259.382C98.5448 256.154 95.9261 253.537 92.6957 253.537Z" fill="#E62F24"/>
<path d="M73.4668 282.863H66.4407C66.0131 282.863 65.6665 283.21 65.6665 283.637V299.2C65.6665 299.627 66.0131 299.974 66.4407 299.974H73.4668C73.8944 299.974 74.2411 299.627 74.2411 299.2V283.637C74.2411 283.21 73.8944 282.863 73.4668 282.863Z" fill="white"/>
<path d="M90.3975 269.557H83.3714C82.9438 269.557 82.5972 269.903 82.5972 270.33V299.2C82.5972 299.627 82.9438 299.974 83.3714 299.974H90.3975C90.8251 299.974 91.1717 299.627 91.1717 299.2V270.33C91.1717 269.903 90.8251 269.557 90.3975 269.557Z" fill="white"/>
<path d="M22.6739 282.863H15.6478C15.2202 282.863 14.8735 283.21 14.8735 283.637V299.2C14.8735 299.627 15.2202 299.974 15.6478 299.974H22.6739C23.1015 299.974 23.4481 299.627 23.4481 299.2V283.637C23.4481 283.21 23.1015 282.863 22.6739 282.863Z" fill="white"/>
<path d="M39.605 263.506H32.5789C32.1513 263.506 31.8047 263.852 31.8047 264.28V299.2C31.8047 299.627 32.1513 299.974 32.5789 299.974H39.605C40.0326 299.974 40.3793 299.627 40.3793 299.2V264.28C40.3793 263.852 40.0326 263.506 39.605 263.506Z" fill="white"/>
<path d="M56.5357 279.027H49.5096C49.082 279.027 48.7354 279.374 48.7354 279.801V299.199C48.7354 299.626 49.082 299.973 49.5096 299.973H56.5357C56.9633 299.973 57.3099 299.626 57.3099 299.199V279.801C57.3099 279.374 56.9633 279.027 56.5357 279.027Z" fill="white"/>
<path d="M83.1471 447.393L403.619 447.393C411.489 447.393 417.869 441.017 417.869 433.152L417.869 198.672C417.869 190.807 411.489 184.432 403.619 184.432L83.1471 184.432C75.2772 184.432 68.8973 190.807 68.8973 198.672L68.8973 433.152C68.8973 441.017 75.2772 447.393 83.1471 447.393Z" fill="white"/>
<path d="M68.4219 433.152V198.672C68.4263 194.771 69.979 191.03 72.7395 188.272C75.5 185.513 79.2428 183.961 83.1467 183.957H403.619C407.523 183.961 411.266 185.513 414.026 188.272C416.786 191.03 418.339 194.771 418.344 198.672V433.152C418.339 437.053 416.786 440.794 414.026 443.552C411.266 446.311 407.523 447.863 403.619 447.867H83.1467C79.2428 447.863 75.5 446.311 72.7395 443.552C69.979 440.794 68.4263 437.053 68.4219 433.152ZM83.1467 184.906C79.4947 184.911 75.9935 186.362 73.4111 188.943C70.8288 191.524 69.3761 195.023 69.3719 198.672V433.152C69.376 436.802 70.8286 440.301 73.411 442.881C75.9934 445.462 79.4946 446.914 83.1467 446.918H403.619C407.271 446.914 410.772 445.462 413.355 442.881C415.937 440.301 417.39 436.802 417.394 433.152V198.672C417.39 195.022 415.937 191.524 413.355 188.943C410.772 186.362 407.271 184.911 403.619 184.906H83.1467Z" fill="#292A2E"/>
<path d="M68.8975 198.67V212.999H417.867V198.67C417.867 194.893 416.366 191.271 413.694 188.601C411.021 185.93 407.397 184.43 403.618 184.43H83.1473C79.368 184.43 75.7435 185.93 73.0711 188.601C70.3988 191.271 68.8975 194.893 68.8975 198.67Z" fill="#292A2E"/>
<path d="M399.013 226.615H263.038C259.7 226.615 256.995 229.319 256.995 232.655V328.781C256.995 332.116 259.7 334.82 263.038 334.82H399.013C402.351 334.82 405.057 332.116 405.057 328.781V232.655C405.057 229.319 402.351 226.615 399.013 226.615Z" fill="white"/>
<path opacity="0.15" d="M399.013 226.615H263.038C259.7 226.615 256.995 229.319 256.995 232.655V328.781C256.995 332.116 259.7 334.82 263.038 334.82H399.013C402.351 334.82 405.057 332.116 405.057 328.781V232.655C405.057 229.319 402.351 226.615 399.013 226.615Z" fill="#E62F24"/>
<path d="M283.571 240.117H271.819C271.273 240.117 270.831 240.559 270.831 241.105V320.33C270.831 320.876 271.273 321.318 271.819 321.318H283.571C284.117 321.318 284.56 320.876 284.56 320.33V241.105C284.56 240.559 284.117 240.117 283.571 240.117Z" fill="#FAFAFA"/>
<path opacity="0.6" d="M270.831 279.92H284.558V320.329C284.558 320.591 284.454 320.843 284.269 321.028C284.083 321.213 283.832 321.317 283.57 321.317H271.819C271.557 321.317 271.306 321.213 271.12 321.028C270.935 320.843 270.831 320.591 270.831 320.329V279.92Z" fill="#E62F24"/>
<path d="M310.236 240.117H298.484C297.938 240.117 297.496 240.559 297.496 241.105V320.33C297.496 320.876 297.938 321.318 298.484 321.318H310.236C310.782 321.318 311.225 320.876 311.225 320.33V241.105C311.225 240.559 310.782 240.117 310.236 240.117Z" fill="#FAFAFA"/>
<path opacity="0.6" d="M297.496 268.666H311.223V320.329C311.223 320.591 311.119 320.842 310.934 321.028C310.748 321.213 310.497 321.317 310.235 321.317H298.484C298.222 321.317 297.971 321.213 297.785 321.028C297.6 320.842 297.496 320.591 297.496 320.329V268.666Z" fill="#E62F24"/>
<path d="M390.232 240.117H378.48C377.934 240.117 377.492 240.559 377.492 241.105V320.33C377.492 320.876 377.934 321.318 378.48 321.318H390.232C390.778 321.318 391.221 320.876 391.221 320.33V241.105C391.221 240.559 390.778 240.117 390.232 240.117Z" fill="#FAFAFA"/>
<path opacity="0.6" d="M377.492 257.312H391.219V320.331C391.219 320.593 391.115 320.844 390.93 321.029C390.744 321.215 390.493 321.319 390.231 321.319H378.481C378.219 321.319 377.967 321.215 377.782 321.029C377.597 320.844 377.492 320.593 377.492 320.331V257.312H377.492Z" fill="#E62F24"/>
<path d="M336.902 240.117H325.15C324.604 240.117 324.162 240.559 324.162 241.105V320.33C324.162 320.876 324.604 321.318 325.15 321.318H336.902C337.448 321.318 337.89 320.876 337.89 320.33V241.105C337.89 240.559 337.448 240.117 336.902 240.117Z" fill="#FAFAFA"/>
<path opacity="0.6" d="M324.162 298.123H337.889V320.33C337.889 320.592 337.785 320.843 337.599 321.028C337.414 321.214 337.163 321.318 336.9 321.318H325.15C324.888 321.318 324.637 321.214 324.451 321.028C324.266 320.843 324.162 320.592 324.162 320.33V298.123Z" fill="#E62F24"/>
<path d="M363.567 240.117H351.815C351.269 240.117 350.826 240.559 350.826 241.105V320.33C350.826 320.876 351.269 321.318 351.815 321.318H363.567C364.113 321.318 364.555 320.876 364.555 320.33V241.105C364.555 240.559 364.113 240.117 363.567 240.117Z" fill="#FAFAFA"/>
<path opacity="0.6" d="M350.825 283.934H364.553V320.329C364.553 320.591 364.448 320.842 364.263 321.028C364.078 321.213 363.826 321.317 363.564 321.317H351.815C351.685 321.317 351.557 321.291 351.437 321.242C351.317 321.192 351.208 321.119 351.116 321.028C351.024 320.936 350.952 320.827 350.902 320.707C350.852 320.587 350.827 320.459 350.827 320.329V283.934H350.825Z" fill="#E62F24"/>
<path opacity="0.15" d="M396.406 345.412H264.01C259.232 345.412 255.359 349.283 255.359 354.057V425.701C255.359 430.476 259.232 434.347 264.01 434.347H396.406C401.184 434.347 405.057 430.476 405.057 425.701V354.057C405.057 349.283 401.184 345.412 396.406 345.412Z" fill="#E62F24"/>
<path d="M344.906 367.626C346.682 367.626 348.122 366.188 348.122 364.413C348.122 362.638 346.682 361.199 344.906 361.199C343.13 361.199 341.69 362.638 341.69 364.413C341.69 366.188 343.13 367.626 344.906 367.626Z" fill="#E62F24"/>
<path d="M344.906 384.009C346.682 384.009 348.122 382.57 348.122 380.796C348.122 379.021 346.682 377.582 344.906 377.582C343.13 377.582 341.69 379.021 341.69 380.796C341.69 382.57 343.13 384.009 344.906 384.009Z" fill="#262626"/>
<path d="M344.906 400.39C346.682 400.39 348.122 398.951 348.122 397.176C348.122 395.402 346.682 393.963 344.906 393.963C343.13 393.963 341.69 395.402 341.69 397.176C341.69 398.951 343.13 400.39 344.906 400.39Z" fill="white"/>
<path opacity="0.5" d="M344.906 416.773C346.682 416.773 348.122 415.334 348.122 413.559C348.122 411.784 346.682 410.346 344.906 410.346C343.13 410.346 341.69 411.784 341.69 413.559C341.69 415.334 343.13 416.773 344.906 416.773Z" fill="#E62F24"/>
<path d="M389.532 364.412C389.532 364.894 389.34 365.356 388.999 365.697C388.658 366.038 388.195 366.23 387.713 366.23H356.803C356.373 366.238 355.954 366.098 355.614 365.833C355.275 365.569 355.038 365.196 354.941 364.777C354.887 364.513 354.892 364.24 354.957 363.978C355.022 363.716 355.144 363.471 355.315 363.262C355.486 363.053 355.701 362.885 355.945 362.769C356.189 362.654 356.456 362.594 356.726 362.594H387.713C387.952 362.594 388.188 362.641 388.409 362.732C388.63 362.823 388.831 362.957 388.999 363.126C389.168 363.295 389.302 363.495 389.394 363.716C389.485 363.937 389.532 364.173 389.532 364.412Z" fill="white"/>
<path d="M389.532 380.794C389.532 381.276 389.34 381.739 388.999 382.08C388.658 382.421 388.195 382.612 387.713 382.612H356.822C356.569 382.616 356.319 382.569 356.085 382.474C355.851 382.38 355.639 382.239 355.46 382.061C355.282 381.883 355.141 381.671 355.046 381.437C354.951 381.203 354.903 380.953 354.907 380.701C354.931 380.235 355.133 379.797 355.472 379.476C355.81 379.155 356.259 378.976 356.726 378.977H387.713C387.952 378.977 388.188 379.023 388.409 379.115C388.63 379.206 388.83 379.34 388.999 379.509C389.168 379.678 389.302 379.878 389.394 380.098C389.485 380.319 389.532 380.555 389.532 380.794Z" fill="white"/>
<path d="M389.532 397.177C389.532 397.659 389.341 398.122 388.999 398.462C388.658 398.803 388.195 398.995 387.713 398.995H356.538C356.105 398.995 355.689 398.823 355.383 398.517C355.076 398.21 354.904 397.795 354.904 397.362V396.992C354.904 396.559 355.076 396.144 355.383 395.838C355.689 395.531 356.105 395.359 356.538 395.359H387.713C387.952 395.359 388.188 395.406 388.409 395.498C388.63 395.589 388.83 395.723 388.999 395.892C389.168 396.06 389.302 396.261 389.394 396.481C389.485 396.702 389.532 396.938 389.532 397.177Z" fill="white"/>
<path d="M389.532 413.559C389.532 414.041 389.34 414.503 388.999 414.844C388.658 415.185 388.195 415.377 387.713 415.377H356.81C356.38 415.385 355.959 415.245 355.619 414.981C355.279 414.717 355.039 414.345 354.941 413.926C354.887 413.661 354.892 413.388 354.957 413.126C355.021 412.864 355.143 412.62 355.314 412.411C355.485 412.202 355.7 412.033 355.944 411.918C356.188 411.802 356.455 411.742 356.725 411.742H387.712C387.951 411.742 388.187 411.789 388.408 411.88C388.629 411.971 388.829 412.105 388.998 412.274C389.168 412.442 389.302 412.643 389.393 412.863C389.485 413.084 389.532 413.32 389.532 413.559Z" fill="white"/>
<path d="M284.57 388.985C284.57 392.902 285.787 396.723 288.051 399.92C290.315 403.118 293.516 405.535 297.212 406.84L292.014 419.509C284.864 416.817 278.887 411.703 275.123 405.059C271.358 398.414 270.046 390.661 271.415 383.149C272.783 375.637 276.746 368.843 282.612 363.951C288.478 359.059 295.875 356.379 303.516 356.377V370.054C298.491 370.054 293.673 372.049 290.12 375.599C286.567 379.149 284.57 383.964 284.57 388.985Z" fill="#E62F24"/>
<path d="M336.148 388.986H322.461C322.461 383.964 320.465 379.149 316.912 375.598C313.359 372.047 308.541 370.053 303.516 370.052V356.375C312.171 356.375 320.471 359.811 326.59 365.926C332.71 372.042 336.148 380.337 336.148 388.986Z" fill="#262626"/>
<path d="M336.148 388.986C336.147 396.376 333.636 403.546 329.026 409.323C324.416 415.1 317.98 419.142 310.772 420.787L308.453 407.267C312.474 406.182 316.024 403.803 318.556 400.498C321.088 397.194 322.461 393.148 322.462 388.986H336.148Z" fill="white"/>
<path opacity="0.5" d="M310.771 420.785C304.528 422.199 298.007 421.755 292.014 419.508L297.212 406.84C300.831 408.109 304.748 408.258 308.453 407.267L310.771 420.785Z" fill="#E62F24"/>
<path opacity="0.15" d="M236.363 226.615H90.2418C85.5198 226.615 81.6919 230.441 81.6919 235.159V425.802C81.6919 430.521 85.5198 434.346 90.2418 434.346H236.363C241.085 434.346 244.913 430.521 244.913 425.802V235.159C244.913 230.441 241.085 226.615 236.363 226.615Z" fill="#E62F24"/>
<path d="M207.463 307.689C207.464 317.168 204.651 326.434 199.381 334.316C194.112 342.197 186.622 348.34 177.859 351.967C169.096 355.595 159.453 356.544 150.15 354.695C140.847 352.846 132.302 348.281 125.595 341.579C118.888 334.876 114.32 326.337 112.47 317.04C110.619 307.743 111.569 298.107 115.199 289.349C118.828 280.592 124.975 273.107 132.862 267.841C140.749 262.574 150.021 259.764 159.506 259.764V307.689H207.463Z" fill="#FAFAFA"/>
<path opacity="0.6" d="M213.343 301.463H165.388V253.537C178.107 253.538 190.305 258.587 199.298 267.575C208.291 276.563 213.343 288.752 213.343 301.463Z" fill="#E62F24"/>
<path opacity="0.6" d="M109.777 382.802C111.553 382.802 112.992 381.363 112.992 379.589C112.992 377.814 111.553 376.375 109.777 376.375C108.001 376.375 106.561 377.814 106.561 379.589C106.561 381.363 108.001 382.802 109.777 382.802Z" fill="#E62F24"/>
<path d="M109.777 399.185C111.553 399.185 112.992 397.746 112.992 395.971C112.992 394.197 111.553 392.758 109.777 392.758C108.001 392.758 106.561 394.197 106.561 395.971C106.561 397.746 108.001 399.185 109.777 399.185Z" fill="#FAFAFA"/>
<path opacity="0.6" d="M219.951 379.59C219.951 380.072 219.76 380.535 219.419 380.876C219.077 381.216 218.615 381.408 218.132 381.408H121.674C121.244 381.416 120.824 381.276 120.485 381.011C120.146 380.747 119.908 380.374 119.811 379.955C119.757 379.691 119.763 379.417 119.828 379.155C119.892 378.893 120.015 378.649 120.185 378.44C120.356 378.231 120.572 378.063 120.816 377.947C121.06 377.831 121.326 377.771 121.597 377.771H218.132C218.371 377.771 218.608 377.819 218.829 377.91C219.049 378.001 219.25 378.135 219.419 378.304C219.588 378.473 219.722 378.673 219.813 378.894C219.905 379.115 219.952 379.351 219.951 379.59Z" fill="#E62F24"/>
<path d="M219.951 395.97C219.951 396.453 219.76 396.915 219.419 397.256C219.077 397.597 218.615 397.788 218.132 397.788H121.692C121.44 397.792 121.19 397.745 120.956 397.651C120.722 397.556 120.509 397.415 120.331 397.237C120.152 397.059 120.011 396.847 119.916 396.613C119.821 396.38 119.774 396.129 119.777 395.877C119.802 395.412 120.004 394.973 120.343 394.652C120.681 394.331 121.13 394.152 121.596 394.152H218.132C218.371 394.152 218.608 394.199 218.828 394.291C219.049 394.382 219.25 394.516 219.419 394.685C219.588 394.854 219.722 395.054 219.813 395.275C219.904 395.495 219.951 395.732 219.951 395.97Z" fill="white"/>
<path d="M67.7551 567.829C67.7039 567.829 67.6531 567.819 67.6057 567.799C67.5583 567.779 67.5153 567.751 67.4792 567.714C66.9287 567.165 66.0323 557.078 63.617 527.047C62.6285 514.758 61.6947 503.151 61.0136 496.097C60.9661 495.594 60.7694 495.535 60.7053 495.516C59.7729 495.235 56.9367 497.47 55.3535 499.427C55.3213 499.467 55.2815 499.5 55.2364 499.524C55.1914 499.549 55.1419 499.564 55.0909 499.57C55.0399 499.575 54.9883 499.57 54.9392 499.556C54.89 499.541 54.8441 499.517 54.8042 499.485C54.7643 499.453 54.7312 499.413 54.7067 499.368C54.6822 499.323 54.6668 499.273 54.6614 499.223C54.6559 499.172 54.6606 499.12 54.6752 499.071C54.6897 499.022 54.7138 498.976 54.746 498.936C55.791 497.642 59.2057 494.25 60.93 494.768C61.1892 494.857 61.413 495.027 61.5681 495.253C61.7232 495.479 61.8014 495.749 61.7911 496.022C62.4727 503.082 63.4061 514.693 64.3955 526.984C65.8632 545.233 67.5257 565.908 68.0724 567.211C68.114 567.269 68.1386 567.338 68.1438 567.409C68.1489 567.48 68.1343 567.552 68.1016 567.616C68.0688 567.679 68.0192 567.733 67.9581 567.77C67.897 567.808 67.8268 567.827 67.7551 567.828V567.829Z" fill="#494949"/>
<path d="M60.0115 509.041C66.4907 503.851 68.6382 495.772 64.8081 490.997C60.9779 486.222 52.6205 486.559 46.1413 491.749C39.6621 496.939 37.5146 505.017 41.3448 509.793C45.1749 514.568 53.5323 514.231 60.0115 509.041Z" fill="#E62F24"/>
<path opacity="0.2" d="M60.0115 509.041C66.4907 503.851 68.6382 495.772 64.8081 490.997C60.9779 486.222 52.6205 486.559 46.1413 491.749C39.6621 496.939 37.5146 505.017 41.3448 509.793C45.1749 514.568 53.5323 514.231 60.0115 509.041Z" fill="white"/>
<path d="M43.1602 511.006C43.1232 511.006 43.087 510.996 43.0557 510.976C43.0245 510.956 42.9996 510.928 42.9838 510.894C42.9681 510.861 42.9622 510.823 42.9669 510.787C42.9715 510.75 42.9865 510.715 43.0101 510.687L61.4755 488.434C61.5086 488.394 61.5561 488.369 61.6077 488.364C61.6593 488.359 61.7107 488.375 61.7505 488.408C61.7904 488.441 61.8155 488.489 61.8203 488.54C61.8251 488.592 61.8092 488.643 61.7762 488.683L43.3108 510.936C43.2925 510.958 43.2695 510.976 43.2434 510.988C43.2174 511 43.189 511.006 43.1602 511.006Z" fill="white"/>
<path d="M71.7826 563.058C71.7204 563.058 71.6591 563.043 71.6038 563.014C71.5485 562.986 71.5009 562.944 71.4648 562.893C71.4288 562.843 71.4054 562.784 71.3965 562.723C71.3877 562.661 71.3937 562.598 71.414 562.539L78.349 542.605C78.5529 542.019 78.9008 541.494 79.3607 541.077C79.8206 540.661 80.3778 540.366 80.9813 540.221C81.5847 540.075 82.215 540.083 82.8145 540.244C83.4139 540.405 83.9633 540.714 84.4122 541.143L88.0792 544.644C88.1518 544.716 88.1933 544.813 88.1947 544.915C88.196 545.018 88.1572 545.116 88.0864 545.19C88.0157 545.264 87.9188 545.307 87.8165 545.311C87.7143 545.314 87.6148 545.277 87.5396 545.207L83.8726 541.707C83.5183 541.369 83.0846 541.125 82.6114 540.998C82.1381 540.87 81.6405 540.864 81.1641 540.979C80.6877 541.094 80.2478 541.326 79.8847 541.655C79.5217 541.984 79.2471 542.399 79.0861 542.862L72.1512 562.798C72.1242 562.874 72.0743 562.94 72.0082 562.987C71.9422 563.033 71.8634 563.058 71.7826 563.058Z" fill="#494949"/>
<path d="M98.3238 555.68C103.125 551.881 102.84 543.528 97.6864 537.021C92.5327 530.514 84.4622 528.319 79.6605 532.117C74.8588 535.915 75.1442 544.269 80.2979 550.776C85.4517 557.282 93.5221 559.478 98.3238 555.68Z" fill="#E62F24"/>
<path d="M64.6039 566.557C64.5161 566.557 64.4309 566.527 64.362 566.473C64.293 566.418 64.2444 566.342 64.2239 566.257L52.5866 517.62C52.5073 517.289 52.3379 516.985 52.0972 516.744C51.8565 516.502 51.5537 516.331 51.2222 516.251C50.8907 516.17 50.5434 516.182 50.2183 516.286C49.8933 516.389 49.6032 516.581 49.3799 516.839L45.7918 520.982C45.7588 521.022 45.718 521.056 45.6719 521.08C45.6257 521.104 45.5752 521.119 45.5232 521.124C45.4712 521.128 45.4188 521.122 45.3692 521.106C45.3195 521.09 45.2736 521.064 45.2342 521.03C45.1947 520.996 45.1625 520.954 45.1394 520.908C45.1163 520.861 45.1028 520.81 45.0998 520.758C45.0967 520.706 45.1042 520.654 45.1216 520.605C45.1391 520.555 45.1662 520.51 45.2014 520.472L48.7895 516.328C49.1069 515.962 49.5191 515.69 49.981 515.543C50.4428 515.395 50.9364 515.378 51.4073 515.493C51.8783 515.608 52.3085 515.85 52.6505 516.194C52.9926 516.537 53.2332 516.968 53.3461 517.439L64.9835 566.076C64.9954 566.126 64.9974 566.177 64.9894 566.228C64.9813 566.278 64.9634 566.327 64.9365 566.37C64.9097 566.414 64.8745 566.452 64.833 566.482C64.7915 566.512 64.7445 566.534 64.6947 566.546C64.665 566.553 64.6345 566.557 64.6039 566.557Z" fill="#494949"/>
<path d="M60.3092 531.791C61.7242 523.614 57.9794 516.14 51.9451 515.097C45.9108 514.054 39.872 519.838 38.457 528.015C37.0421 536.192 40.7868 543.666 46.8211 544.708C52.8554 545.751 58.8942 539.968 60.3092 531.791Z" fill="#E62F24"/>
<path d="M67.7557 567.829C67.7398 567.829 67.7239 567.828 67.7082 567.826C67.6054 567.813 67.5119 567.76 67.4482 567.679C67.3844 567.597 67.3556 567.494 67.3681 567.391L74.8008 507.083C74.8817 506.426 75.1508 505.806 75.5757 505.298C76.0006 504.791 76.5632 504.416 77.1959 504.22C77.8286 504.024 78.5045 504.015 79.1422 504.194C79.78 504.373 80.3525 504.732 80.7909 505.228L89.2866 514.844C89.3206 514.882 89.3467 514.927 89.3633 514.975C89.38 515.024 89.387 515.075 89.3838 515.126C89.3807 515.177 89.3675 515.227 89.345 515.273C89.3225 515.32 89.2911 515.361 89.2527 515.395C89.2143 515.429 89.1695 515.455 89.121 515.471C89.0725 515.488 89.0212 515.495 88.97 515.492C88.9189 515.489 88.8688 515.475 88.8227 515.453C88.7766 515.43 88.7354 515.399 88.7015 515.361L80.2057 505.745C79.8669 505.362 79.4245 505.084 78.9316 504.946C78.4388 504.808 77.9165 504.815 77.4275 504.966C76.9385 505.117 76.5036 505.406 76.1752 505.799C75.8467 506.191 75.6387 506.67 75.576 507.178L68.1428 567.486C68.1312 567.581 68.0855 567.668 68.0142 567.731C67.9429 567.794 67.8509 567.829 67.7557 567.829Z" fill="#494949"/>
<path d="M97.9994 520.187C100.964 514.832 97.476 507.235 90.2097 503.218C82.9434 499.201 74.65 500.286 71.6859 505.642C68.7218 510.997 72.2093 518.594 79.4756 522.611C86.7419 526.627 95.0353 525.542 97.9994 520.187Z" fill="#E62F24"/>
<path opacity="0.2" d="M98.3238 555.68C103.125 551.881 102.84 543.528 97.6864 537.021C92.5327 530.514 84.4622 528.319 79.6605 532.117C74.8588 535.915 75.1442 544.269 80.2979 550.776C85.4517 557.282 93.5221 559.478 98.3238 555.68Z" fill="white"/>
<path opacity="0.5" d="M60.3092 531.791C61.7242 523.614 57.9794 516.14 51.9451 515.097C45.9108 514.054 39.872 519.838 38.457 528.015C37.0421 536.192 40.7868 543.666 46.8211 544.708C52.8554 545.751 58.8942 539.968 60.3092 531.791Z" fill="white"/>
<path opacity="0.5" d="M97.9994 520.187C100.964 514.832 97.476 507.235 90.2097 503.218C82.9434 499.201 74.65 500.286 71.6859 505.642C68.7218 510.997 72.2093 518.594 79.4756 522.611C86.7419 526.627 95.0353 525.542 97.9994 520.187Z" fill="white"/>
<path d="M77.2623 619H58.2483L55.0977 558.205H80.4129L77.2623 619Z" fill="#292A2E"/>
<path opacity="0.3" d="M77.2623 619H58.2483L55.0977 558.205H80.4129L77.2623 619Z" fill="white"/>
<path d="M98.326 555.873C98.2964 555.873 98.2673 555.867 98.2407 555.854C98.2141 555.841 98.1908 555.822 98.1725 555.799L79.5091 532.236C79.4932 532.216 79.4813 532.193 79.4743 532.169C79.4673 532.144 79.4651 532.118 79.4681 532.093C79.471 532.067 79.4789 532.043 79.4914 532.02C79.5039 531.998 79.5206 531.978 79.5407 531.962C79.5608 531.946 79.5838 531.934 79.6085 531.927C79.6331 531.92 79.6589 531.918 79.6844 531.921C79.7099 531.924 79.7345 531.932 79.7569 531.944C79.7793 531.957 79.7991 531.974 79.815 531.994L98.4789 555.557C98.5109 555.597 98.5255 555.649 98.5195 555.701C98.5134 555.752 98.4872 555.799 98.4466 555.831C98.4124 555.858 98.3698 555.873 98.326 555.873Z" fill="white"/>
<path d="M96.7586 522.075C96.7173 522.075 96.677 522.062 96.6436 522.037L72.761 504.61C72.7395 504.595 72.7211 504.576 72.7071 504.554C72.693 504.532 72.6835 504.508 72.6791 504.482C72.6747 504.456 72.6755 504.43 72.6814 504.404C72.6874 504.379 72.6984 504.355 72.7137 504.334C72.7291 504.313 72.7485 504.295 72.7709 504.282C72.7933 504.268 72.8181 504.26 72.844 504.256C72.8698 504.252 72.8961 504.254 72.9213 504.26C72.9466 504.267 72.9702 504.279 72.9909 504.295L96.874 521.722C96.9073 521.746 96.932 521.781 96.9447 521.82C96.9574 521.859 96.9573 521.901 96.9445 521.94C96.9317 521.979 96.9068 522.014 96.8734 522.038C96.84 522.062 96.7998 522.075 96.7586 522.075Z" fill="white"/>
<path d="M45.853 544.452C45.8358 544.452 45.8187 544.45 45.8022 544.446C45.7525 544.432 45.7101 544.4 45.6842 544.355C45.6583 544.311 45.651 544.258 45.664 544.208L53.2667 515.742C53.2805 515.692 53.313 515.65 53.3574 515.624C53.4017 515.599 53.4544 515.591 53.5042 515.603C53.554 515.617 53.5964 515.649 53.6223 515.694C53.6482 515.738 53.6555 515.791 53.6424 515.841L46.0411 544.307C46.0301 544.349 46.0057 544.386 45.9717 544.412C45.9377 544.438 45.8959 544.452 45.853 544.452Z" fill="white"/>
<path d="M433.791 619.001H44.0976C44.0095 619.001 43.9249 618.965 43.8625 618.903C43.8002 618.841 43.7651 618.756 43.7651 618.668C43.7651 618.58 43.8002 618.496 43.8625 618.433C43.9249 618.371 44.0095 618.336 44.0976 618.336H433.791C433.879 618.336 433.964 618.371 434.026 618.433C434.089 618.496 434.124 618.58 434.124 618.668C434.124 618.756 434.089 618.841 434.026 618.903C433.964 618.965 433.879 619.001 433.791 619.001Z" fill="#292A2E"/>
<path d="M143.241 597.699C143.241 597.699 145.386 608.809 155.793 609.43C166.2 610.051 163.944 618.335 163.944 618.335H124.17V598.474L143.241 597.699Z" fill="#E62F24"/>
<path d="M121.473 395.045C121.473 395.045 124.447 391.705 124.421 399.281C124.323 427.538 122.415 604.79 122.415 604.79L148.552 604.571L164.384 393.896L121.473 395.045Z" fill="#262626"/>
<path d="M187.872 597.699C187.872 597.699 190.016 608.809 200.425 609.428C210.833 610.047 208.576 618.334 208.576 618.334H168.801V598.474L187.872 597.699Z" fill="#E62F24"/>
<path d="M192.927 397.239C192.927 397.239 196.192 493.816 195.853 498.536L192.783 604.057L167.078 604.532L162.933 494.718C162.933 494.718 160.216 464.426 152.892 436.297C149.145 421.861 146.89 407.078 146.162 392.182L192.927 397.239Z" fill="#262626"/>
<path d="M159.017 465.712L161.16 432.955C161.16 432.955 163.361 446.573 163.361 458.311C163.361 464.048 162.179 486.764 162.179 486.764L159.017 465.712Z" fill="#0A0A0A"/>
<path d="M121.189 395.041L121.103 395.046C121.103 395.046 121.166 393.399 121.189 395.041Z" fill="#333333"/>
<path d="M121.296 395.041L121.21 395.046C121.21 395.046 121.272 393.399 121.296 395.041Z" fill="#333333"/>
<path d="M264.519 316.653C264.361 316.342 264.111 316.087 263.802 315.923C263.494 315.76 263.142 315.696 262.796 315.741C262.799 315.711 262.792 315.68 262.777 315.653C262.76 315.632 262.739 315.616 262.715 315.606C262.69 315.596 262.664 315.593 262.638 315.597L263.807 314.759C264.157 314.52 264.408 314.162 264.515 313.752C264.621 313.342 264.575 312.907 264.385 312.528C264.186 312.16 263.857 311.879 263.462 311.739C263.067 311.6 262.634 311.612 262.248 311.773C262.251 311.756 262.24 311.741 262.237 311.726L262.718 311.382C263.046 311.155 263.286 310.822 263.397 310.439C263.508 310.055 263.483 309.645 263.327 309.278C263.224 309.05 263.071 308.848 262.88 308.686C262.69 308.524 262.465 308.406 262.223 308.341C261.982 308.276 261.728 308.265 261.482 308.31C261.236 308.355 261.002 308.453 260.799 308.599L259.691 309.393C259.687 309.386 259.691 309.379 259.686 309.373C259.682 309.366 259.67 309.364 259.663 309.357C259.918 309.071 260.068 308.707 260.088 308.325C260.108 307.943 259.998 307.565 259.775 307.254C259.252 306.413 258.044 306.585 257.327 307.098L250.805 311.6L251.97 309.639C252.205 309.261 252.287 308.809 252.201 308.373C252.115 307.937 251.867 307.55 251.506 307.29C251.316 307.162 251.101 307.075 250.875 307.033C250.649 306.991 250.417 306.996 250.193 307.046C249.969 307.097 249.758 307.193 249.572 307.328C249.386 307.463 249.23 307.634 249.112 307.831L242.748 318.541C242.001 319.798 241.773 321.295 242.114 322.717C242.455 324.138 243.336 325.37 244.572 326.152C246.005 327.059 247.676 327.517 249.371 327.469C251.067 327.42 252.709 326.867 254.088 325.879L263.937 318.823C264.265 318.58 264.5 318.233 264.606 317.839C264.711 317.445 264.681 317.028 264.519 316.653Z" fill="#FFCAB5"/>
<g opacity="0.25">
<path d="M253.236 313.842C253.26 313.875 253.296 313.897 253.336 313.904C253.376 313.911 253.417 313.902 253.451 313.878L259.648 309.589C259.665 309.577 259.679 309.562 259.691 309.545C259.702 309.528 259.709 309.509 259.713 309.488C259.717 309.468 259.716 309.448 259.712 309.428C259.708 309.408 259.699 309.389 259.688 309.372C259.676 309.355 259.661 309.341 259.644 309.33C259.627 309.318 259.607 309.311 259.587 309.307C259.567 309.304 259.546 309.304 259.526 309.308C259.506 309.313 259.487 309.321 259.471 309.332L253.273 313.622C253.239 313.646 253.216 313.682 253.208 313.722C253.201 313.763 253.21 313.805 253.233 313.839L253.236 313.842Z" fill="#0C0C0C"/>
</g>
<g opacity="0.25">
<path d="M255.054 316.627C255.078 316.66 255.114 316.682 255.154 316.689C255.194 316.696 255.235 316.686 255.268 316.663L262.185 311.876C262.219 311.852 262.242 311.816 262.25 311.775C262.257 311.735 262.248 311.693 262.224 311.659C262.2 311.626 262.164 311.604 262.123 311.596C262.083 311.589 262.042 311.597 262.007 311.619L255.091 316.407C255.057 316.43 255.034 316.466 255.026 316.507C255.019 316.548 255.028 316.59 255.051 316.624L255.054 316.627Z" fill="#0C0C0C"/>
</g>
<g opacity="0.25">
<path d="M257.005 319.652C257.029 319.685 257.065 319.707 257.105 319.714C257.145 319.721 257.186 319.712 257.22 319.689L262.737 315.87C262.771 315.846 262.794 315.81 262.802 315.77C262.809 315.729 262.8 315.687 262.777 315.653C262.753 315.619 262.717 315.596 262.676 315.588C262.635 315.581 262.593 315.59 262.559 315.614L257.042 319.432C257.008 319.456 256.985 319.492 256.977 319.533C256.97 319.573 256.979 319.615 257.003 319.649L257.005 319.652Z" fill="#0C0C0C"/>
</g>
<path d="M238.991 316.102L220.297 347.92L197.485 318.019L178.54 335.087L210.892 376.959L211.104 377.257C212.399 379.03 214.124 380.444 216.117 381.365C218.11 382.287 220.305 382.687 222.495 382.527C224.685 382.367 226.799 381.652 228.636 380.45C230.473 379.248 231.974 377.598 232.997 375.656L259.582 327.545L238.991 316.102Z" fill="#E62F24"/>
<path d="M218.464 351.747C218.423 351.747 218.383 351.737 218.347 351.717C218.312 351.697 218.282 351.669 218.261 351.634C218.239 351.599 218.227 351.56 218.226 351.519C218.224 351.478 218.233 351.438 218.252 351.402L220.085 347.813C220.113 347.757 220.163 347.714 220.223 347.695C220.283 347.676 220.348 347.681 220.404 347.71C220.46 347.738 220.503 347.788 220.522 347.848C220.541 347.908 220.536 347.973 220.507 348.029L218.675 351.618C218.655 351.657 218.625 351.689 218.588 351.712C218.55 351.735 218.507 351.747 218.464 351.747Z" fill="#0C0C0C"/>
<path d="M196.168 347.739L195.598 357.789L196.072 357.816L196.643 347.766L196.168 347.739Z" fill="#0C0C0C"/>
<path d="M135.929 275.008C135.929 275.008 135.053 286.194 132.485 290.227C125.094 301.835 122.84 314.965 130.026 321.921C137.212 328.877 183.556 329.512 187.25 313.743C190.36 300.47 184.033 298.966 182.617 287.968C181.976 282.992 180.176 272.555 180.176 272.555" fill="#0A0A0A"/>
<path d="M175.452 311.223C175.372 311.212 174.484 325.933 157.371 324.65C145.524 323.763 141.299 311.202 141.028 311.202C142.305 310.931 144.456 310.537 145.023 310.233C146.889 309.232 149.197 308.189 149.799 304.569C150.145 302.48 149.557 291.807 149.738 289.695L167.924 293.752C167.67 298.211 165.891 308.548 172.125 310.378C173.162 310.68 174.279 310.958 175.452 311.223Z" fill="#FFCAB5"/>
<path opacity="0.52" d="M168.179 306.153C167.894 305.236 167.71 304.29 167.632 303.332C167.431 301.148 167.471 298.948 167.75 296.772C164.054 296.273 160.572 294.749 157.699 292.371C157.362 293.618 155.504 299.064 156.019 300.247C156.991 302.487 161.558 306.153 168.179 306.153Z" fill="#0C0C0C"/>
<path d="M165.768 301.519C158.591 302.129 149.347 299.156 147.537 289.593L145.902 280.964C144.091 271.4 147.649 262.697 156.66 260.993C165.67 259.289 173.873 265.768 175.684 275.331L176.408 279.151C177.103 282.821 178.575 300.43 165.768 301.519Z" fill="#FFCAB5"/>
<path d="M173.84 279.568C174.464 279.568 174.969 279.063 174.969 278.439C174.969 277.816 174.464 277.311 173.84 277.311C173.216 277.311 172.71 277.816 172.71 278.439C172.71 279.063 173.216 279.568 173.84 279.568Z" fill="#0C0C0C"/>
<path d="M162.268 281.113C162.892 281.113 163.398 280.608 163.398 279.984C163.398 279.361 162.892 278.855 162.268 278.855C161.645 278.855 161.139 279.361 161.139 279.984C161.139 280.608 161.645 281.113 162.268 281.113Z" fill="#0C0C0C"/>
<path opacity="0.52" d="M168.618 288.262L168.635 288.259C169 288.188 169.361 288.096 169.716 287.984C170.245 287.814 170.939 287.532 170.849 287.054C170.746 286.509 168.139 280.912 167.842 280.276C167.829 280.248 167.811 280.223 167.789 280.202C167.767 280.182 167.74 280.166 167.712 280.155C167.683 280.144 167.653 280.14 167.622 280.141C167.592 280.142 167.562 280.149 167.534 280.162C167.506 280.175 167.481 280.193 167.461 280.216C167.44 280.238 167.424 280.265 167.414 280.293C167.403 280.322 167.399 280.353 167.4 280.383C167.402 280.414 167.409 280.444 167.423 280.471C168.535 282.855 170.325 286.773 170.394 287.14C170.335 287.31 169.455 287.633 168.549 287.804C168.49 287.815 168.437 287.848 168.401 287.897C168.366 287.946 168.351 288.007 168.36 288.066C168.369 288.126 168.401 288.18 168.449 288.216C168.497 288.253 168.558 288.269 168.618 288.262V288.262Z" fill="#0C0C0C"/>
<path opacity="0.52" d="M167.284 292.388C168.754 292.197 170.159 291.664 171.384 290.831C171.436 290.798 171.472 290.745 171.484 290.685C171.497 290.625 171.485 290.563 171.452 290.511C171.418 290.46 171.366 290.424 171.305 290.411C171.245 290.399 171.183 290.41 171.131 290.444C168.479 292.171 165.843 292.45 163.51 291.251C163.462 291.225 163.414 291.202 163.364 291.181C163.307 291.161 163.243 291.164 163.187 291.19C163.132 291.216 163.089 291.263 163.068 291.321C163.047 291.378 163.05 291.442 163.076 291.497C163.102 291.553 163.149 291.596 163.207 291.617C163.225 291.624 163.255 291.64 163.298 291.664C164.525 292.296 165.913 292.548 167.284 292.388Z" fill="#0C0C0C"/>
<path d="M138.693 283.971L146.771 282.492C152.888 280.018 154.738 269.435 154.738 269.435C154.738 269.435 162.168 276.673 180.175 272.556C180.175 272.556 176.565 247.461 149.962 254.756C141.384 257.109 135.228 265.747 135.995 277.292C136.533 285.384 138.693 283.971 138.693 283.971Z" fill="#0A0A0A"/>
<path d="M148.648 292.402C145.91 292.919 143.136 290.412 142.616 287.675C142.096 284.939 144.032 283.01 146.77 282.492L148.527 284.059L151 291.956L148.648 292.402Z" fill="#FFCAB5"/>
<path d="M169.493 275.699C170.292 275.184 171.214 274.892 172.164 274.856C172.632 274.835 173.1 274.885 173.553 275.003C174.002 275.118 174.434 275.289 174.84 275.512C174.897 275.54 174.941 275.59 174.962 275.65C174.983 275.711 174.979 275.777 174.951 275.834C174.923 275.891 174.874 275.936 174.814 275.957C174.754 275.978 174.688 275.975 174.63 275.948L174.613 275.94C174.238 275.755 173.841 275.619 173.432 275.534C173.027 275.447 172.612 275.422 172.201 275.46C171.384 275.528 170.599 275.811 169.927 276.28L169.905 276.296C169.867 276.325 169.823 276.345 169.777 276.356C169.73 276.367 169.682 276.369 169.635 276.361C169.588 276.354 169.543 276.337 169.502 276.312C169.461 276.288 169.426 276.255 169.398 276.216C169.37 276.178 169.349 276.134 169.338 276.088C169.327 276.041 169.325 275.993 169.333 275.946C169.34 275.899 169.357 275.854 169.382 275.813C169.407 275.772 169.439 275.737 169.478 275.709L169.493 275.699Z" fill="#0C0C0C"/>
<path d="M162.289 277.395C161.493 277.2 160.659 277.219 159.873 277.45C159.475 277.564 159.097 277.737 158.751 277.963C158.401 278.191 158.08 278.462 157.797 278.77L157.784 278.783C157.74 278.827 157.68 278.853 157.617 278.854C157.555 278.855 157.494 278.832 157.448 278.789C157.402 278.746 157.375 278.687 157.371 278.625C157.368 278.562 157.389 278.501 157.431 278.454C157.728 278.099 158.07 277.783 158.447 277.514C158.826 277.24 159.245 277.025 159.688 276.876C160.588 276.567 161.553 276.505 162.485 276.697C162.579 276.718 162.662 276.775 162.714 276.856C162.767 276.937 162.785 277.035 162.764 277.13C162.744 277.224 162.687 277.307 162.606 277.359C162.525 277.412 162.426 277.43 162.332 277.409L162.317 277.406L162.289 277.395Z" fill="#0C0C0C"/>
<path opacity="0.52" d="M167.597 294.561C167.863 294.53 168.126 294.477 168.384 294.403C168.443 294.386 168.493 294.346 168.522 294.292C168.552 294.239 168.559 294.175 168.542 294.116C168.525 294.057 168.486 294.008 168.432 293.978C168.378 293.948 168.315 293.941 168.256 293.958C166.707 294.404 165.826 293.816 165.79 293.788C165.739 293.753 165.677 293.739 165.616 293.75C165.556 293.76 165.502 293.795 165.467 293.845C165.431 293.895 165.418 293.958 165.428 294.018C165.439 294.079 165.473 294.132 165.524 294.168C166.149 294.534 166.881 294.673 167.597 294.561Z" fill="#0C0C0C"/>
<path d="M146.79 282.389L146.709 282.166C156.943 278.494 154.44 268.458 154.414 268.357L154.644 268.297C154.671 268.4 157.23 278.643 146.79 282.389Z" fill="#0C0C0C"/>
<path opacity="0.1" d="M161.319 288.927C162.501 288.8 163.383 287.995 163.289 287.129C163.196 286.263 162.163 285.664 160.982 285.791C159.8 285.918 158.918 286.723 159.012 287.589C159.105 288.455 160.138 289.054 161.319 288.927Z" fill="#0C0C0C"/>
<path opacity="0.1" d="M173.863 285.651C173.958 286.516 174.992 287.114 176.173 286.989C176.378 286.966 176.579 286.923 176.774 286.859C176.841 285.83 176.856 284.84 176.836 283.923C176.509 283.837 176.17 283.813 175.834 283.852C174.652 283.977 173.771 284.782 173.863 285.651Z" fill="#0C0C0C"/>
<path d="M196.714 343.632C196.175 349.96 193.553 389.443 193.035 397.238H124.459C124.055 390.208 119.394 359.465 117.864 345.717C116.403 332.598 113.537 326.03 115.638 322.151C119.07 315.812 128.449 312.149 134.845 311.284C138.75 310.756 144.623 310.377 144.623 310.377C144.623 310.377 145.121 320.431 156.979 320.99C173.122 321.75 172.044 310.377 172.124 310.377C174.739 310.377 189.679 312.031 193.334 314.196C203.292 320.09 197.858 330.223 196.714 343.632Z" fill="#E62F24"/>
<path d="M241.227 348.053L234.616 380.159C234.483 380.811 234.129 381.398 233.615 381.821C233.101 382.244 232.458 382.479 231.792 382.485L186.275 382.872C185.841 382.876 185.411 382.783 185.018 382.599C184.625 382.415 184.277 382.146 184.002 381.811C183.726 381.476 183.528 381.083 183.424 380.662C183.32 380.241 183.311 379.801 183.399 379.376L190.009 347.269C190.143 346.617 190.497 346.031 191.011 345.608C191.526 345.185 192.17 344.952 192.836 344.946L238.352 344.559C238.786 344.555 239.215 344.649 239.608 344.833C240.001 345.017 240.348 345.286 240.624 345.621C240.899 345.956 241.096 346.348 241.201 346.769C241.305 347.189 241.314 347.628 241.227 348.053Z" fill="#292A2E"/>
<path d="M198.783 370.86C198.807 371.282 198.678 371.7 198.419 372.035C198.16 372.37 197.788 372.6 197.372 372.682L195.971 372.991C195.996 372.999 196.019 373.014 196.037 373.033C196.055 373.052 196.069 373.075 196.076 373.1C196.079 373.13 196.072 373.16 196.057 373.186C196.394 373.28 196.693 373.477 196.912 373.75C197.132 374.022 197.261 374.356 197.282 374.705C197.284 375.111 197.149 375.507 196.898 375.827C196.647 376.148 196.296 376.374 195.9 376.47L184.068 379.095C183.463 379.231 182.845 379.3 182.225 379.299C180.844 379.299 179.484 378.963 178.261 378.321C177.039 377.678 175.992 376.748 175.209 375.611C174.379 374.408 174.052 372.929 174.297 371.488C174.542 370.048 175.34 368.76 176.52 367.898L186.585 360.545C186.807 360.383 187.064 360.277 187.336 360.236L186.41 364.732L186.657 364.675L186.709 364.665L194.427 363.094C195.287 362.904 196.465 363.217 196.617 364.195C196.699 364.57 196.651 364.96 196.482 365.304C196.313 365.648 196.033 365.925 195.686 366.089C195.691 366.094 195.7 366.099 195.7 366.108C195.7 366.118 195.696 366.122 195.696 366.132L197.03 365.838C197.275 365.783 197.528 365.784 197.772 365.84C198.016 365.895 198.244 366.004 198.441 366.158C198.638 366.313 198.798 366.509 198.909 366.732C199.021 366.956 199.082 367.202 199.087 367.451C199.087 367.85 198.949 368.237 198.696 368.546C198.443 368.855 198.092 369.067 197.7 369.146L197.125 369.274C197.121 369.293 197.125 369.312 197.116 369.326C197.535 369.33 197.937 369.488 198.246 369.772C198.554 370.055 198.745 370.443 198.783 370.86Z" fill="#FFCAB5"/>
<g opacity="0.25">
<path d="M188.012 367.691C188.021 367.73 188.046 367.765 188.08 367.787C188.114 367.809 188.156 367.817 188.196 367.808L195.581 366.295C195.601 366.291 195.62 366.283 195.637 366.271C195.654 366.26 195.668 366.245 195.68 366.228C195.691 366.211 195.699 366.192 195.702 366.172C195.706 366.151 195.706 366.131 195.702 366.111C195.698 366.091 195.69 366.072 195.678 366.055C195.667 366.038 195.652 366.023 195.635 366.012C195.618 366.001 195.599 365.993 195.579 365.989C195.559 365.985 195.538 365.985 195.518 365.99L188.133 367.503C188.092 367.511 188.057 367.535 188.034 367.57C188.011 367.604 188.003 367.646 188.011 367.687L188.012 367.691Z" fill="#0C0C0C"/>
</g>
<g opacity="0.25">
<path d="M188.59 370.963C188.599 371.003 188.624 371.037 188.658 371.059C188.692 371.081 188.734 371.089 188.774 371.081L197.016 369.392C197.056 369.383 197.092 369.359 197.114 369.325C197.137 369.29 197.145 369.248 197.137 369.208C197.128 369.168 197.103 369.133 197.069 369.111C197.035 369.088 196.993 369.079 196.953 369.086L188.71 370.776C188.69 370.78 188.671 370.788 188.654 370.799C188.637 370.811 188.622 370.825 188.611 370.842C188.6 370.859 188.592 370.878 188.588 370.899C188.584 370.919 188.584 370.939 188.588 370.959L188.59 370.963Z" fill="#0C0C0C"/>
</g>
<g opacity="0.25">
<path d="M189.196 374.511C189.205 374.551 189.23 374.585 189.264 374.607C189.298 374.629 189.339 374.637 189.379 374.629L195.954 373.281C195.974 373.277 195.993 373.269 196.01 373.257C196.027 373.246 196.041 373.231 196.053 373.214C196.064 373.197 196.072 373.178 196.075 373.158C196.079 373.138 196.079 373.117 196.075 373.097C196.071 373.077 196.063 373.058 196.051 373.041C196.04 373.024 196.025 373.01 196.008 372.998C195.991 372.987 195.972 372.979 195.952 372.975C195.932 372.972 195.911 372.972 195.891 372.976L189.317 374.323C189.276 374.331 189.241 374.355 189.218 374.39C189.195 374.424 189.187 374.467 189.195 374.507L189.196 374.511Z" fill="#0C0C0C"/>
</g>
<path d="M183.335 383.774L119.142 395.368C117.139 395.585 115.113 395.336 113.223 394.639C111.333 393.943 109.629 392.818 108.247 391.353C106.865 389.889 105.841 388.124 105.255 386.197C104.67 384.271 104.539 382.235 104.874 380.249L113.858 326.868C114.141 325.18 114.754 323.563 115.662 322.111C116.571 320.659 117.756 319.401 119.152 318.407C120.547 317.413 122.125 316.704 123.795 316.32C125.464 315.936 127.193 315.885 128.883 316.169C130.573 316.453 132.19 317.067 133.642 317.976C135.094 318.885 136.353 320.071 137.346 321.466C138.339 322.861 139.047 324.438 139.43 326.107C139.813 327.776 139.864 329.504 139.578 331.193L133.451 367.94L180.513 362.034L183.335 383.774Z" fill="#E62F24"/>
<path d="M119.142 395.604C119.083 395.603 119.026 395.581 118.982 395.541C118.938 395.501 118.911 395.446 118.906 395.387C118.901 395.328 118.918 395.269 118.954 395.222C118.99 395.175 119.042 395.143 119.1 395.133L183.071 383.58L180.308 362.297L133.48 368.174C133.443 368.179 133.406 368.175 133.371 368.163C133.336 368.151 133.305 368.13 133.279 368.103C133.254 368.077 133.234 368.044 133.223 368.009C133.213 367.974 133.21 367.936 133.216 367.9L137.111 344.414C137.116 344.383 137.127 344.353 137.143 344.326C137.159 344.3 137.181 344.277 137.206 344.259C137.232 344.24 137.261 344.227 137.291 344.221C137.322 344.214 137.353 344.213 137.384 344.218C137.415 344.224 137.444 344.235 137.471 344.251C137.497 344.268 137.52 344.289 137.539 344.314C137.557 344.34 137.57 344.368 137.577 344.399C137.584 344.429 137.585 344.461 137.58 344.491L133.736 367.663L180.483 361.796C180.545 361.789 180.608 361.806 180.658 361.844C180.708 361.883 180.74 361.939 180.748 362.001L183.571 383.742C183.578 383.802 183.563 383.863 183.527 383.912C183.491 383.961 183.437 383.995 183.377 384.006L119.185 395.6C119.171 395.602 119.156 395.603 119.142 395.604Z" fill="#0C0C0C"/>
<path d="M133.414 367.705L129.285 368.365L129.36 368.834L133.489 368.174L133.414 367.705Z" fill="#0C0C0C"/>
<path d="M453.459 423.617H312.978C307.143 423.617 302.413 428.344 302.413 434.176V482.244C302.413 488.076 307.143 492.803 312.978 492.803H453.459C459.295 492.803 464.025 488.076 464.025 482.244V434.176C464.025 428.344 459.295 423.617 453.459 423.617Z" fill="white"/>
<path opacity="0.4" d="M453.459 423.617H312.978C307.143 423.617 302.413 428.344 302.413 434.176V482.244C302.413 488.076 307.143 492.803 312.978 492.803H453.459C459.295 492.803 464.025 488.076 464.025 482.244V434.176C464.025 428.344 459.295 423.617 453.459 423.617Z" fill="#E62F24"/>
<path d="M453.459 493.276H312.978C310.051 493.272 307.245 492.109 305.175 490.04C303.105 487.972 301.941 485.167 301.938 482.242V434.178C301.941 431.253 303.105 428.448 305.175 426.38C307.245 424.311 310.051 423.148 312.978 423.145H453.459C456.387 423.148 459.193 424.311 461.263 426.38C463.332 428.448 464.497 431.253 464.5 434.178V482.244C464.496 485.169 463.332 487.973 461.262 490.041C459.192 492.109 456.386 493.272 453.459 493.276ZM312.978 424.092C310.303 424.095 307.737 425.159 305.846 427.05C303.954 428.94 302.89 431.504 302.887 434.178V482.244C302.891 484.917 303.955 487.48 305.847 489.37C307.739 491.26 310.303 492.323 312.978 492.326H453.459C456.135 492.323 458.7 491.26 460.591 489.369C462.483 487.479 463.547 484.916 463.55 482.242V434.178C463.547 431.504 462.483 428.941 460.591 427.051C458.7 425.16 456.135 424.097 453.459 424.094L312.978 424.092Z" fill="#292A2E"/>
<path d="M316.904 478.062C316.777 478.062 316.651 478.027 316.541 477.962C316.431 477.897 316.34 477.803 316.279 477.691C316.218 477.579 316.188 477.452 316.192 477.324C316.197 477.197 316.236 477.072 316.305 476.965C316.459 476.727 331.985 453.003 356.658 453.003C369.55 453.003 377.362 457.975 384.916 462.782C391.909 467.232 398.514 471.436 408.734 471.436C429.631 471.436 446.465 441.108 446.632 440.802C446.722 440.637 446.875 440.514 447.057 440.46C447.238 440.407 447.433 440.428 447.599 440.519C447.765 440.609 447.888 440.762 447.941 440.943C447.994 441.125 447.973 441.32 447.882 441.485C447.182 442.767 430.468 472.862 408.734 472.862C398.099 472.862 391.324 468.55 384.151 463.985C376.768 459.286 369.135 454.428 356.658 454.428C332.774 454.428 317.654 477.502 317.504 477.735C317.44 477.836 317.351 477.918 317.246 477.975C317.141 478.032 317.024 478.062 316.904 478.062Z" fill="white"/>
<path d="M447.457 443.932C448.997 443.932 450.245 442.685 450.245 441.146C450.245 439.607 448.997 438.359 447.457 438.359C445.917 438.359 444.669 439.607 444.669 441.146C444.669 442.685 445.917 443.932 447.457 443.932Z" fill="white"/>
</g>
<path d="M89.5719 38V10H99.5719C101.092 10 102.465 10.38 103.692 11.14C104.932 11.9 105.912 12.92 106.632 14.2C107.352 15.48 107.712 16.8867 107.712 18.42C107.712 19.9933 107.339 21.42 106.592 22.7C105.859 23.9667 104.872 24.98 103.632 25.74C102.392 26.4867 101.039 26.86 99.5719 26.86H94.4519V38H89.5719ZM94.4519 21.98H99.0519C99.7452 21.98 100.379 21.8067 100.952 21.46C101.525 21.1133 101.979 20.6467 102.312 20.06C102.659 19.4733 102.832 18.82 102.832 18.1C102.832 17.3667 102.659 16.7067 102.312 16.12C101.979 15.5333 101.525 15.0667 100.952 14.72C100.379 14.3733 99.7452 14.2 99.0519 14.2H94.4519V21.98ZM131.829 38H125.469L117.609 27.02L116.249 28.64V38H111.369V10H116.249V21.06L125.509 10H131.889L120.789 23.2L131.829 38ZM134.963 38V10H144.963C146.483 10 147.856 10.38 149.083 11.14C150.323 11.9 151.303 12.92 152.023 14.2C152.743 15.48 153.103 16.8867 153.103 18.42C153.103 19.9933 152.729 21.42 151.983 22.7C151.249 23.9667 150.263 24.98 149.023 25.74C147.783 26.4867 146.429 26.86 144.963 26.86H139.843V38H134.963ZM139.843 21.98H144.443C145.136 21.98 145.769 21.8067 146.343 21.46C146.916 21.1133 147.369 20.6467 147.703 20.06C148.049 19.4733 148.223 18.82 148.223 18.1C148.223 17.3667 148.049 16.7067 147.703 16.12C147.369 15.5333 146.916 15.0667 146.343 14.72C145.769 14.3733 145.136 14.2 144.443 14.2H139.843V21.98ZM179.68 38.52C177.787 38.52 176.007 38.1467 174.34 37.4C172.674 36.64 171.207 35.5933 169.94 34.26C168.687 32.9267 167.7 31.3867 166.98 29.64C166.274 27.88 165.92 26 165.92 24C165.92 21.9867 166.274 20.1067 166.98 18.36C167.7 16.6 168.687 15.06 169.94 13.74C171.207 12.4067 172.674 11.3667 174.34 10.62C176.007 9.86 177.787 9.48 179.68 9.48C181.947 9.48 184.034 10.0067 185.94 11.06C187.847 12.1 189.427 13.4933 190.68 15.24L186.32 17.58C185.534 16.6067 184.554 15.8267 183.38 15.24C182.22 14.6533 180.987 14.36 179.68 14.36C178.454 14.36 177.3 14.6133 176.22 15.12C175.14 15.6133 174.194 16.3067 173.38 17.2C172.567 18.08 171.934 19.1067 171.48 20.28C171.027 21.44 170.8 22.68 170.8 24C170.8 25.3333 171.027 26.58 171.48 27.74C171.947 28.9 172.587 29.9267 173.4 30.82C174.214 31.7 175.154 32.3933 176.22 32.9C177.3 33.3933 178.454 33.64 179.68 33.64C181.014 33.64 182.254 33.3467 183.4 32.76C184.56 32.16 185.534 31.3733 186.32 30.4L190.68 32.76C189.427 34.4933 187.847 35.8867 185.94 36.94C184.034 37.9933 181.947 38.52 179.68 38.52ZM202.2 38.52C200.36 38.52 198.68 38.0467 197.16 37.1C195.653 36.1533 194.447 34.8867 193.54 33.3C192.647 31.7 192.2 29.9333 192.2 28C192.2 26.5333 192.46 25.1667 192.98 23.9C193.5 22.62 194.213 21.5 195.12 20.54C196.04 19.5667 197.107 18.8067 198.32 18.26C199.533 17.7133 200.827 17.44 202.2 17.44C204.04 17.44 205.713 17.9133 207.22 18.86C208.74 19.8067 209.947 21.08 210.84 22.68C211.747 24.28 212.2 26.0533 212.2 28C212.2 29.4533 211.94 30.8133 211.42 32.08C210.9 33.3467 210.18 34.4667 209.26 35.44C208.353 36.4 207.293 37.1533 206.08 37.7C204.88 38.2467 203.587 38.52 202.2 38.52ZM202.2 33.64C203.173 33.64 204.047 33.38 204.82 32.86C205.593 32.34 206.2 31.6533 206.64 30.8C207.093 29.9467 207.32 29.0133 207.32 28C207.32 26.96 207.087 26.0133 206.62 25.16C206.167 24.2933 205.547 23.6067 204.76 23.1C203.987 22.58 203.133 22.32 202.2 22.32C201.24 22.32 200.373 22.58 199.6 23.1C198.827 23.62 198.213 24.3133 197.76 25.18C197.307 26.0467 197.08 26.9867 197.08 28C197.08 29.0533 197.313 30.0067 197.78 30.86C198.247 31.7133 198.867 32.3933 199.64 32.9C200.427 33.3933 201.28 33.64 202.2 33.64ZM215.314 38V18H220.194V19.78C220.874 19.06 221.687 18.4933 222.634 18.08C223.581 17.6533 224.601 17.44 225.694 17.44C227.081 17.44 228.354 17.7667 229.514 18.42C230.687 19.0733 231.621 19.9467 232.314 21.04C233.021 19.9467 233.954 19.0733 235.114 18.42C236.274 17.7667 237.547 17.44 238.934 17.44C240.401 17.44 241.727 17.8 242.914 18.52C244.114 19.2267 245.067 20.18 245.774 21.38C246.494 22.5667 246.854 23.8933 246.854 25.36V38H241.974V26.66C241.974 25.8867 241.781 25.18 241.394 24.54C241.021 23.8867 240.514 23.3667 239.874 22.98C239.247 22.58 238.541 22.38 237.754 22.38C236.967 22.38 236.254 22.5733 235.614 22.96C234.987 23.3333 234.481 23.84 234.094 24.48C233.707 25.12 233.514 25.8467 233.514 26.66V38H228.634V26.66C228.634 25.8467 228.447 25.12 228.074 24.48C227.701 23.84 227.194 23.3333 226.554 22.96C225.914 22.5733 225.201 22.38 224.414 22.38C223.641 22.38 222.934 22.58 222.294 22.98C221.654 23.3667 221.141 23.8867 220.754 24.54C220.381 25.18 220.194 25.8867 220.194 26.66V38H215.314ZM255.741 48H250.861V18H255.741V20.54C256.394 19.6333 257.194 18.9 258.141 18.34C259.101 17.7667 260.221 17.48 261.501 17.48C262.968 17.48 264.334 17.7533 265.601 18.3C266.868 18.8467 267.981 19.6067 268.941 20.58C269.914 21.54 270.668 22.6533 271.201 23.92C271.748 25.1867 272.021 26.5467 272.021 28C272.021 29.4533 271.748 30.82 271.201 32.1C270.668 33.38 269.914 34.5067 268.941 35.48C267.981 36.44 266.868 37.1933 265.601 37.74C264.334 38.2867 262.968 38.56 261.501 38.56C260.221 38.56 259.101 38.28 258.141 37.72C257.194 37.1467 256.394 36.4067 255.741 35.5V48ZM261.441 22.18C260.428 22.18 259.521 22.4467 258.721 22.98C257.921 23.5 257.294 24.2 256.841 25.08C256.388 25.96 256.161 26.9333 256.161 28C256.161 29.0667 256.388 30.0467 256.841 30.94C257.294 31.82 257.921 32.5267 258.721 33.06C259.521 33.58 260.428 33.84 261.441 33.84C262.468 33.84 263.408 33.58 264.261 33.06C265.114 32.54 265.794 31.84 266.301 30.96C266.808 30.0667 267.061 29.08 267.061 28C267.061 26.9333 266.808 25.96 266.301 25.08C265.794 24.2 265.114 23.5 264.261 22.98C263.421 22.4467 262.481 22.18 261.441 22.18ZM284.036 38.52C282.196 38.52 280.516 38.0467 278.996 37.1C277.489 36.1533 276.283 34.8867 275.376 33.3C274.483 31.7 274.036 29.9333 274.036 28C274.036 26.5333 274.296 25.1667 274.816 23.9C275.336 22.62 276.049 21.5 276.956 20.54C277.876 19.5667 278.943 18.8067 280.156 18.26C281.369 17.7133 282.663 17.44 284.036 17.44C285.876 17.44 287.549 17.9133 289.056 18.86C290.576 19.8067 291.783 21.08 292.676 22.68C293.583 24.28 294.036 26.0533 294.036 28C294.036 29.4533 293.776 30.8133 293.256 32.08C292.736 33.3467 292.016 34.4667 291.096 35.44C290.189 36.4 289.129 37.1533 287.916 37.7C286.716 38.2467 285.423 38.52 284.036 38.52ZM284.036 33.64C285.009 33.64 285.883 33.38 286.656 32.86C287.429 32.34 288.036 31.6533 288.476 30.8C288.929 29.9467 289.156 29.0133 289.156 28C289.156 26.96 288.923 26.0133 288.456 25.16C288.003 24.2933 287.383 23.6067 286.596 23.1C285.823 22.58 284.969 22.32 284.036 22.32C283.076 22.32 282.209 22.58 281.436 23.1C280.663 23.62 280.049 24.3133 279.596 25.18C279.143 26.0467 278.916 26.9867 278.916 28C278.916 29.0533 279.149 30.0067 279.616 30.86C280.083 31.7133 280.703 32.3933 281.476 32.9C282.263 33.3933 283.116 33.64 284.036 33.64ZM315.47 25.36V38H310.59V26.64C310.59 25.8533 310.397 25.14 310.01 24.5C309.623 23.8467 309.103 23.3333 308.45 22.96C307.81 22.5733 307.097 22.38 306.31 22.38C305.523 22.38 304.803 22.5733 304.15 22.96C303.51 23.3333 302.997 23.8467 302.61 24.5C302.237 25.14 302.05 25.8533 302.05 26.64V38H297.17L297.15 18H302.03L302.05 19.78C302.73 19.06 303.543 18.4933 304.49 18.08C305.437 17.6533 306.457 17.44 307.55 17.44C309.003 17.44 310.33 17.8 311.53 18.52C312.73 19.2267 313.683 20.18 314.39 21.38C315.11 22.5667 315.47 23.8933 315.47 25.36ZM327.864 38.52C326.024 38.52 324.344 38.0467 322.824 37.1C321.317 36.1533 320.111 34.88 319.204 33.28C318.311 31.68 317.864 29.9133 317.864 27.98C317.864 26.5267 318.124 25.1667 318.644 23.9C319.164 22.62 319.877 21.5 320.784 20.54C321.704 19.5667 322.771 18.8067 323.984 18.26C325.197 17.7133 326.491 17.44 327.864 17.44C329.424 17.44 330.851 17.7733 332.144 18.44C333.451 19.0933 334.557 19.9933 335.464 21.14C336.371 22.2867 337.031 23.5933 337.444 25.06C337.857 26.5267 337.951 28.06 337.724 29.66H323.104C323.291 30.4067 323.597 31.08 324.024 31.68C324.451 32.2667 324.991 32.74 325.644 33.1C326.297 33.4467 327.037 33.6267 327.864 33.64C328.717 33.6533 329.491 33.4533 330.184 33.04C330.891 32.6133 331.477 32.04 331.944 31.32L336.924 32.48C336.111 34.2533 334.897 35.7067 333.284 36.84C331.671 37.96 329.864 38.52 327.864 38.52ZM322.944 26H332.784C332.637 25.2 332.324 24.48 331.844 23.84C331.377 23.1867 330.797 22.6667 330.104 22.28C329.411 21.8933 328.664 21.7 327.864 21.7C327.064 21.7 326.324 21.8933 325.644 22.28C324.964 22.6533 324.384 23.1667 323.904 23.82C323.437 24.46 323.117 25.1867 322.944 26ZM359.298 25.36V38H354.418V26.64C354.418 25.8533 354.225 25.14 353.838 24.5C353.451 23.8467 352.931 23.3333 352.278 22.96C351.638 22.5733 350.925 22.38 350.138 22.38C349.351 22.38 348.631 22.5733 347.978 22.96C347.338 23.3333 346.825 23.8467 346.438 24.5C346.065 25.14 345.878 25.8533 345.878 26.64V38H340.998L340.978 18H345.858L345.878 19.78C346.558 19.06 347.371 18.4933 348.318 18.08C349.265 17.6533 350.285 17.44 351.378 17.44C352.831 17.44 354.158 17.8 355.358 18.52C356.558 19.2267 357.511 20.18 358.218 21.38C358.938 22.5667 359.298 23.8933 359.298 25.36ZM374.003 22.88H370.123V38H365.243V22.88H362.283V18H365.243V11.72H370.123V18H374.003V22.88ZM73.693 86L79.133 58H83.173L89.993 75.94L96.813 58H100.853L106.293 86H101.313L97.953 68.68L91.653 85.36H88.313L82.013 68.68L78.673 86H73.693ZM124.046 66H128.926V86H124.046L123.826 83.52C123.28 84.4133 122.553 85.14 121.646 85.7C120.753 86.2467 119.693 86.52 118.466 86.52C116.986 86.52 115.6 86.24 114.306 85.68C113.013 85.12 111.873 84.3467 110.886 83.36C109.913 82.3733 109.146 81.2333 108.586 79.94C108.04 78.6467 107.766 77.26 107.766 75.78C107.766 74.3533 108.026 73.0133 108.546 71.76C109.08 70.5067 109.82 69.4067 110.766 68.46C111.713 67.5133 112.806 66.7733 114.046 66.24C115.286 65.7067 116.62 65.44 118.046 65.44C119.366 65.44 120.546 65.7333 121.586 66.32C122.64 66.9067 123.533 67.6533 124.266 68.56L124.046 66ZM118.346 81.82C119.386 81.82 120.306 81.56 121.106 81.04C121.906 80.52 122.533 79.82 122.986 78.94C123.44 78.0467 123.666 77.0667 123.666 76C123.666 74.92 123.44 73.94 122.986 73.06C122.533 72.1667 121.9 71.46 121.086 70.94C120.286 70.42 119.373 70.16 118.346 70.16C117.32 70.16 116.38 70.4267 115.526 70.96C114.686 71.48 114.013 72.18 113.506 73.06C113.013 73.94 112.766 74.92 112.766 76C112.766 77.08 113.02 78.06 113.526 78.94C114.033 79.82 114.706 80.52 115.546 81.04C116.4 81.56 117.333 81.82 118.346 81.82ZM151.232 73.36V86H146.352V74.64C146.352 73.8533 146.158 73.14 145.772 72.5C145.385 71.8467 144.865 71.3333 144.212 70.96C143.572 70.5733 142.858 70.38 142.072 70.38C141.285 70.38 140.565 70.5733 139.912 70.96C139.272 71.3333 138.758 71.8467 138.372 72.5C137.998 73.14 137.812 73.8533 137.812 74.64V86H132.932L132.912 66H137.792L137.812 67.78C138.492 67.06 139.305 66.4933 140.252 66.08C141.198 65.6533 142.218 65.44 143.312 65.44C144.765 65.44 146.092 65.8 147.292 66.52C148.492 67.2267 149.445 68.18 150.152 69.38C150.872 70.5667 151.232 71.8933 151.232 73.36ZM169.906 66H174.786V86H169.906L169.686 83.52C169.139 84.4133 168.412 85.14 167.506 85.7C166.612 86.2467 165.552 86.52 164.326 86.52C162.846 86.52 161.459 86.24 160.166 85.68C158.872 85.12 157.732 84.3467 156.746 83.36C155.772 82.3733 155.006 81.2333 154.446 79.94C153.899 78.6467 153.626 77.26 153.626 75.78C153.626 74.3533 153.886 73.0133 154.406 71.76C154.939 70.5067 155.679 69.4067 156.626 68.46C157.572 67.5133 158.666 66.7733 159.906 66.24C161.146 65.7067 162.479 65.44 163.906 65.44C165.226 65.44 166.406 65.7333 167.446 66.32C168.499 66.9067 169.392 67.6533 170.126 68.56L169.906 66ZM164.206 81.82C165.246 81.82 166.166 81.56 166.966 81.04C167.766 80.52 168.392 79.82 168.846 78.94C169.299 78.0467 169.526 77.0667 169.526 76C169.526 74.92 169.299 73.94 168.846 73.06C168.392 72.1667 167.759 71.46 166.946 70.94C166.146 70.42 165.232 70.16 164.206 70.16C163.179 70.16 162.239 70.4267 161.386 70.96C160.546 71.48 159.872 72.18 159.366 73.06C158.872 73.94 158.626 74.92 158.626 76C158.626 77.08 158.879 78.06 159.386 78.94C159.892 79.82 160.566 80.52 161.406 81.04C162.259 81.56 163.192 81.82 164.206 81.82ZM193.22 66H198.1V86.38C198.1 87.82 197.807 89.1267 197.22 90.3C196.634 91.4867 195.834 92.5 194.82 93.34C193.807 94.1933 192.647 94.8467 191.34 95.3C190.034 95.7667 188.66 96 187.22 96C185.82 96 184.474 95.7133 183.18 95.14C181.887 94.5667 180.74 93.78 179.74 92.78C178.754 91.7933 178 90.6667 177.48 89.4L181.94 87.38C182.207 88.1133 182.607 88.7533 183.14 89.3C183.687 89.86 184.314 90.2933 185.02 90.6C185.727 90.92 186.46 91.08 187.22 91.08C187.994 91.08 188.734 90.9733 189.44 90.76C190.16 90.5467 190.807 90.2333 191.38 89.82C191.954 89.42 192.4 88.9267 192.72 88.34C193.054 87.7667 193.22 87.1133 193.22 86.38V83.56C192.594 84.44 191.807 85.1533 190.86 85.7C189.914 86.2467 188.82 86.52 187.58 86.52C186.14 86.52 184.794 86.2467 183.54 85.7C182.287 85.1533 181.18 84.4 180.22 83.44C179.274 82.4667 178.527 81.3467 177.98 80.08C177.447 78.8133 177.18 77.4533 177.18 76C177.18 74.5467 177.447 73.1867 177.98 71.92C178.527 70.6533 179.274 69.54 180.22 68.58C181.18 67.6067 182.287 66.8467 183.54 66.3C184.794 65.7533 186.14 65.48 187.58 65.48C188.82 65.48 189.914 65.7533 190.86 66.3C191.807 66.8333 192.594 67.54 193.22 68.42V66ZM187.64 81.82C188.667 81.82 189.574 81.56 190.36 81.04C191.16 80.5067 191.787 79.8 192.24 78.92C192.694 78.0267 192.92 77.0533 192.92 76C192.92 74.9333 192.687 73.96 192.22 73.08C191.767 72.2 191.14 71.4933 190.34 70.96C189.554 70.4267 188.654 70.16 187.64 70.16C186.64 70.16 185.727 70.4267 184.9 70.96C184.074 71.48 183.414 72.18 182.92 73.06C182.427 73.94 182.18 74.92 182.18 76C182.18 77.08 182.427 78.06 182.92 78.94C183.414 79.82 184.074 80.52 184.9 81.04C185.727 81.56 186.64 81.82 187.64 81.82ZM211.243 86.52C209.403 86.52 207.723 86.0467 206.203 85.1C204.696 84.1533 203.49 82.88 202.583 81.28C201.69 79.68 201.243 77.9133 201.243 75.98C201.243 74.5267 201.503 73.1667 202.023 71.9C202.543 70.62 203.256 69.5 204.163 68.54C205.083 67.5667 206.15 66.8067 207.363 66.26C208.576 65.7133 209.87 65.44 211.243 65.44C212.803 65.44 214.23 65.7733 215.523 66.44C216.83 67.0933 217.936 67.9933 218.843 69.14C219.75 70.2867 220.41 71.5933 220.823 73.06C221.236 74.5267 221.33 76.06 221.103 77.66H206.483C206.67 78.4067 206.976 79.08 207.403 79.68C207.83 80.2667 208.37 80.74 209.023 81.1C209.676 81.4467 210.416 81.6267 211.243 81.64C212.096 81.6533 212.87 81.4533 213.563 81.04C214.27 80.6133 214.856 80.04 215.323 79.32L220.303 80.48C219.49 82.2533 218.276 83.7067 216.663 84.84C215.05 85.96 213.243 86.52 211.243 86.52ZM206.323 74H216.163C216.016 73.2 215.703 72.48 215.223 71.84C214.756 71.1867 214.176 70.6667 213.483 70.28C212.79 69.8933 212.043 69.7 211.243 69.7C210.443 69.7 209.703 69.8933 209.023 70.28C208.343 70.6533 207.763 71.1667 207.283 71.82C206.816 72.46 206.496 73.1867 206.323 74ZM224.357 86V66H229.237V67.78C229.917 67.06 230.73 66.4933 231.677 66.08C232.624 65.6533 233.644 65.44 234.737 65.44C236.124 65.44 237.397 65.7667 238.557 66.42C239.73 67.0733 240.664 67.9467 241.357 69.04C242.064 67.9467 242.997 67.0733 244.157 66.42C245.317 65.7667 246.59 65.44 247.977 65.44C249.444 65.44 250.77 65.8 251.957 66.52C253.157 67.2267 254.11 68.18 254.817 69.38C255.537 70.5667 255.897 71.8933 255.897 73.36V86H251.017V74.66C251.017 73.8867 250.824 73.18 250.437 72.54C250.064 71.8867 249.557 71.3667 248.917 70.98C248.29 70.58 247.584 70.38 246.797 70.38C246.01 70.38 245.297 70.5733 244.657 70.96C244.03 71.3333 243.524 71.84 243.137 72.48C242.75 73.12 242.557 73.8467 242.557 74.66V86H237.677V74.66C237.677 73.8467 237.49 73.12 237.117 72.48C236.744 71.84 236.237 71.3333 235.597 70.96C234.957 70.5733 234.244 70.38 233.457 70.38C232.684 70.38 231.977 70.58 231.337 70.98C230.697 71.3667 230.184 71.8867 229.797 72.54C229.424 73.18 229.237 73.8867 229.237 74.66V86H224.357ZM268.313 86.52C266.473 86.52 264.793 86.0467 263.273 85.1C261.767 84.1533 260.56 82.88 259.653 81.28C258.76 79.68 258.313 77.9133 258.313 75.98C258.313 74.5267 258.573 73.1667 259.093 71.9C259.613 70.62 260.327 69.5 261.233 68.54C262.153 67.5667 263.22 66.8067 264.433 66.26C265.647 65.7133 266.94 65.44 268.313 65.44C269.873 65.44 271.3 65.7733 272.593 66.44C273.9 67.0933 275.007 67.9933 275.913 69.14C276.82 70.2867 277.48 71.5933 277.893 73.06C278.307 74.5267 278.4 76.06 278.173 77.66H263.553C263.74 78.4067 264.047 79.08 264.473 79.68C264.9 80.2667 265.44 80.74 266.093 81.1C266.747 81.4467 267.487 81.6267 268.313 81.64C269.167 81.6533 269.94 81.4533 270.633 81.04C271.34 80.6133 271.927 80.04 272.393 79.32L277.373 80.48C276.56 82.2533 275.347 83.7067 273.733 84.84C272.12 85.96 270.313 86.52 268.313 86.52ZM263.393 74H273.233C273.087 73.2 272.773 72.48 272.293 71.84C271.827 71.1867 271.247 70.6667 270.553 70.28C269.86 69.8933 269.113 69.7 268.313 69.7C267.513 69.7 266.773 69.8933 266.093 70.28C265.413 70.6533 264.833 71.1667 264.353 71.82C263.887 72.46 263.567 73.1867 263.393 74ZM299.747 73.36V86H294.867V74.64C294.867 73.8533 294.674 73.14 294.287 72.5C293.901 71.8467 293.381 71.3333 292.727 70.96C292.087 70.5733 291.374 70.38 290.587 70.38C289.801 70.38 289.081 70.5733 288.427 70.96C287.787 71.3333 287.274 71.8467 286.887 72.5C286.514 73.14 286.327 73.8533 286.327 74.64V86H281.447L281.427 66H286.307L286.327 67.78C287.007 67.06 287.821 66.4933 288.767 66.08C289.714 65.6533 290.734 65.44 291.827 65.44C293.281 65.44 294.607 65.8 295.807 66.52C297.007 67.2267 297.961 68.18 298.667 69.38C299.387 70.5667 299.747 71.8933 299.747 73.36ZM314.452 70.88H310.572V86H305.692V70.88H302.732V66H305.692V59.72H310.572V66H314.452V70.88ZM348.877 58V62.88H340.317V86H335.437V62.88H326.877V58H348.877ZM358.626 86.52C356.786 86.52 355.106 86.0467 353.586 85.1C352.079 84.1533 350.872 82.8867 349.966 81.3C349.072 79.7 348.626 77.9333 348.626 76C348.626 74.5333 348.886 73.1667 349.406 71.9C349.926 70.62 350.639 69.5 351.546 68.54C352.466 67.5667 353.532 66.8067 354.746 66.26C355.959 65.7133 357.252 65.44 358.626 65.44C360.466 65.44 362.139 65.9133 363.646 66.86C365.166 67.8067 366.372 69.08 367.266 70.68C368.172 72.28 368.626 74.0533 368.626 76C368.626 77.4533 368.366 78.8133 367.846 80.08C367.326 81.3467 366.606 82.4667 365.686 83.44C364.779 84.4 363.719 85.1533 362.506 85.7C361.306 86.2467 360.012 86.52 358.626 86.52ZM358.626 81.64C359.599 81.64 360.472 81.38 361.246 80.86C362.019 80.34 362.626 79.6533 363.066 78.8C363.519 77.9467 363.746 77.0133 363.746 76C363.746 74.96 363.512 74.0133 363.046 73.16C362.592 72.2933 361.972 71.6067 361.186 71.1C360.412 70.58 359.559 70.32 358.626 70.32C357.666 70.32 356.799 70.58 356.026 71.1C355.252 71.62 354.639 72.3133 354.186 73.18C353.732 74.0467 353.506 74.9867 353.506 76C353.506 77.0533 353.739 78.0067 354.206 78.86C354.672 79.7133 355.292 80.3933 356.066 80.9C356.852 81.3933 357.706 81.64 358.626 81.64ZM380.618 86.52C378.778 86.52 377.098 86.0467 375.578 85.1C374.071 84.1533 372.865 82.8867 371.958 81.3C371.065 79.7 370.618 77.9333 370.618 76C370.618 74.5333 370.878 73.1667 371.398 71.9C371.918 70.62 372.631 69.5 373.538 68.54C374.458 67.5667 375.525 66.8067 376.738 66.26C377.951 65.7133 379.245 65.44 380.618 65.44C382.458 65.44 384.131 65.9133 385.638 66.86C387.158 67.8067 388.365 69.08 389.258 70.68C390.165 72.28 390.618 74.0533 390.618 76C390.618 77.4533 390.358 78.8133 389.838 80.08C389.318 81.3467 388.598 82.4667 387.678 83.44C386.771 84.4 385.711 85.1533 384.498 85.7C383.298 86.2467 382.005 86.52 380.618 86.52ZM380.618 81.64C381.591 81.64 382.465 81.38 383.238 80.86C384.011 80.34 384.618 79.6533 385.058 78.8C385.511 77.9467 385.738 77.0133 385.738 76C385.738 74.96 385.505 74.0133 385.038 73.16C384.585 72.2933 383.965 71.6067 383.178 71.1C382.405 70.58 381.551 70.32 380.618 70.32C379.658 70.32 378.791 70.58 378.018 71.1C377.245 71.62 376.631 72.3133 376.178 73.18C375.725 74.0467 375.498 74.9867 375.498 76C375.498 77.0533 375.731 78.0067 376.198 78.86C376.665 79.7133 377.285 80.3933 378.058 80.9C378.845 81.3933 379.698 81.64 380.618 81.64ZM393.42 86V56H398.3V86H393.42Z" fill="black"/>
<defs>
<clipPath id="clip0_910_11543">
<rect width="457" height="458" fill="white" transform="translate(7.5 161)"/>
</clipPath>
</defs>
</svg>
