<svg width="449" height="188" viewBox="0 0 449 188" fill="none" xmlns="http://www.w3.org/2000/svg">
<rect width="449" height="56" rx="8" fill="#FAFAFA"/>
<path d="M21.344 34.208C20.448 34.208 19.6693 33.9893 19.008 33.552C18.352 33.1147 17.8453 32.528 17.488 31.792C17.136 31.0507 16.96 30.2293 16.96 29.328V22.8H18.304V29.328C18.304 29.968 18.4213 30.5573 18.656 31.096C18.896 31.6347 19.24 32.064 19.688 32.384C20.1413 32.704 20.6933 32.864 21.344 32.864C22.0053 32.864 22.56 32.704 23.008 32.384C23.456 32.0587 23.7947 31.6293 24.024 31.096C24.2587 30.5573 24.376 29.968 24.376 29.328V22.8H25.72V29.328C25.72 30.0053 25.6187 30.64 25.416 31.232C25.2133 31.8187 24.92 32.336 24.536 32.784C24.1573 33.232 23.6987 33.5813 23.16 33.832C22.6213 34.0827 22.016 34.208 21.344 34.208ZM30.0875 34.152C29.6555 34.136 29.2342 34.056 28.8235 33.912C28.4182 33.7627 28.0608 33.5627 27.7515 33.312C27.4475 33.056 27.2262 32.7627 27.0875 32.432L28.2395 31.936C28.3195 32.1173 28.4635 32.288 28.6715 32.448C28.8795 32.608 29.1195 32.736 29.3915 32.832C29.6635 32.928 29.9382 32.976 30.2155 32.976C30.5088 32.976 30.7835 32.9307 31.0395 32.84C31.2955 32.7493 31.5035 32.616 31.6635 32.44C31.8288 32.2587 31.9115 32.0427 31.9115 31.792C31.9115 31.5253 31.8208 31.3173 31.6395 31.168C31.4635 31.0133 31.2395 30.8933 30.9675 30.808C30.7008 30.7173 30.4288 30.632 30.1515 30.552C29.6022 30.4133 29.1115 30.248 28.6795 30.056C28.2475 29.8587 27.9062 29.6107 27.6555 29.312C27.4102 29.008 27.2875 28.6213 27.2875 28.152C27.2875 27.656 27.4235 27.2267 27.6955 26.864C27.9728 26.5013 28.3355 26.2213 28.7835 26.024C29.2315 25.8267 29.7115 25.728 30.2235 25.728C30.8688 25.728 31.4582 25.8667 31.9915 26.144C32.5248 26.4213 32.9222 26.7973 33.1835 27.272L32.1035 27.904C32.0128 27.712 31.8742 27.544 31.6875 27.4C31.5008 27.2507 31.2875 27.1333 31.0475 27.048C30.8075 26.9627 30.5622 26.9173 30.3115 26.912C30.0022 26.9013 29.7115 26.9413 29.4395 27.032C29.1728 27.1227 28.9568 27.2613 28.7915 27.448C28.6315 27.6293 28.5515 27.856 28.5515 28.128C28.5515 28.3947 28.6368 28.5973 28.8075 28.736C28.9835 28.8747 29.2102 28.9867 29.4875 29.072C29.7702 29.152 30.0768 29.2453 30.4075 29.352C30.8928 29.5067 31.3462 29.6853 31.7675 29.888C32.1888 30.0907 32.5275 30.344 32.7835 30.648C33.0448 30.952 33.1728 31.328 33.1675 31.776C33.1675 32.2667 33.0208 32.696 32.7275 33.064C32.4342 33.4267 32.0528 33.704 31.5835 33.896C31.1195 34.088 30.6208 34.1733 30.0875 34.152ZM37.98 34.208C37.244 34.208 36.572 34.0187 35.964 33.64C35.3613 33.2613 34.8787 32.7547 34.516 32.12C34.1587 31.48 33.98 30.7733 33.98 30C33.98 29.4133 34.084 28.8667 34.292 28.36C34.5 27.848 34.7853 27.4 35.148 27.016C35.516 26.6267 35.9427 26.3227 36.428 26.104C36.9133 25.8853 37.4307 25.776 37.98 25.776C38.5827 25.776 39.1347 25.8987 39.636 26.144C40.1427 26.384 40.5747 26.72 40.932 27.152C41.2947 27.584 41.564 28.0853 41.74 28.656C41.9213 29.2267 41.988 29.8373 41.94 30.488H35.412C35.476 30.9413 35.6253 31.3467 35.86 31.704C36.0947 32.056 36.3933 32.336 36.756 32.544C37.124 32.752 37.532 32.8587 37.98 32.864C38.46 32.864 38.8947 32.7413 39.284 32.496C39.6733 32.2453 39.988 31.904 40.228 31.472L41.596 31.792C41.276 32.5013 40.7933 33.0827 40.148 33.536C39.5027 33.984 38.78 34.208 37.98 34.208ZM35.372 29.432H40.588C40.5453 28.984 40.4013 28.576 40.156 28.208C39.9107 27.8347 39.5987 27.536 39.22 27.312C38.8413 27.088 38.428 26.976 37.98 26.976C37.532 26.976 37.1213 27.0853 36.748 27.304C36.3747 27.5227 36.0653 27.8187 35.82 28.192C35.58 28.56 35.4307 28.9733 35.372 29.432ZM43.2881 34V26H44.6321V27C44.9148 26.6267 45.2721 26.3307 45.7041 26.112C46.1361 25.888 46.6055 25.776 47.1121 25.776C47.4215 25.776 47.7201 25.816 48.0081 25.896L47.4641 27.24C47.2455 27.1707 47.0321 27.136 46.8241 27.136C46.4241 27.136 46.0561 27.2347 45.7201 27.432C45.3895 27.624 45.1255 27.8853 44.9281 28.216C44.7308 28.5467 44.6321 28.9147 44.6321 29.32V34H43.2881ZM53.2156 34V22.8H54.5596V34H53.2156ZM56.7256 34V22.8H60.4296C61.203 22.8 61.9283 22.9467 62.6056 23.24C63.283 23.528 63.8776 23.9307 64.3896 24.448C64.9016 24.96 65.3016 25.5547 65.5896 26.232C65.883 26.904 66.0296 27.6267 66.0296 28.4C66.0296 29.1733 65.883 29.8987 65.5896 30.576C65.3016 31.248 64.9016 31.8427 64.3896 32.36C63.8776 32.872 63.283 33.2747 62.6056 33.568C61.9283 33.856 61.203 34 60.4296 34H56.7256ZM58.0696 32.656H60.4296C61.0163 32.656 61.5656 32.5467 62.0776 32.328C62.595 32.104 63.0483 31.7973 63.4376 31.408C63.827 31.0187 64.131 30.568 64.3496 30.056C64.5736 29.5387 64.6856 28.9867 64.6856 28.4C64.6856 27.8133 64.5736 27.264 64.3496 26.752C64.131 26.2347 63.8243 25.7813 63.4296 25.392C63.0403 25.0027 62.5896 24.6987 62.0776 24.48C61.5656 24.256 61.0163 24.144 60.4296 24.144H58.0696V32.656Z" fill="#A0AEC0"/>
<rect y="80" width="449" height="56" rx="8" fill="#FAFAFA"/>
<path d="M16.96 114V102.8H20.656C21.2587 102.8 21.8 102.947 22.28 103.24C22.7653 103.533 23.1493 103.931 23.432 104.432C23.72 104.928 23.864 105.483 23.864 106.096C23.864 106.72 23.7173 107.283 23.424 107.784C23.136 108.28 22.7467 108.675 22.256 108.968C21.7707 109.256 21.2373 109.4 20.656 109.4H18.304V114H16.96ZM18.304 108.056H20.536C20.8987 108.056 21.2293 107.968 21.528 107.792C21.832 107.611 22.072 107.368 22.248 107.064C22.4293 106.755 22.52 106.408 22.52 106.024C22.52 105.635 22.4293 105.288 22.248 104.984C22.072 104.675 21.832 104.432 21.528 104.256C21.2293 104.075 20.8987 103.984 20.536 103.984H18.304V108.056ZM31.2201 106H32.5641V114H31.2201L31.1641 112.648C30.9135 113.112 30.5668 113.488 30.1241 113.776C29.6868 114.064 29.1641 114.208 28.5561 114.208C27.9695 114.208 27.4201 114.099 26.9081 113.88C26.3961 113.656 25.9428 113.349 25.5481 112.96C25.1588 112.565 24.8548 112.112 24.6361 111.6C24.4175 111.088 24.3081 110.536 24.3081 109.944C24.3081 109.373 24.4148 108.835 24.6281 108.328C24.8415 107.821 25.1375 107.379 25.5161 107C25.9001 106.616 26.3428 106.317 26.8441 106.104C27.3455 105.885 27.8841 105.776 28.4601 105.776C29.0895 105.776 29.6415 105.925 30.1161 106.224C30.5908 106.517 30.9748 106.899 31.2681 107.368L31.2201 106ZM28.5321 112.904C29.0601 112.904 29.5161 112.776 29.9001 112.52C30.2895 112.259 30.5881 111.907 30.7961 111.464C31.0095 111.021 31.1161 110.533 31.1161 110C31.1161 109.456 31.0095 108.965 30.7961 108.528C30.5828 108.085 30.2815 107.736 29.8921 107.48C29.5081 107.219 29.0548 107.088 28.5321 107.088C28.0041 107.088 27.5241 107.219 27.0921 107.48C26.6601 107.741 26.3161 108.093 26.0601 108.536C25.8095 108.973 25.6841 109.461 25.6841 110C25.6841 110.539 25.8148 111.029 26.0761 111.472C26.3375 111.909 26.6841 112.259 27.1161 112.52C27.5481 112.776 28.0201 112.904 28.5321 112.904ZM36.6031 114.152C36.1711 114.136 35.7498 114.056 35.3391 113.912C34.9338 113.763 34.5765 113.563 34.2671 113.312C33.9631 113.056 33.7418 112.763 33.6031 112.432L34.7551 111.936C34.8351 112.117 34.9791 112.288 35.1871 112.448C35.3951 112.608 35.6351 112.736 35.9071 112.832C36.1791 112.928 36.4538 112.976 36.7311 112.976C37.0245 112.976 37.2991 112.931 37.5551 112.84C37.8111 112.749 38.0191 112.616 38.1791 112.44C38.3445 112.259 38.4271 112.043 38.4271 111.792C38.4271 111.525 38.3365 111.317 38.1551 111.168C37.9791 111.013 37.7551 110.893 37.4831 110.808C37.2165 110.717 36.9445 110.632 36.6671 110.552C36.1178 110.413 35.6271 110.248 35.1951 110.056C34.7631 109.859 34.4218 109.611 34.1711 109.312C33.9258 109.008 33.8031 108.621 33.8031 108.152C33.8031 107.656 33.9391 107.227 34.2111 106.864C34.4885 106.501 34.8511 106.221 35.2991 106.024C35.7471 105.827 36.2271 105.728 36.7391 105.728C37.3845 105.728 37.9738 105.867 38.5071 106.144C39.0405 106.421 39.4378 106.797 39.6991 107.272L38.6191 107.904C38.5285 107.712 38.3898 107.544 38.2031 107.4C38.0165 107.251 37.8031 107.133 37.5631 107.048C37.3231 106.963 37.0778 106.917 36.8271 106.912C36.5178 106.901 36.2271 106.941 35.9551 107.032C35.6885 107.123 35.4725 107.261 35.3071 107.448C35.1471 107.629 35.0671 107.856 35.0671 108.128C35.0671 108.395 35.1525 108.597 35.3231 108.736C35.4991 108.875 35.7258 108.987 36.0031 109.072C36.2858 109.152 36.5925 109.245 36.9231 109.352C37.4085 109.507 37.8618 109.685 38.2831 109.888C38.7045 110.091 39.0431 110.344 39.2991 110.648C39.5605 110.952 39.6885 111.328 39.6831 111.776C39.6831 112.267 39.5365 112.696 39.2431 113.064C38.9498 113.427 38.5685 113.704 38.0991 113.896C37.6351 114.088 37.1365 114.173 36.6031 114.152ZM43.4938 114.152C43.0618 114.136 42.6404 114.056 42.2298 113.912C41.8244 113.763 41.4671 113.563 41.1578 113.312C40.8538 113.056 40.6324 112.763 40.4938 112.432L41.6458 111.936C41.7258 112.117 41.8698 112.288 42.0778 112.448C42.2858 112.608 42.5258 112.736 42.7978 112.832C43.0698 112.928 43.3444 112.976 43.6218 112.976C43.9151 112.976 44.1898 112.931 44.4458 112.84C44.7018 112.749 44.9098 112.616 45.0698 112.44C45.2351 112.259 45.3178 112.043 45.3178 111.792C45.3178 111.525 45.2271 111.317 45.0458 111.168C44.8698 111.013 44.6458 110.893 44.3738 110.808C44.1071 110.717 43.8351 110.632 43.5578 110.552C43.0084 110.413 42.5178 110.248 42.0858 110.056C41.6538 109.859 41.3124 109.611 41.0618 109.312C40.8164 109.008 40.6938 108.621 40.6938 108.152C40.6938 107.656 40.8298 107.227 41.1018 106.864C41.3791 106.501 41.7418 106.221 42.1898 106.024C42.6378 105.827 43.1178 105.728 43.6298 105.728C44.2751 105.728 44.8644 105.867 45.3978 106.144C45.9311 106.421 46.3284 106.797 46.5898 107.272L45.5098 107.904C45.4191 107.712 45.2804 107.544 45.0938 107.4C44.9071 107.251 44.6938 107.133 44.4538 107.048C44.2138 106.963 43.9684 106.917 43.7178 106.912C43.4084 106.901 43.1178 106.941 42.8458 107.032C42.5791 107.123 42.3631 107.261 42.1978 107.448C42.0378 107.629 41.9578 107.856 41.9578 108.128C41.9578 108.395 42.0431 108.597 42.2138 108.736C42.3898 108.875 42.6164 108.987 42.8938 109.072C43.1764 109.152 43.4831 109.245 43.8138 109.352C44.2991 109.507 44.7524 109.685 45.1738 109.888C45.5951 110.091 45.9338 110.344 46.1898 110.648C46.4511 110.952 46.5791 111.328 46.5738 111.776C46.5738 112.267 46.4271 112.696 46.1338 113.064C45.8404 113.427 45.4591 113.704 44.9898 113.896C44.5258 114.088 44.0271 114.173 43.4938 114.152ZM51.3169 114H49.9569L47.2769 106H48.5889L50.6529 112.104L52.6929 106H54.0769L56.1249 112.104L58.1649 106H59.4929L56.8129 114H55.4449L53.3729 107.84L51.3169 114ZM63.9956 114.208C63.2596 114.208 62.5876 114.019 61.9796 113.64C61.377 113.261 60.8943 112.755 60.5316 112.12C60.1743 111.48 59.9956 110.773 59.9956 110C59.9956 109.413 60.0996 108.867 60.3076 108.36C60.5156 107.848 60.801 107.4 61.1636 107.016C61.5316 106.627 61.9583 106.323 62.4436 106.104C62.929 105.885 63.4463 105.776 63.9956 105.776C64.7316 105.776 65.401 105.965 66.0036 106.344C66.6116 106.723 67.0943 107.232 67.4516 107.872C67.8143 108.512 67.9956 109.221 67.9956 110C67.9956 110.581 67.8916 111.125 67.6836 111.632C67.4756 112.139 67.1876 112.587 66.8196 112.976C66.457 113.36 66.033 113.661 65.5476 113.88C65.0676 114.099 64.5503 114.208 63.9956 114.208ZM63.9956 112.864C64.497 112.864 64.9476 112.733 65.3476 112.472C65.753 112.205 66.0703 111.856 66.2996 111.424C66.5343 110.987 66.6516 110.512 66.6516 110C66.6516 109.477 66.5316 108.997 66.2916 108.56C66.057 108.123 65.7396 107.773 65.3396 107.512C64.9396 107.251 64.4916 107.12 63.9956 107.12C63.4943 107.12 63.0436 107.253 62.6436 107.52C62.2436 107.781 61.9263 108.131 61.6916 108.568C61.457 109.005 61.3396 109.483 61.3396 110C61.3396 110.533 61.4596 111.019 61.6996 111.456C61.9396 111.888 62.2623 112.232 62.6676 112.488C63.073 112.739 63.5156 112.864 63.9956 112.864ZM69.3194 114V106H70.6634V107C70.946 106.627 71.3034 106.331 71.7354 106.112C72.1674 105.888 72.6367 105.776 73.1434 105.776C73.4527 105.776 73.7514 105.816 74.0394 105.896L73.4954 107.24C73.2767 107.171 73.0634 107.136 72.8554 107.136C72.4554 107.136 72.0874 107.235 71.7514 107.432C71.4207 107.624 71.1567 107.885 70.9594 108.216C70.762 108.547 70.6634 108.915 70.6634 109.32V114H69.3194ZM81.0563 102H82.4003V114H81.0563V112.64C80.7843 113.109 80.4189 113.488 79.9603 113.776C79.5016 114.064 78.9629 114.208 78.3443 114.208C77.7629 114.208 77.2189 114.099 76.7123 113.88C76.2056 113.661 75.7576 113.36 75.3683 112.976C74.9843 112.587 74.6829 112.139 74.4643 111.632C74.2456 111.125 74.1363 110.581 74.1363 110C74.1363 109.419 74.2456 108.875 74.4643 108.368C74.6829 107.856 74.9843 107.408 75.3683 107.024C75.7576 106.635 76.2056 106.331 76.7123 106.112C77.2189 105.893 77.7629 105.784 78.3443 105.784C78.9629 105.784 79.5016 105.928 79.9603 106.216C80.4189 106.504 80.7843 106.883 81.0563 107.352V102ZM78.3602 112.904C78.8883 112.904 79.3443 112.776 79.7283 112.52C80.1176 112.259 80.4163 111.907 80.6243 111.464C80.8376 111.021 80.9443 110.533 80.9443 110C80.9443 109.456 80.8376 108.965 80.6243 108.528C80.4109 108.085 80.1096 107.736 79.7203 107.48C79.3363 107.219 78.8829 107.088 78.3602 107.088C77.8323 107.088 77.3523 107.219 76.9203 107.48C76.4936 107.741 76.1523 108.093 75.8963 108.536C75.6403 108.973 75.5123 109.461 75.5123 110C75.5123 110.539 75.6429 111.029 75.9043 111.472C76.1656 111.909 76.5123 112.259 76.9443 112.52C77.3763 112.776 77.8483 112.904 78.3602 112.904Z" fill="#A0AEC0"/>
<path d="M427.94 113.94C426.231 115.243 424.149 115.965 422 116C415 116 411 108 411 108C412.244 105.682 413.969 103.657 416.06 102.06M419.9 100.24C420.588 100.079 421.293 99.9983 422 100C429 100 433 108 433 108C432.393 109.136 431.669 110.205 430.84 111.19M424.12 110.12C423.845 110.415 423.514 110.651 423.146 110.815C422.778 110.979 422.381 111.067 421.978 111.074C421.575 111.081 421.175 111.007 420.802 110.856C420.428 110.706 420.089 110.481 419.804 110.196C419.519 109.911 419.294 109.572 419.144 109.198C418.993 108.825 418.919 108.425 418.926 108.022C418.933 107.619 419.021 107.222 419.185 106.854C419.349 106.486 419.585 106.155 419.88 105.88M411 97L433 119" stroke="black" stroke-width="2" stroke-linecap="round" stroke-linejoin="round"/>
<circle cx="10" cy="174" r="9.5" stroke="#CBD5E0"/>
<path d="M32.96 180V168.8H36.896C37.4933 168.8 38.032 168.947 38.512 169.24C38.9973 169.533 39.3813 169.931 39.664 170.432C39.952 170.928 40.096 171.483 40.096 172.096C40.096 172.635 39.9893 173.125 39.776 173.568C39.5627 174.011 39.2693 174.381 38.896 174.68C38.528 174.973 38.1093 175.176 37.64 175.288L40.36 180H38.808L36.136 175.4H34.304V180H32.96ZM34.304 174.056H36.76C37.1227 174.056 37.456 173.968 37.76 173.792C38.064 173.611 38.304 173.368 38.48 173.064C38.6613 172.755 38.752 172.408 38.752 172.024C38.752 171.635 38.6613 171.288 38.48 170.984C38.304 170.675 38.064 170.432 37.76 170.256C37.456 170.075 37.1227 169.984 36.76 169.984H34.304V174.056ZM45.1988 180.208C44.4628 180.208 43.7908 180.019 43.1828 179.64C42.5801 179.261 42.0974 178.755 41.7348 178.12C41.3774 177.48 41.1988 176.773 41.1988 176C41.1988 175.413 41.3028 174.867 41.5108 174.36C41.7188 173.848 42.0041 173.4 42.3668 173.016C42.7348 172.627 43.1614 172.323 43.6468 172.104C44.1321 171.885 44.6494 171.776 45.1988 171.776C45.8014 171.776 46.3534 171.899 46.8548 172.144C47.3614 172.384 47.7934 172.72 48.1508 173.152C48.5134 173.584 48.7828 174.085 48.9588 174.656C49.1401 175.227 49.2068 175.837 49.1588 176.488H42.6308C42.6948 176.941 42.8441 177.347 43.0788 177.704C43.3134 178.056 43.6121 178.336 43.9748 178.544C44.3428 178.752 44.7508 178.859 45.1988 178.864C45.6788 178.864 46.1134 178.741 46.5028 178.496C46.8921 178.245 47.2068 177.904 47.4468 177.472L48.8148 177.792C48.4948 178.501 48.0121 179.083 47.3668 179.536C46.7214 179.984 45.9988 180.208 45.1988 180.208ZM42.5908 175.432H47.8068C47.7641 174.984 47.6201 174.576 47.3748 174.208C47.1294 173.835 46.8174 173.536 46.4388 173.312C46.0601 173.088 45.6468 172.976 45.1988 172.976C44.7508 172.976 44.3401 173.085 43.9668 173.304C43.5934 173.523 43.2841 173.819 43.0388 174.192C42.7988 174.56 42.6494 174.973 42.5908 175.432ZM50.5069 180V172H51.8509V173C52.1335 172.627 52.4882 172.331 52.9149 172.112C53.3469 171.888 53.8162 171.776 54.3229 171.776C54.9149 171.776 55.4562 171.92 55.9469 172.208C56.4375 172.496 56.8242 172.877 57.1069 173.352C57.3895 172.877 57.7735 172.496 58.2589 172.208C58.7495 171.92 59.2882 171.776 59.8749 171.776C60.4775 171.776 61.0242 171.923 61.5149 172.216C62.0055 172.504 62.3949 172.893 62.6829 173.384C62.9762 173.875 63.1229 174.421 63.1229 175.024V180H61.7789V175.344C61.7789 174.949 61.6829 174.584 61.4909 174.248C61.2989 173.912 61.0402 173.643 60.7149 173.44C60.3895 173.237 60.0295 173.136 59.6349 173.136C59.2402 173.136 58.8802 173.232 58.5549 173.424C58.2295 173.611 57.9709 173.872 57.7789 174.208C57.5869 174.539 57.4909 174.917 57.4909 175.344V180H56.1469V175.344C56.1469 174.917 56.0509 174.539 55.8589 174.208C55.6669 173.872 55.4055 173.611 55.0749 173.424C54.7495 173.232 54.3895 173.136 53.9949 173.136C53.6055 173.136 53.2455 173.237 52.9149 173.44C52.5895 173.643 52.3309 173.912 52.1389 174.248C51.9469 174.584 51.8509 174.949 51.8509 175.344V180H50.5069ZM68.0894 180.208C67.3534 180.208 66.6814 180.019 66.0734 179.64C65.4707 179.261 64.988 178.755 64.6254 178.12C64.268 177.48 64.0894 176.773 64.0894 176C64.0894 175.413 64.1934 174.867 64.4014 174.36C64.6094 173.848 64.8947 173.4 65.2574 173.016C65.6254 172.627 66.052 172.323 66.5374 172.104C67.0227 171.885 67.54 171.776 68.0894 171.776C68.692 171.776 69.244 171.899 69.7454 172.144C70.252 172.384 70.684 172.72 71.0414 173.152C71.404 173.584 71.6734 174.085 71.8494 174.656C72.0307 175.227 72.0974 175.837 72.0494 176.488H65.5214C65.5854 176.941 65.7347 177.347 65.9694 177.704C66.204 178.056 66.5027 178.336 66.8654 178.544C67.2334 178.752 67.6414 178.859 68.0894 178.864C68.5694 178.864 69.004 178.741 69.3934 178.496C69.7827 178.245 70.0974 177.904 70.3374 177.472L71.7054 177.792C71.3854 178.501 70.9027 179.083 70.2574 179.536C69.612 179.984 68.8894 180.208 68.0894 180.208ZM65.4814 175.432H70.6974C70.6547 174.984 70.5107 174.576 70.2654 174.208C70.02 173.835 69.708 173.536 69.3294 173.312C68.9507 173.088 68.5374 172.976 68.0894 172.976C67.6414 172.976 67.2307 173.085 66.8574 173.304C66.484 173.523 66.1747 173.819 65.9294 174.192C65.6894 174.56 65.54 174.973 65.4814 175.432ZM73.3975 180V172H74.7415V173C75.0242 172.627 75.3788 172.331 75.8055 172.112C76.2375 171.888 76.7068 171.776 77.2135 171.776C77.8055 171.776 78.3468 171.92 78.8375 172.208C79.3282 172.496 79.7148 172.877 79.9975 173.352C80.2802 172.877 80.6642 172.496 81.1495 172.208C81.6402 171.92 82.1788 171.776 82.7655 171.776C83.3682 171.776 83.9148 171.923 84.4055 172.216C84.8962 172.504 85.2855 172.893 85.5735 173.384C85.8668 173.875 86.0135 174.421 86.0135 175.024V180H84.6695V175.344C84.6695 174.949 84.5735 174.584 84.3815 174.248C84.1895 173.912 83.9308 173.643 83.6055 173.44C83.2802 173.237 82.9202 173.136 82.5255 173.136C82.1308 173.136 81.7708 173.232 81.4455 173.424C81.1202 173.611 80.8615 173.872 80.6695 174.208C80.4775 174.539 80.3815 174.917 80.3815 175.344V180H79.0375V175.344C79.0375 174.917 78.9415 174.539 78.7495 174.208C78.5575 173.872 78.2962 173.611 77.9655 173.424C77.6402 173.232 77.2802 173.136 76.8855 173.136C76.4962 173.136 76.1362 173.237 75.8055 173.44C75.4802 173.643 75.2215 173.912 75.0295 174.248C74.8375 174.584 74.7415 174.949 74.7415 175.344V180H73.3975ZM91.758 171.776C92.5367 171.776 93.2433 171.965 93.878 172.344C94.518 172.723 95.0273 173.232 95.406 173.872C95.7847 174.507 95.974 175.213 95.974 175.992C95.974 176.573 95.8647 177.12 95.646 177.632C95.4273 178.139 95.1233 178.587 94.734 178.976C94.35 179.36 93.902 179.661 93.39 179.88C92.8833 180.099 92.3393 180.208 91.758 180.208C91.1393 180.208 90.6007 180.064 90.142 179.776C89.6887 179.483 89.326 179.101 89.054 178.632V180H87.71V168H89.054V173.352C89.326 172.883 89.6887 172.504 90.142 172.216C90.6007 171.923 91.1393 171.776 91.758 171.776ZM91.742 178.896C92.27 178.896 92.75 178.765 93.182 178.504C93.614 178.243 93.958 177.893 94.214 177.456C94.47 177.013 94.598 176.525 94.598 175.992C94.598 175.448 94.4673 174.957 94.206 174.52C93.9447 174.077 93.598 173.728 93.166 173.472C92.734 173.211 92.2593 173.08 91.742 173.08C91.2193 173.08 90.7633 173.211 90.374 173.472C89.99 173.733 89.6913 174.085 89.478 174.528C89.27 174.971 89.166 175.459 89.166 175.992C89.166 176.531 89.27 177.021 89.478 177.464C89.6913 177.901 89.9927 178.251 90.382 178.512C90.7713 178.768 91.2247 178.896 91.742 178.896ZM100.777 180.208C100.041 180.208 99.3689 180.019 98.7609 179.64C98.1582 179.261 97.6755 178.755 97.3129 178.12C96.9555 177.48 96.7769 176.773 96.7769 176C96.7769 175.413 96.8809 174.867 97.0889 174.36C97.2969 173.848 97.5822 173.4 97.9449 173.016C98.3129 172.627 98.7395 172.323 99.2249 172.104C99.7102 171.885 100.228 171.776 100.777 171.776C101.38 171.776 101.932 171.899 102.433 172.144C102.94 172.384 103.372 172.72 103.729 173.152C104.092 173.584 104.361 174.085 104.537 174.656C104.718 175.227 104.785 175.837 104.737 176.488H98.2089C98.2729 176.941 98.4222 177.347 98.6569 177.704C98.8915 178.056 99.1902 178.336 99.5529 178.544C99.9209 178.752 100.329 178.859 100.777 178.864C101.257 178.864 101.692 178.741 102.081 178.496C102.47 178.245 102.785 177.904 103.025 177.472L104.393 177.792C104.073 178.501 103.59 179.083 102.945 179.536C102.3 179.984 101.577 180.208 100.777 180.208ZM98.1689 175.432H103.385C103.342 174.984 103.198 174.576 102.953 174.208C102.708 173.835 102.396 173.536 102.017 173.312C101.638 173.088 101.225 172.976 100.777 172.976C100.329 172.976 99.9182 173.085 99.5449 173.304C99.1715 173.523 98.8622 173.819 98.6169 174.192C98.3769 174.56 98.2275 174.973 98.1689 175.432ZM106.085 180V172H107.429V173C107.712 172.627 108.069 172.331 108.501 172.112C108.933 171.888 109.402 171.776 109.909 171.776C110.218 171.776 110.517 171.816 110.805 171.896L110.261 173.24C110.042 173.171 109.829 173.136 109.621 173.136C109.221 173.136 108.853 173.235 108.517 173.432C108.186 173.624 107.922 173.885 107.725 174.216C107.528 174.547 107.429 174.915 107.429 175.32V180H106.085ZM115.773 180V172H117.117V173C117.399 172.627 117.754 172.331 118.181 172.112C118.613 171.888 119.082 171.776 119.589 171.776C120.181 171.776 120.722 171.92 121.213 172.208C121.703 172.496 122.09 172.877 122.373 173.352C122.655 172.877 123.039 172.496 123.525 172.208C124.015 171.92 124.554 171.776 125.141 171.776C125.743 171.776 126.29 171.923 126.781 172.216C127.271 172.504 127.661 172.893 127.949 173.384C128.242 173.875 128.389 174.421 128.389 175.024V180H127.045V175.344C127.045 174.949 126.949 174.584 126.757 174.248C126.565 173.912 126.306 173.643 125.981 173.44C125.655 173.237 125.295 173.136 124.901 173.136C124.506 173.136 124.146 173.232 123.821 173.424C123.495 173.611 123.237 173.872 123.045 174.208C122.853 174.539 122.757 174.917 122.757 175.344V180H121.413V175.344C121.413 174.917 121.317 174.539 121.125 174.208C120.933 173.872 120.671 173.611 120.341 173.424C120.015 173.232 119.655 173.136 119.261 173.136C118.871 173.136 118.511 173.237 118.181 173.44C117.855 173.643 117.597 173.912 117.405 174.248C117.213 174.584 117.117 174.949 117.117 175.344V180H115.773ZM133.355 180.208C132.619 180.208 131.947 180.019 131.339 179.64C130.736 179.261 130.254 178.755 129.891 178.12C129.534 177.48 129.355 176.773 129.355 176C129.355 175.413 129.459 174.867 129.667 174.36C129.875 173.848 130.16 173.4 130.523 173.016C130.891 172.627 131.318 172.323 131.803 172.104C132.288 171.885 132.806 171.776 133.355 171.776C133.958 171.776 134.51 171.899 135.011 172.144C135.518 172.384 135.95 172.72 136.307 173.152C136.67 173.584 136.939 174.085 137.115 174.656C137.296 175.227 137.363 175.837 137.315 176.488H130.787C130.851 176.941 131 177.347 131.235 177.704C131.47 178.056 131.768 178.336 132.131 178.544C132.499 178.752 132.907 178.859 133.355 178.864C133.835 178.864 134.27 178.741 134.659 178.496C135.048 178.245 135.363 177.904 135.603 177.472L136.971 177.792C136.651 178.501 136.168 179.083 135.523 179.536C134.878 179.984 134.155 180.208 133.355 180.208ZM130.747 175.432H135.963C135.92 174.984 135.776 174.576 135.531 174.208C135.286 173.835 134.974 173.536 134.595 173.312C134.216 173.088 133.803 172.976 133.355 172.976C132.907 172.976 132.496 173.085 132.123 173.304C131.75 173.523 131.44 173.819 131.195 174.192C130.955 174.56 130.806 174.973 130.747 175.432Z" fill="#111827"/>
<path d="M324.226 180V168.8H330.826V170.464H325.89V173.168H330.058V174.832H325.89V180H324.226ZM334.808 180.208C334.072 180.208 333.4 180.019 332.792 179.64C332.189 179.261 331.707 178.755 331.344 178.12C330.987 177.48 330.808 176.773 330.808 176C330.808 175.413 330.912 174.867 331.12 174.36C331.328 173.848 331.613 173.4 331.976 173.016C332.344 172.627 332.771 172.323 333.256 172.104C333.741 171.885 334.259 171.776 334.808 171.776C335.544 171.776 336.213 171.965 336.816 172.344C337.424 172.723 337.907 173.232 338.264 173.872C338.627 174.512 338.808 175.221 338.808 176C338.808 176.581 338.704 177.125 338.496 177.632C338.288 178.139 338 178.587 337.632 178.976C337.269 179.36 336.845 179.661 336.36 179.88C335.88 180.099 335.363 180.208 334.808 180.208ZM334.808 178.544C335.251 178.544 335.648 178.427 336 178.192C336.352 177.957 336.629 177.648 336.832 177.264C337.04 176.875 337.144 176.453 337.144 176C337.144 175.536 337.037 175.109 336.824 174.72C336.616 174.331 336.336 174.021 335.984 173.792C335.632 173.557 335.24 173.44 334.808 173.44C334.371 173.44 333.973 173.557 333.616 173.792C333.264 174.027 332.984 174.339 332.776 174.728C332.573 175.117 332.472 175.541 332.472 176C332.472 176.475 332.579 176.904 332.792 177.288C333.005 177.672 333.288 177.979 333.64 178.208C333.997 178.432 334.387 178.544 334.808 178.544ZM340.101 180V172H341.765V172.848C342.042 172.517 342.383 172.256 342.789 172.064C343.194 171.872 343.631 171.776 344.101 171.776C344.399 171.776 344.695 171.816 344.989 171.896L344.325 173.576C344.117 173.496 343.909 173.456 343.701 173.456C343.349 173.456 343.026 173.544 342.733 173.72C342.439 173.891 342.205 174.123 342.029 174.416C341.853 174.709 341.765 175.035 341.765 175.392V180H340.101ZM351.626 172H353.29V180.208C353.29 180.757 353.173 181.264 352.938 181.728C352.709 182.192 352.397 182.592 352.002 182.928C351.607 183.269 351.154 183.533 350.642 183.72C350.135 183.907 349.605 184 349.05 184C348.49 184 347.951 183.88 347.434 183.64C346.917 183.405 346.461 183.085 346.066 182.68C345.677 182.275 345.386 181.816 345.194 181.304L346.722 180.616C346.829 180.947 346.999 181.24 347.234 181.496C347.474 181.752 347.751 181.955 348.066 182.104C348.386 182.253 348.714 182.328 349.05 182.328C349.381 182.328 349.698 182.275 350.002 182.168C350.311 182.067 350.586 181.923 350.826 181.736C351.071 181.549 351.266 181.325 351.41 181.064C351.554 180.803 351.626 180.517 351.626 180.208V178.856C351.365 179.261 351.029 179.589 350.618 179.84C350.207 180.085 349.73 180.208 349.186 180.208C348.621 180.208 348.087 180.099 347.586 179.88C347.085 179.661 346.645 179.36 346.266 178.976C345.887 178.587 345.591 178.139 345.378 177.632C345.165 177.125 345.058 176.581 345.058 176C345.058 175.419 345.165 174.875 345.378 174.368C345.591 173.856 345.887 173.408 346.266 173.024C346.645 172.635 347.085 172.331 347.586 172.112C348.087 171.893 348.621 171.784 349.186 171.784C349.73 171.784 350.207 171.909 350.618 172.16C351.029 172.405 351.365 172.733 351.626 173.144V172ZM349.202 178.6C349.666 178.6 350.071 178.483 350.418 178.248C350.765 178.008 351.034 177.691 351.226 177.296C351.418 176.901 351.514 176.469 351.514 176C351.514 175.52 351.415 175.085 351.218 174.696C351.026 174.301 350.757 173.987 350.41 173.752C350.063 173.512 349.661 173.392 349.202 173.392C348.754 173.392 348.343 173.509 347.97 173.744C347.602 173.979 347.309 174.293 347.09 174.688C346.871 175.083 346.762 175.52 346.762 176C346.762 176.48 346.871 176.917 347.09 177.312C347.314 177.707 347.61 178.021 347.978 178.256C348.351 178.485 348.759 178.6 349.202 178.6ZM358.589 180.208C357.853 180.208 357.181 180.019 356.573 179.64C355.971 179.261 355.488 178.755 355.125 178.12C354.768 177.48 354.589 176.773 354.589 176C354.589 175.413 354.693 174.867 354.901 174.36C355.109 173.848 355.395 173.4 355.757 173.016C356.125 172.627 356.552 172.323 357.037 172.104C357.523 171.885 358.04 171.776 358.589 171.776C359.325 171.776 359.995 171.965 360.597 172.344C361.205 172.723 361.688 173.232 362.045 173.872C362.408 174.512 362.589 175.221 362.589 176C362.589 176.581 362.485 177.125 362.277 177.632C362.069 178.139 361.781 178.587 361.413 178.976C361.051 179.36 360.627 179.661 360.141 179.88C359.661 180.099 359.144 180.208 358.589 180.208ZM358.589 178.544C359.032 178.544 359.429 178.427 359.781 178.192C360.133 177.957 360.411 177.648 360.613 177.264C360.821 176.875 360.925 176.453 360.925 176C360.925 175.536 360.819 175.109 360.605 174.72C360.397 174.331 360.117 174.021 359.765 173.792C359.413 173.557 359.021 173.44 358.589 173.44C358.152 173.44 357.755 173.557 357.397 173.792C357.045 174.027 356.765 174.339 356.557 174.728C356.355 175.117 356.253 175.541 356.253 176C356.253 176.475 356.36 176.904 356.573 177.288C356.787 177.672 357.069 177.979 357.421 178.208C357.779 178.432 358.168 178.544 358.589 178.544ZM368.059 173.664H366.379L366.371 180H364.707L364.715 173.664H363.443V172H364.715L364.707 169.488H366.371L366.379 172H368.059V173.664ZM373.335 180V168.8H377.191C377.794 168.8 378.338 168.949 378.823 169.248C379.314 169.547 379.703 169.949 379.991 170.456C380.284 170.963 380.431 171.523 380.431 172.136C380.431 172.76 380.282 173.325 379.983 173.832C379.69 174.333 379.298 174.733 378.807 175.032C378.316 175.331 377.778 175.48 377.191 175.48H374.999V180H373.335ZM374.999 173.816H377.023C377.343 173.816 377.634 173.736 377.895 173.576C378.162 173.416 378.372 173.203 378.527 172.936C378.687 172.669 378.767 172.368 378.767 172.032C378.767 171.696 378.687 171.395 378.527 171.128C378.372 170.856 378.162 170.643 377.895 170.488C377.634 170.328 377.343 170.248 377.023 170.248H374.999V173.816ZM387.575 172H389.239V180H387.567L387.503 178.84C387.268 179.251 386.951 179.581 386.551 179.832C386.151 180.083 385.679 180.208 385.135 180.208C384.548 180.208 383.996 180.099 383.479 179.88C382.961 179.656 382.505 179.347 382.111 178.952C381.721 178.557 381.417 178.104 381.199 177.592C380.98 177.075 380.871 176.52 380.871 175.928C380.871 175.357 380.977 174.821 381.191 174.32C381.404 173.813 381.7 173.371 382.079 172.992C382.457 172.613 382.895 172.317 383.391 172.104C383.892 171.885 384.428 171.776 384.999 171.776C385.58 171.776 386.092 171.909 386.535 172.176C386.983 172.437 387.353 172.773 387.647 173.184L387.575 172ZM385.095 178.6C385.564 178.6 385.975 178.485 386.327 178.256C386.679 178.021 386.951 177.707 387.143 177.312C387.34 176.917 387.439 176.48 387.439 176C387.439 175.515 387.34 175.075 387.143 174.68C386.945 174.285 386.671 173.973 386.319 173.744C385.972 173.509 385.564 173.392 385.095 173.392C384.631 173.392 384.207 173.509 383.823 173.744C383.439 173.979 383.135 174.293 382.911 174.688C382.687 175.083 382.575 175.52 382.575 176C382.575 176.485 382.689 176.925 382.919 177.32C383.153 177.709 383.46 178.021 383.839 178.256C384.223 178.485 384.641 178.6 385.095 178.6ZM393.235 180.152C392.814 180.125 392.403 180.04 392.003 179.896C391.603 179.752 391.251 179.557 390.947 179.312C390.648 179.061 390.424 178.768 390.275 178.432L391.691 177.824C391.76 177.968 391.88 178.109 392.051 178.248C392.227 178.387 392.432 178.501 392.667 178.592C392.902 178.677 393.147 178.72 393.403 178.72C393.654 178.72 393.886 178.685 394.099 178.616C394.318 178.541 394.496 178.429 394.635 178.28C394.774 178.131 394.843 177.952 394.843 177.744C394.843 177.509 394.763 177.328 394.603 177.2C394.448 177.067 394.254 176.965 394.019 176.896C393.784 176.827 393.55 176.76 393.315 176.696C392.792 176.579 392.312 176.419 391.875 176.216C391.443 176.008 391.099 175.744 390.843 175.424C390.587 175.099 390.459 174.701 390.459 174.232C390.459 173.72 390.598 173.277 390.875 172.904C391.152 172.525 391.515 172.235 391.963 172.032C392.416 171.829 392.899 171.728 393.411 171.728C394.051 171.728 394.638 171.864 395.171 172.136C395.704 172.408 396.112 172.781 396.395 173.256L395.075 174.04C394.995 173.88 394.875 173.736 394.715 173.608C394.555 173.48 394.374 173.379 394.171 173.304C393.968 173.224 393.758 173.179 393.539 173.168C393.267 173.157 393.014 173.189 392.779 173.264C392.55 173.333 392.366 173.445 392.227 173.6C392.088 173.755 392.019 173.952 392.019 174.192C392.019 174.427 392.102 174.603 392.267 174.72C392.432 174.832 392.64 174.923 392.891 174.992C393.147 175.061 393.408 175.139 393.675 175.224C394.15 175.373 394.595 175.557 395.011 175.776C395.427 175.989 395.763 176.253 396.019 176.568C396.275 176.883 396.398 177.267 396.387 177.72C396.387 178.221 396.235 178.661 395.931 179.04C395.632 179.419 395.243 179.707 394.763 179.904C394.283 180.101 393.774 180.184 393.235 180.152ZM400.157 180.152C399.736 180.125 399.325 180.04 398.925 179.896C398.525 179.752 398.173 179.557 397.869 179.312C397.57 179.061 397.346 178.768 397.197 178.432L398.613 177.824C398.682 177.968 398.802 178.109 398.973 178.248C399.149 178.387 399.354 178.501 399.589 178.592C399.824 178.677 400.069 178.72 400.325 178.72C400.576 178.72 400.808 178.685 401.021 178.616C401.24 178.541 401.418 178.429 401.557 178.28C401.696 178.131 401.765 177.952 401.765 177.744C401.765 177.509 401.685 177.328 401.525 177.2C401.37 177.067 401.176 176.965 400.941 176.896C400.706 176.827 400.472 176.76 400.237 176.696C399.714 176.579 399.234 176.419 398.797 176.216C398.365 176.008 398.021 175.744 397.765 175.424C397.509 175.099 397.381 174.701 397.381 174.232C397.381 173.72 397.52 173.277 397.797 172.904C398.074 172.525 398.437 172.235 398.885 172.032C399.338 171.829 399.821 171.728 400.333 171.728C400.973 171.728 401.56 171.864 402.093 172.136C402.626 172.408 403.034 172.781 403.317 173.256L401.997 174.04C401.917 173.88 401.797 173.736 401.637 173.608C401.477 173.48 401.296 173.379 401.093 173.304C400.89 173.224 400.68 173.179 400.461 173.168C400.189 173.157 399.936 173.189 399.701 173.264C399.472 173.333 399.288 173.445 399.149 173.6C399.01 173.755 398.941 173.952 398.941 174.192C398.941 174.427 399.024 174.603 399.189 174.72C399.354 174.832 399.562 174.923 399.813 174.992C400.069 175.061 400.33 175.139 400.597 175.224C401.072 175.373 401.517 175.557 401.933 175.776C402.349 175.989 402.685 176.253 402.941 176.568C403.197 176.883 403.32 177.267 403.309 177.72C403.309 178.221 403.157 178.661 402.853 179.04C402.554 179.419 402.165 179.707 401.685 179.904C401.205 180.101 400.696 180.184 400.157 180.152ZM408.285 180H406.629L403.949 172H405.581L407.469 177.616L409.341 172H411.021L412.893 177.616L414.773 172H416.405L413.733 180H412.061L410.173 174.344L408.285 180ZM420.855 180.208C420.119 180.208 419.447 180.019 418.839 179.64C418.236 179.261 417.754 178.755 417.391 178.12C417.034 177.48 416.855 176.773 416.855 176C416.855 175.413 416.959 174.867 417.167 174.36C417.375 173.848 417.66 173.4 418.023 173.016C418.391 172.627 418.818 172.323 419.303 172.104C419.788 171.885 420.306 171.776 420.855 171.776C421.591 171.776 422.26 171.965 422.863 172.344C423.471 172.723 423.954 173.232 424.311 173.872C424.674 174.512 424.855 175.221 424.855 176C424.855 176.581 424.751 177.125 424.543 177.632C424.335 178.139 424.047 178.587 423.679 178.976C423.316 179.36 422.892 179.661 422.407 179.88C421.927 180.099 421.41 180.208 420.855 180.208ZM420.855 178.544C421.298 178.544 421.695 178.427 422.047 178.192C422.399 177.957 422.676 177.648 422.879 177.264C423.087 176.875 423.191 176.453 423.191 176C423.191 175.536 423.084 175.109 422.871 174.72C422.663 174.331 422.383 174.021 422.031 173.792C421.679 173.557 421.287 173.44 420.855 173.44C420.418 173.44 420.02 173.557 419.663 173.792C419.311 174.027 419.031 174.339 418.823 174.728C418.62 175.117 418.519 175.541 418.519 176C418.519 176.475 418.626 176.904 418.839 177.288C419.052 177.672 419.335 177.979 419.687 178.208C420.044 178.432 420.434 178.544 420.855 178.544ZM426.148 180V172H427.812V172.848C428.089 172.517 428.43 172.256 428.836 172.064C429.241 171.872 429.678 171.776 430.148 171.776C430.446 171.776 430.742 171.816 431.036 171.896L430.372 173.576C430.164 173.496 429.956 173.456 429.748 173.456C429.396 173.456 429.073 173.544 428.78 173.72C428.486 173.891 428.252 174.123 428.076 174.416C427.9 174.709 427.812 175.035 427.812 175.392V180H426.148ZM437.817 168H439.481V180H437.817V178.824C437.556 179.24 437.214 179.576 436.793 179.832C436.372 180.083 435.878 180.208 435.313 180.208C434.732 180.208 434.188 180.099 433.681 179.88C433.174 179.661 432.726 179.36 432.337 178.976C431.953 178.587 431.652 178.139 431.433 177.632C431.214 177.125 431.105 176.581 431.105 176C431.105 175.419 431.214 174.875 431.433 174.368C431.652 173.856 431.953 173.408 432.337 173.024C432.726 172.635 433.174 172.331 433.681 172.112C434.188 171.893 434.732 171.784 435.313 171.784C435.878 171.784 436.372 171.912 436.793 172.168C437.214 172.419 437.556 172.749 437.817 173.16V168ZM435.329 178.6C435.798 178.6 436.209 178.485 436.561 178.256C436.913 178.021 437.185 177.707 437.377 177.312C437.574 176.917 437.673 176.48 437.673 176C437.673 175.515 437.574 175.075 437.377 174.68C437.18 174.285 436.905 173.973 436.553 173.744C436.206 173.509 435.798 173.392 435.329 173.392C434.865 173.392 434.441 173.509 434.057 173.744C433.678 173.979 433.374 174.293 433.145 174.688C432.921 175.083 432.809 175.52 432.809 176C432.809 176.485 432.924 176.925 433.153 177.32C433.388 177.709 433.694 178.021 434.073 178.256C434.457 178.485 434.876 178.6 435.329 178.6ZM443.838 176.424C443.838 175.848 443.982 175.317 444.27 174.832C444.563 174.347 444.963 173.965 445.47 173.688C445.758 173.539 445.982 173.32 446.142 173.032C446.302 172.739 446.382 172.416 446.382 172.064C446.382 171.728 446.299 171.424 446.134 171.152C445.974 170.875 445.755 170.656 445.478 170.496C445.2 170.331 444.894 170.248 444.558 170.248C444.227 170.248 443.923 170.331 443.646 170.496C443.368 170.656 443.147 170.875 442.982 171.152C442.822 171.424 442.742 171.728 442.742 172.064H441.078C441.078 171.424 441.232 170.843 441.542 170.32C441.856 169.792 442.278 169.371 442.806 169.056C443.339 168.741 443.923 168.584 444.558 168.584C445.203 168.584 445.79 168.741 446.318 169.056C446.846 169.371 447.264 169.792 447.574 170.32C447.888 170.843 448.046 171.424 448.046 172.064C448.046 172.72 447.886 173.325 447.566 173.88C447.251 174.429 446.816 174.856 446.262 175.16C446.027 175.283 445.84 175.456 445.702 175.68C445.568 175.904 445.502 176.152 445.502 176.424H443.838ZM444.71 180.208C444.464 180.208 444.256 180.123 444.086 179.952C443.915 179.776 443.83 179.565 443.83 179.32C443.83 179.08 443.915 178.877 444.086 178.712C444.256 178.541 444.464 178.456 444.71 178.456C444.95 178.456 445.155 178.541 445.326 178.712C445.496 178.877 445.582 179.08 445.582 179.32C445.582 179.565 445.496 179.776 445.326 179.952C445.155 180.123 444.95 180.208 444.71 180.208Z" fill="#E62F24"/>
</svg>
