<svg width="280" height="47" viewBox="0 0 280 47" fill="none" xmlns="http://www.w3.org/2000/svg">
<rect width="280" height="47" rx="23.5" fill="#4763E4"/>
<path d="M51.7 23.5C51.7 22.1267 52.0067 20.9 52.62 19.82C53.2467 18.7267 54.0933 17.88 55.16 17.28C56.24 16.6667 57.4467 16.36 58.78 16.36C60.34 16.36 61.7067 16.76 62.88 17.56C64.0533 18.36 64.8733 19.4667 65.34 20.88H62.12C61.8 20.2133 61.3467 19.7133 60.76 19.38C60.1867 19.0467 59.52 18.88 58.76 18.88C57.9467 18.88 57.22 19.0733 56.58 19.46C55.9533 19.8333 55.46 20.3667 55.1 21.06C54.7533 21.7533 54.58 22.5667 54.58 23.5C54.58 24.42 54.7533 25.2333 55.1 25.94C55.46 26.6333 55.9533 27.1733 56.58 27.56C57.22 27.9333 57.9467 28.12 58.76 28.12C59.52 28.12 60.1867 27.9533 60.76 27.62C61.3467 27.2733 61.8 26.7667 62.12 26.1H65.34C64.8733 27.5267 64.0533 28.64 62.88 29.44C61.72 30.2267 60.3533 30.62 58.78 30.62C57.4467 30.62 56.24 30.32 55.16 29.72C54.0933 29.1067 53.2467 28.26 52.62 27.18C52.0067 26.1 51.7 24.8733 51.7 23.5ZM72.6516 30.68C71.5849 30.68 70.6249 30.4467 69.7716 29.98C68.9182 29.5 68.2449 28.8267 67.7516 27.96C67.2716 27.0933 67.0316 26.0933 67.0316 24.96C67.0316 23.8267 67.2782 22.8267 67.7716 21.96C68.2782 21.0933 68.9649 20.4267 69.8316 19.96C70.6982 19.48 71.6649 19.24 72.7316 19.24C73.7982 19.24 74.7649 19.48 75.6316 19.96C76.4982 20.4267 77.1782 21.0933 77.6716 21.96C78.1782 22.8267 78.4316 23.8267 78.4316 24.96C78.4316 26.0933 78.1716 27.0933 77.6516 27.96C77.1449 28.8267 76.4516 29.5 75.5716 29.98C74.7049 30.4467 73.7316 30.68 72.6516 30.68ZM72.6516 28.24C73.1582 28.24 73.6316 28.12 74.0716 27.88C74.5249 27.6267 74.8849 27.2533 75.1516 26.76C75.4182 26.2667 75.5516 25.6667 75.5516 24.96C75.5516 23.9067 75.2716 23.1 74.7116 22.54C74.1649 21.9667 73.4916 21.68 72.6916 21.68C71.8916 21.68 71.2182 21.9667 70.6716 22.54C70.1382 23.1 69.8716 23.9067 69.8716 24.96C69.8716 26.0133 70.1316 26.8267 70.6516 27.4C71.1849 27.96 71.8516 28.24 72.6516 28.24ZM86.6255 19.26C87.9455 19.26 89.0121 19.68 89.8255 20.52C90.6388 21.3467 91.0455 22.5067 91.0455 24V30.5H88.2455V24.38C88.2455 23.5 88.0255 22.8267 87.5855 22.36C87.1455 21.88 86.5455 21.64 85.7855 21.64C85.0121 21.64 84.3988 21.88 83.9455 22.36C83.5055 22.8267 83.2855 23.5 83.2855 24.38V30.5H80.4855V19.42H83.2855V20.8C83.6588 20.32 84.1321 19.9467 84.7055 19.68C85.2921 19.4 85.9321 19.26 86.6255 19.26ZM96.9681 21.72V27.08C96.9681 27.4533 97.0548 27.7267 97.2281 27.9C97.4148 28.06 97.7215 28.14 98.1481 28.14H99.4481V30.5H97.6881C95.3281 30.5 94.1481 29.3533 94.1481 27.06V21.72H92.8281V19.42H94.1481V16.68H96.9681V19.42H99.4481V21.72H96.9681ZM102.882 18.1C102.389 18.1 101.975 17.9467 101.642 17.64C101.322 17.32 101.162 16.9267 101.162 16.46C101.162 15.9933 101.322 15.6067 101.642 15.3C101.975 14.98 102.389 14.82 102.882 14.82C103.375 14.82 103.782 14.98 104.102 15.3C104.435 15.6067 104.602 15.9933 104.602 16.46C104.602 16.9267 104.435 17.32 104.102 17.64C103.782 17.9467 103.375 18.1 102.882 18.1ZM104.262 19.42V30.5H101.462V19.42H104.262ZM113.168 19.26C114.488 19.26 115.555 19.68 116.368 20.52C117.182 21.3467 117.588 22.5067 117.588 24V30.5H114.788V24.38C114.788 23.5 114.568 22.8267 114.128 22.36C113.688 21.88 113.088 21.64 112.328 21.64C111.555 21.64 110.942 21.88 110.488 22.36C110.048 22.8267 109.828 23.5 109.828 24.38V30.5H107.028V19.42H109.828V20.8C110.202 20.32 110.675 19.9467 111.248 19.68C111.835 19.4 112.475 19.26 113.168 19.26ZM130.711 19.42V30.5H127.891V29.1C127.531 29.58 127.058 29.96 126.471 30.24C125.898 30.5067 125.271 30.64 124.591 30.64C123.724 30.64 122.958 30.46 122.291 30.1C121.624 29.7267 121.098 29.1867 120.711 28.48C120.338 27.76 120.151 26.9067 120.151 25.92V19.42H122.951V25.52C122.951 26.4 123.171 27.08 123.611 27.56C124.051 28.0267 124.651 28.26 125.411 28.26C126.184 28.26 126.791 28.0267 127.231 27.56C127.671 27.08 127.891 26.4 127.891 25.52V19.42H130.711ZM143.774 24.72C143.774 25.12 143.747 25.48 143.694 25.8H135.594C135.66 26.6 135.94 27.2267 136.434 27.68C136.927 28.1333 137.534 28.36 138.254 28.36C139.294 28.36 140.034 27.9133 140.474 27.02H143.494C143.174 28.0867 142.56 28.9667 141.654 29.66C140.747 30.34 139.634 30.68 138.314 30.68C137.247 30.68 136.287 30.4467 135.434 29.98C134.594 29.5 133.934 28.8267 133.454 27.96C132.987 27.0933 132.754 26.0933 132.754 24.96C132.754 23.8133 132.987 22.8067 133.454 21.94C133.92 21.0733 134.574 20.4067 135.414 19.94C136.254 19.4733 137.22 19.24 138.314 19.24C139.367 19.24 140.307 19.4667 141.134 19.92C141.974 20.3733 142.62 21.02 143.074 21.86C143.54 22.6867 143.774 23.64 143.774 24.72ZM140.874 23.92C140.86 23.2 140.6 22.6267 140.094 22.2C139.587 21.76 138.967 21.54 138.234 21.54C137.54 21.54 136.954 21.7533 136.474 22.18C136.007 22.5933 135.72 23.1733 135.614 23.92H140.874ZM153.843 21.72V27.08C153.843 27.4533 153.93 27.7267 154.103 27.9C154.29 28.06 154.596 28.14 155.023 28.14H156.323V30.5H154.563C152.203 30.5 151.023 29.3533 151.023 27.06V21.72H149.703V19.42H151.023V16.68H153.843V19.42H156.323V21.72H153.843ZM163.257 30.68C162.19 30.68 161.23 30.4467 160.377 29.98C159.524 29.5 158.85 28.8267 158.357 27.96C157.877 27.0933 157.637 26.0933 157.637 24.96C157.637 23.8267 157.884 22.8267 158.377 21.96C158.884 21.0933 159.57 20.4267 160.437 19.96C161.304 19.48 162.27 19.24 163.337 19.24C164.404 19.24 165.37 19.48 166.237 19.96C167.104 20.4267 167.784 21.0933 168.277 21.96C168.784 22.8267 169.037 23.8267 169.037 24.96C169.037 26.0933 168.777 27.0933 168.257 27.96C167.75 28.8267 167.057 29.5 166.177 29.98C165.31 30.4467 164.337 30.68 163.257 30.68ZM163.257 28.24C163.764 28.24 164.237 28.12 164.677 27.88C165.13 27.6267 165.49 27.2533 165.757 26.76C166.024 26.2667 166.157 25.6667 166.157 24.96C166.157 23.9067 165.877 23.1 165.317 22.54C164.77 21.9667 164.097 21.68 163.297 21.68C162.497 21.68 161.824 21.9667 161.277 22.54C160.744 23.1 160.477 23.9067 160.477 24.96C160.477 26.0133 160.737 26.8267 161.257 27.4C161.79 27.96 162.457 28.24 163.257 28.24ZM178.657 28.28H183.257V30.5H175.857V16.54H178.657V28.28ZM189.956 30.68C188.89 30.68 187.93 30.4467 187.076 29.98C186.223 29.5 185.55 28.8267 185.056 27.96C184.576 27.0933 184.336 26.0933 184.336 24.96C184.336 23.8267 184.583 22.8267 185.076 21.96C185.583 21.0933 186.27 20.4267 187.136 19.96C188.003 19.48 188.97 19.24 190.036 19.24C191.103 19.24 192.07 19.48 192.936 19.96C193.803 20.4267 194.483 21.0933 194.976 21.96C195.483 22.8267 195.736 23.8267 195.736 24.96C195.736 26.0933 195.476 27.0933 194.956 27.96C194.45 28.8267 193.756 29.5 192.876 29.98C192.01 30.4467 191.036 30.68 189.956 30.68ZM189.956 28.24C190.463 28.24 190.936 28.12 191.376 27.88C191.83 27.6267 192.19 27.2533 192.456 26.76C192.723 26.2667 192.856 25.6667 192.856 24.96C192.856 23.9067 192.576 23.1 192.016 22.54C191.47 21.9667 190.796 21.68 189.996 21.68C189.196 21.68 188.523 21.9667 187.976 22.54C187.443 23.1 187.176 23.9067 187.176 24.96C187.176 26.0133 187.436 26.8267 187.956 27.4C188.49 27.96 189.156 28.24 189.956 28.24ZM202.13 19.24C202.957 19.24 203.683 19.4067 204.31 19.74C204.937 20.06 205.43 20.48 205.79 21V19.42H208.61V30.58C208.61 31.6067 208.403 32.52 207.99 33.32C207.577 34.1333 206.957 34.7733 206.13 35.24C205.303 35.72 204.303 35.96 203.13 35.96C201.557 35.96 200.263 35.5933 199.25 34.86C198.25 34.1267 197.683 33.1267 197.55 31.86H200.33C200.477 32.3667 200.79 32.7667 201.27 33.06C201.763 33.3667 202.357 33.52 203.05 33.52C203.863 33.52 204.523 33.2733 205.03 32.78C205.537 32.3 205.79 31.5667 205.79 30.58V28.86C205.43 29.38 204.93 29.8133 204.29 30.16C203.663 30.5067 202.943 30.68 202.13 30.68C201.197 30.68 200.343 30.44 199.57 29.96C198.797 29.48 198.183 28.8067 197.73 27.94C197.29 27.06 197.07 26.0533 197.07 24.92C197.07 23.8 197.29 22.8067 197.73 21.94C198.183 21.0733 198.79 20.4067 199.55 19.94C200.323 19.4733 201.183 19.24 202.13 19.24ZM205.79 24.96C205.79 24.28 205.657 23.7 205.39 23.22C205.123 22.7267 204.763 22.3533 204.31 22.1C203.857 21.8333 203.37 21.7 202.85 21.7C202.33 21.7 201.85 21.8267 201.41 22.08C200.97 22.3333 200.61 22.7067 200.33 23.2C200.063 23.68 199.93 24.2533 199.93 24.92C199.93 25.5867 200.063 26.1733 200.33 26.68C200.61 27.1733 200.97 27.5533 201.41 27.82C201.863 28.0867 202.343 28.22 202.85 28.22C203.37 28.22 203.857 28.0933 204.31 27.84C204.763 27.5733 205.123 27.2 205.39 26.72C205.657 26.2267 205.79 25.64 205.79 24.96ZM212.765 18.1C212.272 18.1 211.858 17.9467 211.525 17.64C211.205 17.32 211.045 16.9267 211.045 16.46C211.045 15.9933 211.205 15.6067 211.525 15.3C211.858 14.98 212.272 14.82 212.765 14.82C213.258 14.82 213.665 14.98 213.985 15.3C214.318 15.6067 214.485 15.9933 214.485 16.46C214.485 16.9267 214.318 17.32 213.985 17.64C213.665 17.9467 213.258 18.1 212.765 18.1ZM214.145 19.42V30.5H211.345V19.42H214.145ZM223.051 19.26C224.371 19.26 225.438 19.68 226.251 20.52C227.065 21.3467 227.471 22.5067 227.471 24V30.5H224.671V24.38C224.671 23.5 224.451 22.8267 224.011 22.36C223.571 21.88 222.971 21.64 222.211 21.64C221.438 21.64 220.825 21.88 220.371 22.36C219.931 22.8267 219.711 23.5 219.711 24.38V30.5H216.911V19.42H219.711V20.8C220.085 20.32 220.558 19.9467 221.131 19.68C221.718 19.4 222.358 19.26 223.051 19.26Z" fill="white"/>
</svg>
