<svg width="171" height="65" viewBox="0 0 171 65" fill="none" xmlns="http://www.w3.org/2000/svg">
<path d="M72.8433 0H91.7559C99.2906 0 103.058 2.93297 103.058 8.79891V18.862C103.058 24.728 99.2906 27.6609 91.7559 27.6609H79.1896V45.2588H72.8685V0H72.8433ZM89.2274 22.6294C94.259 22.6294 96.7621 20.9606 96.7621 17.5978V10.0631C96.7621 6.70032 94.259 5.03156 89.2274 5.03156H79.1643V22.6294H89.2274Z" fill="#E62F24"/>
<path d="M108.089 45.2588V0H114.385V18.9632L128.62 0H135.902L122.881 18.1794L137.116 45.2588H129.707L118.785 23.4385L114.385 29.4056V45.2588H108.089Z" fill="#E62F24"/>
<path d="M140.705 0H159.617C167.152 0 170.919 2.93297 170.919 8.79891V18.862C170.919 24.728 167.152 27.6609 159.617 27.6609H147.051V45.2588H140.73V0H140.705ZM157.114 22.6294C162.146 22.6294 164.649 20.9606 164.649 17.5978V10.0631C164.649 6.70032 162.146 5.03156 157.114 5.03156H147.051V22.6294H157.114Z" fill="#E62F24"/>
<path d="M81.3028 61.9277C81.3028 63.4476 79.8843 64.2328 77.0726 64.2328C74.2608 64.2328 72.8423 63.4729 72.8423 61.9277V53.4418C72.8423 51.922 74.2608 51.1367 77.0726 51.1367C79.8843 51.1367 81.3028 51.8966 81.3028 53.4418V55.215H79.5297V53.7965C79.5297 52.9605 78.6937 52.5552 77.0472 52.5552C75.4007 52.5552 74.5648 52.9605 74.5648 53.7965V61.5731C74.5648 62.409 75.4007 62.8143 77.0472 62.8143C78.6937 62.8143 79.5297 62.409 79.5297 61.5731V60.1545H81.3028V61.9277Z" fill="black"/>
<path d="M91.1827 61.9277C91.1827 63.4476 89.7642 64.2328 86.9524 64.2328C84.1407 64.2328 82.7222 63.4729 82.7222 61.9277V53.4418C82.7222 51.922 84.1407 51.1367 86.9524 51.1367C89.7642 51.1367 91.1827 51.8966 91.1827 53.4418V61.9277ZM89.4096 53.7965C89.4096 52.9605 88.5736 52.5552 86.9271 52.5552C85.2806 52.5552 84.4447 52.9605 84.4447 53.7965V61.5731C84.4447 62.3837 85.2806 62.8143 86.9271 62.8143C88.5736 62.8143 89.4096 62.409 89.4096 61.5731V53.7965Z" fill="black"/>
<path d="M104.253 64.056H102.48V55.2155L99.4653 64.056H97.3628L94.3484 55.2155V64.056H92.6006V51.3398H95.0577L98.4014 61.3963L101.77 51.3398H104.253V64.056Z" fill="black"/>
<path d="M105.646 51.3398H110.966C113.094 51.3398 114.132 52.1758 114.132 53.8223V56.634C114.132 58.2805 113.068 59.1165 110.966 59.1165H107.445V64.056H105.672V51.3398H105.646ZM110.231 57.6979C111.65 57.6979 112.359 57.2166 112.359 56.2794V54.1516C112.359 53.2143 111.65 52.733 110.231 52.733H107.394V57.6726H110.231V57.6979Z" fill="black"/>
<path d="M124.012 61.9277C124.012 63.4476 122.593 64.2328 119.782 64.2328C116.97 64.2328 115.551 63.4729 115.551 61.9277V53.4418C115.551 51.922 116.97 51.1367 119.782 51.1367C122.593 51.1367 124.012 51.8966 124.012 53.4418V61.9277ZM122.239 53.7965C122.239 52.9605 121.403 52.5552 119.756 52.5552C118.11 52.5552 117.274 52.9605 117.274 53.7965V61.5731C117.274 62.3837 118.11 62.8143 119.756 62.8143C121.403 62.8143 122.239 62.409 122.239 61.5731V53.7965Z" fill="black"/>
<path d="M127.532 51.3398L131.433 60.5097V51.3398H133.181V64.056H131.079L127.178 54.8609V64.056H125.43V51.3398H127.532Z" fill="black"/>
<path d="M136.373 52.7584V56.8113H140.78V58.2299H136.373V62.6375H141.667V64.056H134.6V51.3398H141.667V52.7584H136.373Z" fill="black"/>
<path d="M145.188 51.3398L149.089 60.5097V51.3398H150.837V64.056H148.734L144.833 54.8609V64.056H143.085V51.3398H145.188Z" fill="black"/>
<path d="M155.775 64.056V52.7584H152.254V51.3398H161.07V52.7584H157.549V64.056H155.775Z" fill="black"/>
<path d="M165.883 56.203L167.58 56.4563C169.835 56.8109 170.975 57.6975 170.975 59.116V61.9531C170.975 63.473 169.556 64.2582 166.744 64.2582C163.933 64.2582 162.514 63.4983 162.514 61.9531V60.1799H164.287V61.5985C164.287 62.4091 165.123 62.8397 166.77 62.8397C168.416 62.8397 169.252 62.4344 169.252 61.5985V59.4707C169.252 58.7614 168.72 58.3308 167.631 58.1535L165.934 57.9002C163.679 57.5455 162.539 56.7856 162.539 55.595V53.4672C162.539 51.9474 163.958 51.1621 166.77 51.1621C169.582 51.1621 171 51.922 171 53.4672V55.2404H169.227V53.8219C169.227 52.9859 168.391 52.5806 166.744 52.5806C165.098 52.5806 164.262 52.9859 164.262 53.8219V54.8858C164.262 55.595 164.794 56.0257 165.883 56.203Z" fill="black"/>
<path d="M45.612 23.0625H19.1353V26.1991H45.612V23.0625Z" fill="#E62F24"/>
<path d="M45.612 27.3516H19.1353V30.4882H45.612V27.3516Z" fill="#E62F24"/>
<path d="M45.612 31.6855H19.1353V34.8222H45.612V31.6855Z" fill="#E62F24"/>
<path d="M45.612 36.2539H19.1353V39.3905H45.612V36.2539Z" fill="#E62F24"/>
<path fill-rule="evenodd" clip-rule="evenodd" d="M62.0809 19.3733C57.1915 7.97994 45.8443 0 32.6521 0C19.4598 0 8.11259 7.97994 3.22314 19.3733H62.1271H62.0809Z" fill="#E62F24"/>
<path fill-rule="evenodd" clip-rule="evenodd" d="M62.1259 44.6934C57.2364 56.0867 45.8892 64.0666 32.697 64.0666C19.5047 64.0666 8.15751 56.0867 3.26807 44.6934H62.172H62.1259Z" fill="#E62F24"/>
<path fill-rule="evenodd" clip-rule="evenodd" d="M1.65332 23.8928C1.69945 23.616 1.74557 23.3854 1.88396 23.0625H63.4171C63.5555 23.3854 63.6016 23.6621 63.6477 23.8928H1.65332Z" fill="#E62F24"/>
<path fill-rule="evenodd" clip-rule="evenodd" d="M0.869629 28.1818C0.869629 28.1818 0.869627 27.6745 0.96188 27.3516H64.3862C64.4324 27.6745 64.4785 27.9973 64.4785 28.1818H0.869629Z" fill="#E62F24"/>
<path fill-rule="evenodd" clip-rule="evenodd" d="M0.593487 32.469C0.593487 32.1461 0.593487 31.8693 0.593487 31.6387H64.6636C64.6636 31.8693 64.6636 32.1461 64.6636 32.469H0.547363H0.593487Z" fill="#E62F24"/>
<path fill-rule="evenodd" clip-rule="evenodd" d="M1.00801 37.0842C0.915754 36.8536 0.869629 36.4384 0.869629 36.2539H64.3862C64.3862 36.2539 64.3401 36.8536 64.2479 37.0842H0.96188H1.00801Z" fill="#E62F24"/>
<path fill-rule="evenodd" clip-rule="evenodd" d="M1.97624 41.3779C1.88399 41.1473 1.83786 40.9166 1.74561 40.5938H63.5094C63.4172 40.9166 63.371 41.1934 63.2788 41.424H1.93011L1.97624 41.3779Z" fill="#E62F24"/>
</svg>
