<svg width="171" height="65" viewBox="0 0 171 65" fill="none" xmlns="http://www.w3.org/2000/svg">
<path d="M72.8428 0H91.7554C99.2901 0 103.057 2.93297 103.057 8.79891V18.862C103.057 24.728 99.2901 27.6609 91.7554 27.6609H79.1891V45.2588H72.8681V0H72.8428ZM89.227 22.6294C94.2585 22.6294 96.7617 20.9606 96.7617 17.5978V10.0631C96.7617 6.70032 94.2585 5.03156 89.227 5.03156H79.1638V22.6294H89.227Z" fill="#E62F24"/>
<path d="M108.089 45.2588V0H114.385V18.9632L128.62 0H135.902L122.88 18.1794L137.115 45.2588H129.707L118.784 23.4385L114.385 29.4056V45.2588H108.089Z" fill="#E62F24"/>
<path d="M140.704 0H159.617C167.151 0 170.919 2.93297 170.919 8.79891V18.862C170.919 24.728 167.151 27.6609 159.617 27.6609H147.05V45.2588H140.729V0H140.704ZM157.114 22.6294C162.145 22.6294 164.648 20.9606 164.648 17.5978V10.0631C164.648 6.70032 162.145 5.03156 157.114 5.03156H147.05V22.6294H157.114Z" fill="#E62F24"/>
<path d="M81.3024 61.9277C81.3024 63.4476 79.8838 64.2328 77.0721 64.2328C74.2603 64.2328 72.8418 63.4729 72.8418 61.9277V53.4418C72.8418 51.922 74.2603 51.1367 77.0721 51.1367C79.8838 51.1367 81.3024 51.8966 81.3024 53.4418V55.215H79.5292V53.7965C79.5292 52.9605 78.6933 52.5552 77.0467 52.5552C75.4002 52.5552 74.5643 52.9605 74.5643 53.7965V61.5731C74.5643 62.409 75.4002 62.8143 77.0467 62.8143C78.6933 62.8143 79.5292 62.409 79.5292 61.5731V60.1545H81.3024V61.9277Z" fill="black"/>
<path d="M91.1822 61.9277C91.1822 63.4476 89.7637 64.2328 86.952 64.2328C84.1402 64.2328 82.7217 63.4729 82.7217 61.9277V53.4418C82.7217 51.922 84.1402 51.1367 86.952 51.1367C89.7637 51.1367 91.1822 51.8966 91.1822 53.4418V61.9277ZM89.4091 53.7965C89.4091 52.9605 88.5731 52.5552 86.9266 52.5552C85.2801 52.5552 84.4442 52.9605 84.4442 53.7965V61.5731C84.4442 62.3837 85.2801 62.8143 86.9266 62.8143C88.5731 62.8143 89.4091 62.409 89.4091 61.5731V53.7965Z" fill="black"/>
<path d="M104.253 64.056H102.48V55.2155L99.4653 64.056H97.3628L94.3484 55.2155V64.056H92.6006V51.3398H95.0577L98.4014 61.3963L101.77 51.3398H104.253V64.056Z" fill="black"/>
<path d="M105.646 51.3398H110.966C113.094 51.3398 114.132 52.1758 114.132 53.8223V56.634C114.132 58.2805 113.068 59.1165 110.966 59.1165H107.445V64.056H105.672V51.3398H105.646ZM110.231 57.6979C111.65 57.6979 112.359 57.2166 112.359 56.2794V54.1516C112.359 53.2143 111.65 52.733 110.231 52.733H107.394V57.6726H110.231V57.6979Z" fill="black"/>
<path d="M124.011 61.9277C124.011 63.4476 122.593 64.2328 119.781 64.2328C116.969 64.2328 115.551 63.4729 115.551 61.9277V53.4418C115.551 51.922 116.969 51.1367 119.781 51.1367C122.593 51.1367 124.011 51.8966 124.011 53.4418V61.9277ZM122.238 53.7965C122.238 52.9605 121.402 52.5552 119.756 52.5552C118.109 52.5552 117.273 52.9605 117.273 53.7965V61.5731C117.273 62.3837 118.109 62.8143 119.756 62.8143C121.402 62.8143 122.238 62.409 122.238 61.5731V53.7965Z" fill="black"/>
<path d="M127.531 51.3398L131.432 60.5097V51.3398H133.18V64.056H131.078L127.177 54.8609V64.056H125.429V51.3398H127.531Z" fill="black"/>
<path d="M136.373 52.7584V56.8113H140.78V58.2299H136.373V62.6375H141.667V64.056H134.6V51.3398H141.667V52.7584H136.373Z" fill="black"/>
<path d="M145.187 51.3398L149.088 60.5097V51.3398H150.836V64.056H148.734L144.833 54.8609V64.056H143.085V51.3398H145.187Z" fill="black"/>
<path d="M155.775 64.056V52.7584H152.254V51.3398H161.069V52.7584H157.548V64.056H155.775Z" fill="black"/>
<path d="M165.883 56.203L167.58 56.4563C169.834 56.8109 170.974 57.6975 170.974 59.116V61.9531C170.974 63.473 169.556 64.2582 166.744 64.2582C163.932 64.2582 162.514 63.4983 162.514 61.9531V60.1799H164.287V61.5985C164.287 62.4091 165.123 62.8397 166.769 62.8397C168.416 62.8397 169.252 62.4344 169.252 61.5985V59.4707C169.252 58.7614 168.72 58.3308 167.631 58.1535L165.933 57.9002C163.679 57.5455 162.539 56.7856 162.539 55.595V53.4672C162.539 51.9474 163.958 51.1621 166.769 51.1621C169.581 51.1621 171 51.922 171 53.4672V55.2404H169.226V53.8219C169.226 52.9859 168.39 52.5806 166.744 52.5806C165.097 52.5806 164.262 52.9859 164.262 53.8219V54.8858C164.262 55.595 164.793 56.0257 165.883 56.203Z" fill="black"/>
<path d="M45.6115 23.0625H19.1348V26.1991H45.6115V23.0625Z" fill="#E62F24"/>
<path d="M45.6115 27.3516H19.1348V30.4882H45.6115V27.3516Z" fill="#E62F24"/>
<path d="M45.6115 31.6855H19.1348V34.8222H45.6115V31.6855Z" fill="#E62F24"/>
<path d="M45.6115 36.2539H19.1348V39.3905H45.6115V36.2539Z" fill="#E62F24"/>
<path fill-rule="evenodd" clip-rule="evenodd" d="M62.0805 19.3733C57.191 7.97994 45.8438 0 32.6516 0C19.4593 0 8.1121 7.97994 3.22266 19.3733H62.1266H62.0805Z" fill="#E62F24"/>
<path fill-rule="evenodd" clip-rule="evenodd" d="M62.1254 44.6934C57.2359 56.0867 45.8888 64.0666 32.6965 64.0666C19.5042 64.0666 8.15702 56.0867 3.26758 44.6934H62.1715H62.1254Z" fill="#E62F24"/>
<path fill-rule="evenodd" clip-rule="evenodd" d="M1.65332 23.8928C1.69945 23.616 1.74557 23.3854 1.88396 23.0625H63.4171C63.5555 23.3854 63.6016 23.6621 63.6477 23.8928H1.65332Z" fill="#E62F24"/>
<path fill-rule="evenodd" clip-rule="evenodd" d="M0.869141 28.1818C0.869141 28.1818 0.869138 27.6745 0.961392 27.3516H64.3857C64.4319 27.6745 64.478 27.9973 64.478 28.1818H0.869141Z" fill="#E62F24"/>
<path fill-rule="evenodd" clip-rule="evenodd" d="M0.592998 32.469C0.592998 32.1461 0.592998 31.8693 0.592998 31.6387H64.6631C64.6631 31.8693 64.6631 32.1461 64.6631 32.469H0.546875H0.592998Z" fill="#E62F24"/>
<path fill-rule="evenodd" clip-rule="evenodd" d="M1.00752 37.0842C0.915266 36.8536 0.869141 36.4384 0.869141 36.2539H64.3857C64.3857 36.2539 64.3396 36.8536 64.2474 37.0842H0.961392H1.00752Z" fill="#E62F24"/>
<path fill-rule="evenodd" clip-rule="evenodd" d="M1.97575 41.3779C1.8835 41.1473 1.83737 40.9166 1.74512 40.5938H63.5089C63.4167 40.9166 63.3705 41.1934 63.2783 41.424H1.92962L1.97575 41.3779Z" fill="#E62F24"/>
</svg>
