<svg width="229" height="269" viewBox="0 0 229 269" fill="none" xmlns="http://www.w3.org/2000/svg">
<rect x="1" y="16" width="226.411" height="251.322" rx="13" stroke="#F37F7C" stroke-width="2"/>
<path d="M85.14 172.96V187H81.72V178.58L78.58 187H75.82L72.66 178.56V187H69.24V172.96H73.28L77.22 182.68L81.12 172.96H85.14ZM86.9194 181.4C86.9194 180.253 87.1327 179.247 87.5594 178.38C87.9994 177.513 88.5927 176.847 89.3394 176.38C90.086 175.913 90.9194 175.68 91.8394 175.68C92.626 175.68 93.3127 175.84 93.8994 176.16C94.4994 176.48 94.9594 176.9 95.2794 177.42V175.84H98.6994V187H95.2794V185.42C94.946 185.94 94.4794 186.36 93.8794 186.68C93.2927 187 92.606 187.16 91.8194 187.16C90.9127 187.16 90.086 186.927 89.3394 186.46C88.5927 185.98 87.9994 185.307 87.5594 184.44C87.1327 183.56 86.9194 182.547 86.9194 181.4ZM95.2794 181.42C95.2794 180.567 95.0394 179.893 94.5594 179.4C94.0927 178.907 93.5194 178.66 92.8394 178.66C92.1594 178.66 91.5794 178.907 91.0994 179.4C90.6327 179.88 90.3994 180.547 90.3994 181.4C90.3994 182.253 90.6327 182.933 91.0994 183.44C91.5794 183.933 92.1594 184.18 92.8394 184.18C93.5194 184.18 94.0927 183.933 94.5594 183.44C95.0394 182.947 95.2794 182.273 95.2794 181.42ZM107.974 175.72C109.28 175.72 110.32 176.147 111.094 177C111.88 177.84 112.274 179 112.274 180.48V187H108.874V180.94C108.874 180.193 108.68 179.613 108.294 179.2C107.907 178.787 107.387 178.58 106.734 178.58C106.08 178.58 105.56 178.787 105.174 179.2C104.787 179.613 104.594 180.193 104.594 180.94V187H101.174V175.84H104.594V177.32C104.94 176.827 105.407 176.44 105.994 176.16C106.58 175.867 107.24 175.72 107.974 175.72ZM113.97 181.4C113.97 180.253 114.183 179.247 114.61 178.38C115.05 177.513 115.643 176.847 116.39 176.38C117.137 175.913 117.97 175.68 118.89 175.68C119.677 175.68 120.363 175.84 120.95 176.16C121.55 176.48 122.01 176.9 122.33 177.42V175.84H125.75V187H122.33V185.42C121.997 185.94 121.53 186.36 120.93 186.68C120.343 187 119.657 187.16 118.87 187.16C117.963 187.16 117.137 186.927 116.39 186.46C115.643 185.98 115.05 185.307 114.61 184.44C114.183 183.56 113.97 182.547 113.97 181.4ZM122.33 181.42C122.33 180.567 122.09 179.893 121.61 179.4C121.143 178.907 120.57 178.66 119.89 178.66C119.21 178.66 118.63 178.907 118.15 179.4C117.683 179.88 117.45 180.547 117.45 181.4C117.45 182.253 117.683 182.933 118.15 183.44C118.63 183.933 119.21 184.18 119.89 184.18C120.57 184.18 121.143 183.933 121.61 183.44C122.09 182.947 122.33 182.273 122.33 181.42ZM132.464 175.68C133.251 175.68 133.938 175.84 134.524 176.16C135.124 176.48 135.584 176.9 135.904 177.42V175.84H139.324V186.98C139.324 188.007 139.118 188.933 138.704 189.76C138.304 190.6 137.684 191.267 136.844 191.76C136.018 192.253 134.984 192.5 133.744 192.5C132.091 192.5 130.751 192.107 129.724 191.32C128.698 190.547 128.111 189.493 127.964 188.16H131.344C131.451 188.587 131.704 188.92 132.104 189.16C132.504 189.413 132.998 189.54 133.584 189.54C134.291 189.54 134.851 189.333 135.264 188.92C135.691 188.52 135.904 187.873 135.904 186.98V185.4C135.571 185.92 135.111 186.347 134.524 186.68C133.938 187 133.251 187.16 132.464 187.16C131.544 187.16 130.711 186.927 129.964 186.46C129.218 185.98 128.624 185.307 128.184 184.44C127.758 183.56 127.544 182.547 127.544 181.4C127.544 180.253 127.758 179.247 128.184 178.38C128.624 177.513 129.218 176.847 129.964 176.38C130.711 175.913 131.544 175.68 132.464 175.68ZM135.904 181.42C135.904 180.567 135.664 179.893 135.184 179.4C134.718 178.907 134.144 178.66 133.464 178.66C132.784 178.66 132.204 178.907 131.724 179.4C131.258 179.88 131.024 180.547 131.024 181.4C131.024 182.253 131.258 182.933 131.724 183.44C132.204 183.933 132.784 184.18 133.464 184.18C134.144 184.18 134.718 183.933 135.184 183.44C135.664 182.947 135.904 182.273 135.904 181.42ZM152.319 181.24C152.319 181.56 152.299 181.893 152.259 182.24H144.519C144.572 182.933 144.792 183.467 145.179 183.84C145.579 184.2 146.065 184.38 146.639 184.38C147.492 184.38 148.085 184.02 148.419 183.3H152.059C151.872 184.033 151.532 184.693 151.039 185.28C150.559 185.867 149.952 186.327 149.219 186.66C148.485 186.993 147.665 187.16 146.759 187.16C145.665 187.16 144.692 186.927 143.839 186.46C142.985 185.993 142.319 185.327 141.839 184.46C141.359 183.593 141.119 182.58 141.119 181.42C141.119 180.26 141.352 179.247 141.819 178.38C142.299 177.513 142.965 176.847 143.819 176.38C144.672 175.913 145.652 175.68 146.759 175.68C147.839 175.68 148.799 175.907 149.639 176.36C150.479 176.813 151.132 177.46 151.599 178.3C152.079 179.14 152.319 180.12 152.319 181.24ZM148.819 180.34C148.819 179.753 148.619 179.287 148.219 178.94C147.819 178.593 147.319 178.42 146.719 178.42C146.145 178.42 145.659 178.587 145.259 178.92C144.872 179.253 144.632 179.727 144.539 180.34H148.819ZM157.543 177.7C157.943 177.087 158.443 176.607 159.043 176.26C159.643 175.9 160.309 175.72 161.043 175.72V179.34H160.103C159.249 179.34 158.609 179.527 158.183 179.9C157.756 180.26 157.543 180.9 157.543 181.82V187H154.123V175.84H157.543V177.7Z" fill="#F37F7C"/>
<g clip-path="url(#clip0_1429_13974)">
<path d="M86.1152 158C83.7205 157.422 81.5305 155.464 81.1886 152.931C79.506 140.481 89.3949 135.919 99.4636 132.985C100.6 132.653 102.341 131.823 103.199 132.974L109.614 150.544L111.434 141.334L108.45 132.282C108.352 131.488 109.044 130.662 109.821 130.543C112.607 130.111 116.435 130.841 119.334 130.543C120.703 130.989 120.837 131.741 120.516 133.018C119.831 135.746 118.41 138.567 117.719 141.334L119.539 150.544L125.61 133.677C126.278 131.597 128.178 132.544 129.689 132.985C136.469 134.961 145.614 138.387 147.542 145.966L147.998 147.928V153.029C147.355 155.587 145.591 157.356 143.038 157.998H86.1152V158Z" fill="#F37F7C"/>
<path d="M114.576 127.6C124.666 127.6 132.844 119.407 132.844 109.3C132.844 99.1932 124.666 91 114.576 91C104.487 91 96.3086 99.1932 96.3086 109.3C96.3086 119.407 104.487 127.6 114.576 127.6Z" fill="#F37F7C"/>
</g>
<circle cx="114.364" cy="15.3641" r="15.3641" fill="white"/>
<path d="M114.364 0C105.883 0 99 6.88311 99 15.3641C99 23.845 105.883 30.7281 114.364 30.7281C122.845 30.7281 129.728 23.845 129.728 15.3641C129.728 6.88311 122.845 0 114.364 0ZM110.2 21.9553L104.685 16.4396C104.086 15.8404 104.086 14.8724 104.685 14.2732C105.284 13.674 106.252 13.674 106.851 14.2732L111.291 18.6981L121.862 8.1276C122.461 7.5284 123.429 7.5284 124.028 8.1276C124.627 8.72679 124.627 9.69473 124.028 10.2939L112.367 21.9553C111.783 22.5545 110.8 22.5545 110.2 21.9553Z" fill="#EB2A25" fill-opacity="0.6"/>
<defs>
<clipPath id="clip0_1429_13974">
<rect width="67" height="67" fill="white" transform="translate(81 91)"/>
</clipPath>
</defs>
</svg>
