<svg width="229" height="254" viewBox="0 0 229 254" fill="none" xmlns="http://www.w3.org/2000/svg">
<rect x="1" y="1.26367" width="226.411" height="251.322" rx="13" fill="white" stroke="#4763E4" stroke-width="2"/>
<path d="M85.14 157.96V172H81.72V163.58L78.58 172H75.82L72.66 163.56V172H69.24V157.96H73.28L77.22 167.68L81.12 157.96H85.14ZM86.9194 166.4C86.9194 165.253 87.1327 164.247 87.5594 163.38C87.9994 162.513 88.5927 161.847 89.3394 161.38C90.086 160.913 90.9194 160.68 91.8394 160.68C92.626 160.68 93.3127 160.84 93.8994 161.16C94.4994 161.48 94.9594 161.9 95.2794 162.42V160.84H98.6994V172H95.2794V170.42C94.946 170.94 94.4794 171.36 93.8794 171.68C93.2927 172 92.606 172.16 91.8194 172.16C90.9127 172.16 90.086 171.927 89.3394 171.46C88.5927 170.98 87.9994 170.307 87.5594 169.44C87.1327 168.56 86.9194 167.547 86.9194 166.4ZM95.2794 166.42C95.2794 165.567 95.0394 164.893 94.5594 164.4C94.0927 163.907 93.5194 163.66 92.8394 163.66C92.1594 163.66 91.5794 163.907 91.0994 164.4C90.6327 164.88 90.3994 165.547 90.3994 166.4C90.3994 167.253 90.6327 167.933 91.0994 168.44C91.5794 168.933 92.1594 169.18 92.8394 169.18C93.5194 169.18 94.0927 168.933 94.5594 168.44C95.0394 167.947 95.2794 167.273 95.2794 166.42ZM107.974 160.72C109.28 160.72 110.32 161.147 111.094 162C111.88 162.84 112.274 164 112.274 165.48V172H108.874V165.94C108.874 165.193 108.68 164.613 108.294 164.2C107.907 163.787 107.387 163.58 106.734 163.58C106.08 163.58 105.56 163.787 105.174 164.2C104.787 164.613 104.594 165.193 104.594 165.94V172H101.174V160.84H104.594V162.32C104.94 161.827 105.407 161.44 105.994 161.16C106.58 160.867 107.24 160.72 107.974 160.72ZM113.97 166.4C113.97 165.253 114.183 164.247 114.61 163.38C115.05 162.513 115.643 161.847 116.39 161.38C117.137 160.913 117.97 160.68 118.89 160.68C119.677 160.68 120.363 160.84 120.95 161.16C121.55 161.48 122.01 161.9 122.33 162.42V160.84H125.75V172H122.33V170.42C121.997 170.94 121.53 171.36 120.93 171.68C120.343 172 119.657 172.16 118.87 172.16C117.963 172.16 117.137 171.927 116.39 171.46C115.643 170.98 115.05 170.307 114.61 169.44C114.183 168.56 113.97 167.547 113.97 166.4ZM122.33 166.42C122.33 165.567 122.09 164.893 121.61 164.4C121.143 163.907 120.57 163.66 119.89 163.66C119.21 163.66 118.63 163.907 118.15 164.4C117.683 164.88 117.45 165.547 117.45 166.4C117.45 167.253 117.683 167.933 118.15 168.44C118.63 168.933 119.21 169.18 119.89 169.18C120.57 169.18 121.143 168.933 121.61 168.44C122.09 167.947 122.33 167.273 122.33 166.42ZM132.464 160.68C133.251 160.68 133.938 160.84 134.524 161.16C135.124 161.48 135.584 161.9 135.904 162.42V160.84H139.324V171.98C139.324 173.007 139.118 173.933 138.704 174.76C138.304 175.6 137.684 176.267 136.844 176.76C136.018 177.253 134.984 177.5 133.744 177.5C132.091 177.5 130.751 177.107 129.724 176.32C128.698 175.547 128.111 174.493 127.964 173.16H131.344C131.451 173.587 131.704 173.92 132.104 174.16C132.504 174.413 132.998 174.54 133.584 174.54C134.291 174.54 134.851 174.333 135.264 173.92C135.691 173.52 135.904 172.873 135.904 171.98V170.4C135.571 170.92 135.111 171.347 134.524 171.68C133.938 172 133.251 172.16 132.464 172.16C131.544 172.16 130.711 171.927 129.964 171.46C129.218 170.98 128.624 170.307 128.184 169.44C127.758 168.56 127.544 167.547 127.544 166.4C127.544 165.253 127.758 164.247 128.184 163.38C128.624 162.513 129.218 161.847 129.964 161.38C130.711 160.913 131.544 160.68 132.464 160.68ZM135.904 166.42C135.904 165.567 135.664 164.893 135.184 164.4C134.718 163.907 134.144 163.66 133.464 163.66C132.784 163.66 132.204 163.907 131.724 164.4C131.258 164.88 131.024 165.547 131.024 166.4C131.024 167.253 131.258 167.933 131.724 168.44C132.204 168.933 132.784 169.18 133.464 169.18C134.144 169.18 134.718 168.933 135.184 168.44C135.664 167.947 135.904 167.273 135.904 166.42ZM152.319 166.24C152.319 166.56 152.299 166.893 152.259 167.24H144.519C144.572 167.933 144.792 168.467 145.179 168.84C145.579 169.2 146.065 169.38 146.639 169.38C147.492 169.38 148.085 169.02 148.419 168.3H152.059C151.872 169.033 151.532 169.693 151.039 170.28C150.559 170.867 149.952 171.327 149.219 171.66C148.485 171.993 147.665 172.16 146.759 172.16C145.665 172.16 144.692 171.927 143.839 171.46C142.985 170.993 142.319 170.327 141.839 169.46C141.359 168.593 141.119 167.58 141.119 166.42C141.119 165.26 141.352 164.247 141.819 163.38C142.299 162.513 142.965 161.847 143.819 161.38C144.672 160.913 145.652 160.68 146.759 160.68C147.839 160.68 148.799 160.907 149.639 161.36C150.479 161.813 151.132 162.46 151.599 163.3C152.079 164.14 152.319 165.12 152.319 166.24ZM148.819 165.34C148.819 164.753 148.619 164.287 148.219 163.94C147.819 163.593 147.319 163.42 146.719 163.42C146.145 163.42 145.659 163.587 145.259 163.92C144.872 164.253 144.632 164.727 144.539 165.34H148.819ZM157.543 162.7C157.943 162.087 158.443 161.607 159.043 161.26C159.643 160.9 160.309 160.72 161.043 160.72V164.34H160.103C159.249 164.34 158.609 164.527 158.183 164.9C157.756 165.26 157.543 165.9 157.543 166.82V172H154.123V160.84H157.543V162.7Z" fill="#4763E4"/>
<g clip-path="url(#clip0_943_11739)">
<path d="M86.1152 143C83.7205 142.422 81.5305 140.464 81.1886 137.931C79.506 125.481 89.3949 120.919 99.4636 117.985C100.6 117.653 102.341 116.823 103.199 117.974L109.614 135.544L111.434 126.334L108.45 117.282C108.352 116.488 109.044 115.662 109.821 115.543C112.607 115.111 116.435 115.841 119.334 115.543C120.703 115.989 120.837 116.741 120.516 118.018C119.831 120.746 118.41 123.567 117.719 126.334L119.539 135.544L125.61 118.677C126.278 116.597 128.178 117.544 129.689 117.985C136.469 119.961 145.614 123.387 147.542 130.966L147.998 132.928V138.029C147.355 140.587 145.591 142.356 143.038 142.998H86.1152V143Z" fill="#4763E4"/>
<path d="M114.576 112.6C124.666 112.6 132.844 104.407 132.844 94.3C132.844 84.1932 124.666 76 114.576 76C104.487 76 96.3086 84.1932 96.3086 94.3C96.3086 104.407 104.487 112.6 114.576 112.6Z" fill="#4763E4"/>
</g>
<defs>
<clipPath id="clip0_943_11739">
<rect width="67" height="67" fill="white" transform="translate(81 76)"/>
</clipPath>
</defs>
</svg>
