<svg width="105" height="112" viewBox="0 0 105 112" fill="none" xmlns="http://www.w3.org/2000/svg">
<path d="M18.1111 80.4112C17.5172 79.8175 16.7119 79.484 15.8722 79.484C15.0326 79.484 14.2273 79.8175 13.6334 80.4112L9.53891 84.5057L5.44441 80.4112C5.1523 80.1087 4.80287 79.8675 4.41653 79.7015C4.03018 79.5355 3.61465 79.4482 3.19418 79.4445C2.77371 79.4409 2.35673 79.521 1.96756 79.6802C1.57839 79.8395 1.22482 80.0746 0.927495 80.3719C0.630168 80.6692 0.395033 81.0228 0.23581 81.412C0.0765872 81.8012 -0.00353419 82.2181 0.000119564 82.6386C0.00377332 83.0591 0.0911299 83.4746 0.257092 83.8609C0.423054 84.2473 0.664298 84.5967 0.966747 84.8888L5.06125 88.9833L0.966747 93.0778C0.664298 93.3699 0.423054 93.7194 0.257092 94.1057C0.0911299 94.4921 0.00377332 94.9076 0.000119564 95.3281C-0.00353419 95.7485 0.0765872 96.1655 0.23581 96.5547C0.395033 96.9439 0.630168 97.2974 0.927495 97.5947C1.22482 97.8921 1.57839 98.1272 1.96756 98.2864C2.35673 98.4457 2.77371 98.5258 3.19418 98.5221C3.61465 98.5185 4.03018 98.4311 4.41653 98.2652C4.80287 98.0992 5.1523 97.8579 5.44441 97.5555L9.53891 93.461L13.6334 97.5555C14.2307 98.1323 15.0306 98.4515 15.8608 98.4443C16.6911 98.4371 17.4854 98.1041 18.0725 97.5169C18.6596 96.9298 18.9927 96.1356 18.9999 95.3053C19.0071 94.475 18.6879 93.6751 18.1111 93.0778L14.0166 88.9833L18.1111 84.8888C18.7047 84.295 19.0382 83.4897 19.0382 82.65C19.0382 81.8103 18.7047 81.005 18.1111 80.4112ZM46.6111 80.4112C46.0172 79.8175 45.2119 79.484 44.3722 79.484C43.5326 79.484 42.7272 79.8175 42.1334 80.4112L38.0389 84.5057L33.9444 80.4112C33.3472 79.8343 32.5473 79.5152 31.717 79.5224C30.8867 79.5296 30.0924 79.8626 29.5053 80.4497C28.9182 81.0369 28.5852 81.8311 28.5779 82.6614C28.5707 83.4917 28.8899 84.2916 29.4667 84.8888L33.5612 88.9833L29.4667 93.0778C29.1643 93.3699 28.9231 93.7194 28.7571 94.1057C28.5911 94.4921 28.5038 94.9076 28.5001 95.3281C28.4965 95.7485 28.5766 96.1655 28.7358 96.5547C28.895 96.9439 29.1302 97.2974 29.4275 97.5947C29.7248 97.8921 30.0784 98.1272 30.4676 98.2864C30.8567 98.4457 31.2737 98.5258 31.6942 98.5221C32.1147 98.5185 32.5302 98.4311 32.9165 98.2652C33.3029 98.0992 33.6523 97.8579 33.9444 97.5555L38.0389 93.461L42.1334 97.5555C42.7307 98.1323 43.5306 98.4515 44.3609 98.4443C45.1911 98.4371 45.9854 98.1041 46.5725 97.5169C47.1596 96.9298 47.4927 96.1356 47.4999 95.3053C47.5071 94.475 47.1879 93.6751 46.6111 93.0778L42.5166 88.9833L46.6111 84.8888C47.2047 84.295 47.5382 83.4897 47.5382 82.65C47.5382 81.8103 47.2047 81.005 46.6111 80.4112ZM75.1111 80.4112C74.5173 79.8175 73.7119 79.484 72.8723 79.484C72.0326 79.484 71.2272 79.8175 70.6334 80.4112L66.5389 84.5057L62.4444 80.4112C61.8472 79.8343 61.0473 79.5152 60.217 79.5224C59.3867 79.5296 58.5924 79.8626 58.0053 80.4497C57.4182 81.0369 57.0852 81.8311 57.0779 82.6614C57.0707 83.4917 57.3899 84.2916 57.9667 84.8888L62.0613 88.9833L57.9667 93.0778C57.6643 93.3699 57.4231 93.7194 57.2571 94.1057C57.0911 94.4921 57.0038 94.9076 57.0001 95.3281C56.9965 95.7485 57.0766 96.1655 57.2358 96.5547C57.395 96.9439 57.6302 97.2974 57.9275 97.5947C58.2248 97.8921 58.5784 98.1272 58.9676 98.2864C59.3567 98.4457 59.7737 98.5258 60.1942 98.5221C60.6147 98.5185 61.0302 98.4311 61.4165 98.2652C61.8029 98.0992 62.1523 97.8579 62.4444 97.5555L66.5389 93.461L70.6334 97.5555C71.2307 98.1323 72.0306 98.4515 72.8609 98.4443C73.6911 98.4371 74.4854 98.1041 75.0725 97.5169C75.6596 96.9298 75.9927 96.1356 75.9999 95.3053C76.0071 94.475 75.6879 93.6751 75.1111 93.0778L71.0166 88.9833L75.1111 84.8888C75.7047 84.295 76.0382 83.4897 76.0382 82.65C76.0382 81.8103 75.7047 81.005 75.1111 80.4112ZM99.5166 88.9833L103.611 84.8888C104.188 84.2916 104.507 83.4917 104.5 82.6614C104.493 81.8311 104.16 81.0369 103.573 80.4497C102.985 79.8626 102.191 79.5296 101.361 79.5224C100.531 79.5152 99.7307 79.8343 99.1334 80.4112L95.0389 84.5057L90.9444 80.4112C90.3472 79.8343 89.5473 79.5152 88.717 79.5224C87.8867 79.5296 87.0924 79.8626 86.5053 80.4497C85.9182 81.0369 85.5852 81.8311 85.5779 82.6614C85.5707 83.4917 85.8899 84.2916 86.4668 84.8888L90.5612 88.9833L86.4668 93.0778C86.1643 93.3699 85.9231 93.7194 85.7571 94.1057C85.5911 94.4921 85.5038 94.9076 85.5001 95.3281C85.4965 95.7485 85.5766 96.1655 85.7358 96.5547C85.895 96.9439 86.1302 97.2974 86.4275 97.5947C86.7248 97.8921 87.0784 98.1272 87.4676 98.2864C87.8567 98.4457 88.2737 98.5258 88.6942 98.5221C89.1147 98.5185 89.5302 98.4311 89.9165 98.2652C90.3029 98.0992 90.6523 97.8579 90.9444 97.5555L95.0389 93.461L99.1334 97.5555C99.7307 98.1323 100.531 98.4515 101.361 98.4443C102.191 98.4371 102.985 98.1041 103.573 97.5169C104.16 96.9298 104.493 96.1356 104.5 95.3053C104.507 94.475 104.188 93.6751 103.611 93.0778L99.5166 88.9833ZM15.8722 104.817H3.20558C2.36573 104.817 1.56027 105.15 0.966408 105.744C0.372543 106.338 0.0389126 107.143 0.0389126 107.983C0.0389126 108.823 0.372543 109.629 0.966408 110.222C1.56027 110.816 2.36573 111.15 3.20558 111.15H15.8722C16.7121 111.15 17.5176 110.816 18.1114 110.222C18.7053 109.629 19.0389 108.823 19.0389 107.983C19.0389 107.143 18.7053 106.338 18.1114 105.744C17.5176 105.15 16.7121 104.817 15.8722 104.817ZM44.3722 104.817H31.7056C30.8657 104.817 30.0603 105.15 29.4664 105.744C28.8725 106.338 28.5389 107.143 28.5389 107.983C28.5389 108.823 28.8725 109.629 29.4664 110.222C30.0603 110.816 30.8657 111.15 31.7056 111.15H44.3722C45.2121 111.15 46.0176 110.816 46.6114 110.222C47.2053 109.629 47.5389 108.823 47.5389 107.983C47.5389 107.143 47.2053 106.338 46.6114 105.744C46.0176 105.15 45.2121 104.817 44.3722 104.817ZM72.8723 104.817H60.2056C59.3657 104.817 58.5603 105.15 57.9664 105.744C57.3725 106.338 57.0389 107.143 57.0389 107.983C57.0389 108.823 57.3725 109.629 57.9664 110.222C58.5603 110.816 59.3657 111.15 60.2056 111.15H72.8723C73.7121 111.15 74.5176 110.816 75.1114 110.222C75.7053 109.629 76.0389 108.823 76.0389 107.983C76.0389 107.143 75.7053 106.338 75.1114 105.744C74.5176 105.15 73.7121 104.817 72.8723 104.817ZM101.372 104.817H88.7056C87.8657 104.817 87.0603 105.15 86.4664 105.744C85.8725 106.338 85.5389 107.143 85.5389 107.983C85.5389 108.823 85.8725 109.629 86.4664 110.222C87.0603 110.816 87.8657 111.15 88.7056 111.15H101.372C102.212 111.15 103.018 110.816 103.611 110.222C104.205 109.629 104.539 108.823 104.539 107.983C104.539 107.143 104.205 106.338 103.611 105.744C103.018 105.15 102.212 104.817 101.372 104.817ZM79.3639 27.55H73.5056V21.2167C73.5056 15.5897 71.2703 10.1931 67.2914 6.21422C63.3125 2.23532 57.9159 0 52.2889 0C46.6619 0 41.2654 2.23532 37.2865 6.21422C33.3076 10.1931 31.0722 15.5897 31.0722 21.2167V27.55H25.2139C24.7969 27.5458 24.3832 27.6248 23.9971 27.7824C23.611 27.9401 23.2602 28.1732 22.9653 28.4681C22.6704 28.763 22.4373 29.1137 22.2797 29.4998C22.122 29.886 22.043 30.2996 22.0472 30.7167V60.4833C22.0489 63.0024 23.0504 65.4178 24.8316 67.199C26.6128 68.9802 29.0282 69.9817 31.5472 69.9833H73.0306C75.5496 69.9817 77.965 68.9802 79.7462 67.199C81.5275 65.4178 82.5289 63.0024 82.5306 60.4833V30.7167C82.5348 30.2996 82.4558 29.886 82.2982 29.4998C82.1405 29.1137 81.9074 28.763 81.6125 28.4681C81.3176 28.1732 80.9669 27.9401 80.5807 27.7824C80.1946 27.6248 79.7809 27.5458 79.3639 27.55ZM37.4056 21.2167C37.4056 17.2694 38.9736 13.4837 41.7648 10.6926C44.556 7.90139 48.3416 6.33333 52.2889 6.33333C56.2362 6.33333 60.0219 7.90139 62.813 10.6926C65.6042 13.4837 67.1723 17.2694 67.1723 21.2167V27.55H37.4056V21.2167Z" fill="#6CBE5D"/>
</svg>
