<svg width="353" height="35" viewBox="0 0 353 35" fill="none" xmlns="http://www.w3.org/2000/svg">
<path d="M6.456 21.776H13.624V26H0.984V3.536H6.456V21.776ZM24.362 26.256C22.6127 26.256 21.034 25.8827 19.626 25.136C18.2393 24.3893 17.1407 23.3227 16.33 21.936C15.5407 20.5493 15.146 18.928 15.146 17.072C15.146 15.2373 15.5513 13.6267 16.362 12.24C17.1727 10.832 18.282 9.75467 19.69 9.008C21.098 8.26133 22.6767 7.888 24.426 7.888C26.1753 7.888 27.754 8.26133 29.162 9.008C30.57 9.75467 31.6793 10.832 32.49 12.24C33.3007 13.6267 33.706 15.2373 33.706 17.072C33.706 18.9067 33.29 20.528 32.458 21.936C31.6473 23.3227 30.5273 24.3893 29.098 25.136C27.69 25.8827 26.1113 26.256 24.362 26.256ZM24.362 21.52C25.4073 21.52 26.2927 21.136 27.018 20.368C27.7647 19.6 28.138 18.5013 28.138 17.072C28.138 15.6427 27.7753 14.544 27.05 13.776C26.346 13.008 25.4713 12.624 24.426 12.624C23.3593 12.624 22.474 13.008 21.77 13.776C21.066 14.5227 20.714 15.6213 20.714 17.072C20.714 18.5013 21.0553 19.6 21.738 20.368C22.442 21.136 23.3167 21.52 24.362 21.52ZM43.393 7.888C44.6517 7.888 45.7503 8.144 46.689 8.656C47.649 9.168 48.385 9.84 48.897 10.672V8.144H54.369V25.968C54.369 27.6107 54.0383 29.0933 53.377 30.416C52.737 31.76 51.745 32.8267 50.401 33.616C49.0783 34.4053 47.425 34.8 45.441 34.8C42.7957 34.8 40.6517 34.1707 39.009 32.912C37.3663 31.6747 36.4277 29.9893 36.193 27.856H41.601C41.7717 28.5387 42.177 29.072 42.817 29.456C43.457 29.8613 44.2463 30.064 45.185 30.064C46.3157 30.064 47.2117 29.7333 47.873 29.072C48.5557 28.432 48.897 27.3973 48.897 25.968V23.44C48.3637 24.272 47.6277 24.9547 46.689 25.488C45.7503 26 44.6517 26.256 43.393 26.256C41.921 26.256 40.5877 25.8827 39.393 25.136C38.1983 24.368 37.249 23.2907 36.545 21.904C35.8623 20.496 35.521 18.8747 35.521 17.04C35.521 15.2053 35.8623 13.5947 36.545 12.208C37.249 10.8213 38.1983 9.75467 39.393 9.008C40.5877 8.26133 41.921 7.888 43.393 7.888ZM48.897 17.072C48.897 15.7067 48.513 14.6293 47.745 13.84C46.9983 13.0507 46.081 12.656 44.993 12.656C43.905 12.656 42.977 13.0507 42.209 13.84C41.4623 14.608 41.089 15.6747 41.089 17.04C41.089 18.4053 41.4623 19.4933 42.209 20.304C42.977 21.0933 43.905 21.488 44.993 21.488C46.081 21.488 46.9983 21.0933 47.745 20.304C48.513 19.5147 48.897 18.4373 48.897 17.072ZM61.0798 6.288C60.1198 6.288 59.3304 6.01067 58.7118 5.456C58.1144 4.88 57.8158 4.176 57.8158 3.344C57.8158 2.49067 58.1144 1.78667 58.7118 1.232C59.3304 0.655998 60.1198 0.367998 61.0798 0.367998C62.0184 0.367998 62.7864 0.655998 63.3838 1.232C64.0024 1.78667 64.3118 2.49067 64.3118 3.344C64.3118 4.176 64.0024 4.88 63.3838 5.456C62.7864 6.01067 62.0184 6.288 61.0798 6.288ZM63.7998 8.144V26H58.3278V8.144H63.7998ZM78.6453 7.952C80.7359 7.952 82.3999 8.63467 83.6373 10C84.8959 11.344 85.5253 13.2 85.5253 15.568V26H80.0853V16.304C80.0853 15.1093 79.7759 14.1813 79.1573 13.52C78.5386 12.8587 77.7066 12.528 76.6613 12.528C75.6159 12.528 74.7839 12.8587 74.1653 13.52C73.5466 14.1813 73.2373 15.1093 73.2373 16.304V26H67.7653V8.144H73.2373V10.512C73.7919 9.72267 74.5386 9.104 75.4773 8.656C76.4159 8.18667 77.4719 7.952 78.6453 7.952ZM106.061 21.36V26H103.277C101.293 26 99.7463 25.52 98.637 24.56C97.5277 23.5787 96.973 21.9893 96.973 19.792V12.688H94.797V8.144H96.973V3.792H102.445V8.144H106.029V12.688H102.445V19.856C102.445 20.3893 102.573 20.7733 102.829 21.008C103.085 21.2427 103.512 21.36 104.109 21.36H106.061ZM117.237 26.256C115.488 26.256 113.909 25.8827 112.501 25.136C111.114 24.3893 110.016 23.3227 109.205 21.936C108.416 20.5493 108.021 18.928 108.021 17.072C108.021 15.2373 108.426 13.6267 109.237 12.24C110.048 10.832 111.157 9.75467 112.565 9.008C113.973 8.26133 115.552 7.888 117.301 7.888C119.05 7.888 120.629 8.26133 122.037 9.008C123.445 9.75467 124.554 10.832 125.365 12.24C126.176 13.6267 126.581 15.2373 126.581 17.072C126.581 18.9067 126.165 20.528 125.333 21.936C124.522 23.3227 123.402 24.3893 121.973 25.136C120.565 25.8827 118.986 26.256 117.237 26.256ZM117.237 21.52C118.282 21.52 119.168 21.136 119.893 20.368C120.64 19.6 121.013 18.5013 121.013 17.072C121.013 15.6427 120.65 14.544 119.925 13.776C119.221 13.008 118.346 12.624 117.301 12.624C116.234 12.624 115.349 13.008 114.645 13.776C113.941 14.5227 113.589 15.6213 113.589 17.072C113.589 18.5013 113.93 19.6 114.613 20.368C115.317 21.136 116.192 21.52 117.237 21.52ZM154.505 8.144L143.305 34.48H137.417L141.513 25.392L134.249 8.144H140.361L144.489 19.312L148.585 8.144H154.505ZM164.612 26.256C162.863 26.256 161.284 25.8827 159.876 25.136C158.489 24.3893 157.391 23.3227 156.58 21.936C155.791 20.5493 155.396 18.928 155.396 17.072C155.396 15.2373 155.801 13.6267 156.612 12.24C157.423 10.832 158.532 9.75467 159.94 9.008C161.348 8.26133 162.927 7.888 164.676 7.888C166.425 7.888 168.004 8.26133 169.412 9.008C170.82 9.75467 171.929 10.832 172.74 12.24C173.551 13.6267 173.956 15.2373 173.956 17.072C173.956 18.9067 173.54 20.528 172.708 21.936C171.897 23.3227 170.777 24.3893 169.348 25.136C167.94 25.8827 166.361 26.256 164.612 26.256ZM164.612 21.52C165.657 21.52 166.543 21.136 167.268 20.368C168.015 19.6 168.388 18.5013 168.388 17.072C168.388 15.6427 168.025 14.544 167.3 13.776C166.596 13.008 165.721 12.624 164.676 12.624C163.609 12.624 162.724 13.008 162.02 13.776C161.316 14.5227 160.964 15.6213 160.964 17.072C160.964 18.5013 161.305 19.6 161.988 20.368C162.692 21.136 163.567 21.52 164.612 21.52ZM194.491 8.144V26H189.019V23.568C188.464 24.3573 187.707 24.9973 186.747 25.488C185.808 25.9573 184.763 26.192 183.611 26.192C182.246 26.192 181.04 25.8933 179.995 25.296C178.95 24.6773 178.139 23.792 177.563 22.64C176.987 21.488 176.699 20.1333 176.699 18.576V8.144H182.139V17.84C182.139 19.0347 182.448 19.9627 183.067 20.624C183.686 21.2853 184.518 21.616 185.563 21.616C186.63 21.616 187.472 21.2853 188.091 20.624C188.71 19.9627 189.019 19.0347 189.019 17.84V8.144H194.491ZM203.894 11.12C204.534 10.1387 205.334 9.37067 206.294 8.816C207.254 8.24 208.32 7.952 209.494 7.952V13.744H207.99C206.624 13.744 205.6 14.0427 204.918 14.64C204.235 15.216 203.894 16.24 203.894 17.712V26H198.422V8.144H203.894V11.12ZM217.802 17.04C217.802 15.2053 218.144 13.5947 218.826 12.208C219.53 10.8213 220.48 9.75467 221.674 9.008C222.869 8.26133 224.202 7.888 225.674 7.888C226.933 7.888 228.032 8.144 228.97 8.656C229.93 9.168 230.666 9.84 231.178 10.672V8.144H236.65V26H231.178V23.472C230.645 24.304 229.898 24.976 228.938 25.488C228 26 226.901 26.256 225.642 26.256C224.192 26.256 222.869 25.8827 221.674 25.136C220.48 24.368 219.53 23.2907 218.826 21.904C218.144 20.496 217.802 18.8747 217.802 17.04ZM231.178 17.072C231.178 15.7067 230.794 14.6293 230.026 13.84C229.28 13.0507 228.362 12.656 227.274 12.656C226.186 12.656 225.258 13.0507 224.49 13.84C223.744 14.608 223.37 15.6747 223.37 17.04C223.37 18.4053 223.744 19.4933 224.49 20.304C225.258 21.0933 226.186 21.488 227.274 21.488C228.362 21.488 229.28 21.0933 230.026 20.304C230.794 19.5147 231.178 18.4373 231.178 17.072ZM239.521 17.072C239.521 15.216 239.894 13.5947 240.641 12.208C241.409 10.8213 242.465 9.75467 243.809 9.008C245.174 8.26133 246.732 7.888 248.481 7.888C250.721 7.888 252.588 8.47467 254.081 9.648C255.596 10.8213 256.588 12.4747 257.057 14.608H251.233C250.742 13.2427 249.793 12.56 248.385 12.56C247.382 12.56 246.582 12.9547 245.985 13.744C245.388 14.512 245.089 15.6213 245.089 17.072C245.089 18.5227 245.388 19.6427 245.985 20.432C246.582 21.2 247.382 21.584 248.385 21.584C249.793 21.584 250.742 20.9013 251.233 19.536H257.057C256.588 21.6267 255.596 23.2693 254.081 24.464C252.566 25.6587 250.7 26.256 248.481 26.256C246.732 26.256 245.174 25.8827 243.809 25.136C242.465 24.3893 241.409 23.3227 240.641 21.936C239.894 20.5493 239.521 18.928 239.521 17.072ZM258.896 17.072C258.896 15.216 259.269 13.5947 260.016 12.208C260.784 10.8213 261.84 9.75467 263.184 9.008C264.549 8.26133 266.107 7.888 267.856 7.888C270.096 7.888 271.963 8.47467 273.456 9.648C274.971 10.8213 275.963 12.4747 276.432 14.608H270.608C270.117 13.2427 269.168 12.56 267.76 12.56C266.757 12.56 265.957 12.9547 265.36 13.744C264.763 14.512 264.464 15.6213 264.464 17.072C264.464 18.5227 264.763 19.6427 265.36 20.432C265.957 21.2 266.757 21.584 267.76 21.584C269.168 21.584 270.117 20.9013 270.608 19.536H276.432C275.963 21.6267 274.971 23.2693 273.456 24.464C271.941 25.6587 270.075 26.256 267.856 26.256C266.107 26.256 264.549 25.8827 263.184 25.136C261.84 24.3893 260.784 23.3227 260.016 21.936C259.269 20.5493 258.896 18.928 258.896 17.072ZM287.487 26.256C285.738 26.256 284.159 25.8827 282.751 25.136C281.364 24.3893 280.266 23.3227 279.455 21.936C278.666 20.5493 278.271 18.928 278.271 17.072C278.271 15.2373 278.676 13.6267 279.487 12.24C280.298 10.832 281.407 9.75467 282.815 9.008C284.223 8.26133 285.802 7.888 287.551 7.888C289.3 7.888 290.879 8.26133 292.287 9.008C293.695 9.75467 294.804 10.832 295.615 12.24C296.426 13.6267 296.831 15.2373 296.831 17.072C296.831 18.9067 296.415 20.528 295.583 21.936C294.772 23.3227 293.652 24.3893 292.223 25.136C290.815 25.8827 289.236 26.256 287.487 26.256ZM287.487 21.52C288.532 21.52 289.418 21.136 290.143 20.368C290.89 19.6 291.263 18.5013 291.263 17.072C291.263 15.6427 290.9 14.544 290.175 13.776C289.471 13.008 288.596 12.624 287.551 12.624C286.484 12.624 285.599 13.008 284.895 13.776C284.191 14.5227 283.839 15.6213 283.839 17.072C283.839 18.5013 284.18 19.6 284.863 20.368C285.567 21.136 286.442 21.52 287.487 21.52ZM317.366 8.144V26H311.894V23.568C311.339 24.3573 310.582 24.9973 309.622 25.488C308.683 25.9573 307.638 26.192 306.486 26.192C305.121 26.192 303.915 25.8933 302.87 25.296C301.825 24.6773 301.014 23.792 300.438 22.64C299.862 21.488 299.574 20.1333 299.574 18.576V8.144H305.014V17.84C305.014 19.0347 305.323 19.9627 305.942 20.624C306.561 21.2853 307.393 21.616 308.438 21.616C309.505 21.616 310.347 21.2853 310.966 20.624C311.585 19.9627 311.894 19.0347 311.894 17.84V8.144H317.366ZM332.177 7.952C334.267 7.952 335.931 8.63467 337.169 10C338.427 11.344 339.057 13.2 339.057 15.568V26H333.617V16.304C333.617 15.1093 333.307 14.1813 332.689 13.52C332.07 12.8587 331.238 12.528 330.193 12.528C329.147 12.528 328.315 12.8587 327.697 13.52C327.078 14.1813 326.769 15.1093 326.769 16.304V26H321.297V8.144H326.769V10.512C327.323 9.72267 328.07 9.104 329.009 8.656C329.947 8.18667 331.003 7.952 332.177 7.952ZM352.811 21.36V26H350.027C348.043 26 346.496 25.52 345.387 24.56C344.278 23.5787 343.723 21.9893 343.723 19.792V12.688H341.547V8.144H343.723V3.792H349.195V8.144H352.779V12.688H349.195V19.856C349.195 20.3893 349.323 20.7733 349.579 21.008C349.835 21.2427 350.262 21.36 350.859 21.36H352.811Z" fill="#111827"/>
</svg>
